<svg width="200" height="200" viewBox="0 0 130 89" fill="none" xmlns="http://www.w3.org/2000/svg">
<g opacity="0.8" clip-path="url(#clip0)">
<path d="M13.0205 15.1383C16.5348 15.1383 19.3837 12.338 19.3837 8.88361C19.3837 5.42923 16.5348 2.62891 13.0205 2.62891C9.50626 2.62891 6.65739 5.42923 6.65739 8.88361C6.65739 12.338 9.50626 15.1383 13.0205 15.1383Z" fill="#C8EDF9"/>
<path opacity="0.1" d="M12.2431 21.6163C14.9148 27.5481 11.5067 34.3786 7.49506 39.522C6.15235 41.2468 4.67004 43.055 4.4839 45.2184C4.25943 47.8648 6.08255 50.2972 8.24511 51.8875C12.1897 54.7854 17.577 55.6815 22.2716 54.219C26.3285 52.9557 29.7393 50.1021 33.8318 48.9518C40.6753 47.0252 47.9295 50.2192 53.7903 54.1988C57.9388 57.012 62.3817 60.4401 67.3829 59.8374C70.9019 59.4136 73.8884 56.9851 75.9155 54.1262C76.8941 52.7458 77.7454 51.1986 79.1703 50.2676C80.0175 49.7133 81.0125 49.42 82.0076 49.2102C91.0944 47.301 100.738 51.9601 109.705 49.564C115.761 47.9495 120.59 43.2407 123.593 37.8228C126.596 32.4049 127.998 26.2875 129.165 20.2265C129.995 15.9213 130.683 11.2703 128.776 7.31078C126.759 3.11856 122.089 0.577124 117.396 0.100857C112.702 -0.375409 107.995 0.939034 103.672 2.79298C98.2692 5.11511 92.9737 8.36557 87.0773 8.37633C83.0615 8.3844 79.2318 6.8695 75.3926 5.71381C68.9734 3.78318 62.2982 2.82392 55.6462 1.93865C49.2776 1.09106 42.8461 0.302665 36.4391 0.803149C31.906 1.15699 27.9025 2.86025 23.5035 3.64864C20.636 4.16258 17.7549 3.78318 14.9408 4.64423C11.4753 5.70977 7.91114 8.17856 7.71952 12.0667C7.53885 15.7679 10.8265 18.4694 12.2431 21.6163Z" fill="#B7B5D7"/>
<path d="M82.3826 26.8983C81.7982 25.4009 80.2912 21.8814 79.2989 22.5796C78.0452 23.4622 80.5527 27.3611 80.5527 27.3611C80.6238 28.0769 79.2141 29.5662 78.4585 30.3089C78.4585 30.2497 78.4585 30.216 78.4585 30.216C78.4513 30.2443 78.4403 30.2714 78.4257 30.2967L78.3627 30.2631C78.3459 30.3225 78.3154 30.3772 78.2737 30.4232C78.2737 30.3223 78.2669 30.2631 78.2669 30.2631C78.1218 30.8672 75.5897 31.6327 75.5897 31.6327C75.5897 31.6327 75.5213 31.6327 75.4036 31.6327C74.7001 31.6327 72.8687 31.4767 72.0201 30.142C71.5812 29.419 71.0197 28.7752 70.3599 28.2383C70.1339 28.0643 69.8594 27.962 69.5729 27.945C67.2283 27.797 65.3299 26.6306 64.9507 26.3817L64.8809 26.3346L64.8659 26.3776C64.7769 26.2525 64.6907 26.1193 64.6099 25.9821L64.5689 25.9081C65.1364 25.6281 65.6139 25.199 65.9485 24.6685C66.2831 24.1379 66.4617 23.5267 66.4645 22.9025C66.4645 22.8796 66.4645 22.8554 66.4645 22.8325C66.6708 22.4821 66.7794 22.0844 66.7793 21.6796V21.2759L67.3145 20.8077C67.5595 20.5938 67.8127 20.3678 67.9373 20.0732C67.9873 19.9539 68.0097 19.8253 68.003 19.6965C68.015 19.5861 67.9981 19.4746 67.9541 19.3724C67.91 19.2702 67.8401 19.1808 67.7511 19.1126C67.3405 18.8341 66.6561 19.1126 66.3591 18.7251C66.2223 18.5502 66.2469 18.312 66.1798 18.1062C66.043 17.6878 65.5502 17.4618 65.0944 17.455C64.6387 17.4483 64.202 17.6111 63.7641 17.7335C62.8439 17.9903 61.8835 18.0788 60.9308 17.9945C60.6731 17.9495 60.4086 17.9586 60.1548 18.0214C59.9997 18.0844 59.8619 18.1824 59.7526 18.3075C59.6432 18.4325 59.5653 18.5811 59.5252 18.7412C59.4913 18.8615 59.4711 18.9852 59.4649 19.1099C59.0831 19.5332 58.8718 20.0792 58.8709 20.6449V21.6796C58.8718 22.2319 59.0732 22.7657 59.4389 23.185C59.4821 23.6718 59.6327 24.1436 59.8802 24.5674C60.1276 24.9912 60.4661 25.3569 60.872 25.639C60.872 25.6659 60.872 25.6933 60.872 25.7211L60.8898 25.7319C60.8676 26.0526 60.8173 26.3709 60.7392 26.683V26.6144C60.7392 26.6144 58.823 27.6167 56.77 27.641H56.5441C56.1391 27.6275 55.7453 27.7727 55.4491 28.0446C54.8414 28.6069 53.7766 29.4962 53.1223 29.4962C52.9855 29.4962 49.5309 30.1595 48.9587 30.2698L47.8898 29.2406L47.8569 29.3012L47.794 29.2406C47.6771 29.2495 47.5609 29.2661 47.4463 29.2904C46.8988 28.6527 45.8039 27.1701 45.5506 25.1802C45.5506 25.1802 47.9144 22.5339 47.0453 20.0678C46.3034 17.9663 44.26 22.4706 43.6796 23.8281C43.5781 24.065 43.5655 24.3296 43.644 24.5748L45.5643 30.6587C45.3815 31.1301 45.3291 31.6407 45.4124 32.1386H45.3905L46.7893 33.9024C46.7893 33.9024 47.8419 34.3437 49.4884 34.3356C50.6952 34.3375 51.8912 34.1119 53.0115 33.671H53.3359L53.2743 33.6938H54.94L55.9994 36.8434C55.9638 37.13 55.4519 41.1298 55.0413 42.0245C54.9194 42.3234 54.8644 42.6446 54.8798 42.9663C54.9013 43.5843 55.0039 44.197 55.185 44.7892L56.113 44.7556L56.0774 44.8269C55.2917 46.4104 53.9792 49.2317 53.2031 51.8687L51.8522 54.5595L52.865 66.6276H52.9061L52.9841 66.6397C53.0936 66.6558 53.2578 66.68 53.4741 66.7069L53.3947 66.8415L51.1624 70.474C51.1624 70.474 49.5705 73.6774 53.0922 73.0733C53.0922 73.0733 54.3939 72.702 54.9249 70.5171L57.2408 68.382C57.2408 68.382 57.3489 66.9639 56.6933 66.3975C56.6522 65.7423 56.5482 63.8292 56.7084 63.369C56.9014 62.812 55.8871 56.4067 55.8871 56.4067C55.8871 56.4067 59.5525 48.933 61.7726 48.7474C61.9353 48.7361 62.0987 48.7572 62.253 48.8093C64.0775 49.3932 66.288 53.7293 66.9381 55.0788L66.9682 55.1407V55.1528L66.9928 55.2052V55.22L67.0147 55.2658V55.2779L67.0339 55.3196V55.329L67.0503 55.3626V55.3761L67.0627 55.4017V55.4124L67.0709 55.4313V55.442V55.4541L67.0777 55.4703L67.3665 63.8722L67.3952 63.887H67.4089L67.3843 64.0606L67.2584 64.9283C67.2584 64.9283 68.8502 68.2245 68.753 68.6416C68.6558 69.0587 69.8138 70.731 71.4535 70.2668C73.0932 69.8027 72.1173 67.1859 72.1173 67.1859L70.5378 63.9866L70.468 63.844C70.6253 63.7491 70.7737 63.6405 70.9115 63.5197C70.9115 63.5197 70.4297 60.0849 70.9115 59.3423C71.3932 58.5996 71.5383 55.2106 71.5383 55.2106C71.5383 55.2106 71.2003 52.8898 70.6213 51.8687L68.1959 43.3591C68.9227 44.0237 69.488 44.2834 69.9602 44.2659H70.0382C70.2458 44.2697 70.4507 44.2196 70.6322 44.1206C70.7297 44.0665 70.8214 44.003 70.906 43.9309C70.9221 43.9172 70.9372 43.9024 70.9512 43.8865C71.6259 43.3295 70.1792 41.1473 69.3593 39.8503C68.5696 38.5991 69.6577 35.1993 69.7398 34.9464C69.8129 34.8937 69.8913 34.8486 69.9739 34.8119C70.1437 34.7404 70.3258 34.7016 70.5104 34.6975C71.2961 34.7244 72.2624 35.1684 73.4586 35.3917C74.29 35.5307 75.1325 35.5951 75.9757 35.5841H76.025C76.3603 35.5841 76.6642 35.5774 76.9105 35.568C77.1353 35.5593 77.3552 35.5009 77.5538 35.3971C77.7241 35.2995 77.8782 35.177 78.011 35.0339L80.1106 32.7023L80.0558 32.7279C80.1576 32.4634 80.1576 32.1716 80.0558 31.9072L82.2745 28.1401C82.3865 27.9545 82.4544 27.7464 82.4731 27.5314C82.4918 27.3163 82.4609 27.0999 82.3826 26.8983Z" fill="url(#paint0_linear)"/>
<path d="M57.4557 68.0631L55.2206 70.1686C54.7087 72.3212 53.4508 72.6858 53.4508 72.6858C50.0523 73.2805 51.588 70.1296 51.588 70.1296L53.7437 66.5441L54.0093 66.1015C54.0093 66.1015 55.5463 65.644 56.5701 65.9185C56.6994 65.9533 56.8188 66.0169 56.9191 66.1042C57.5611 66.6517 57.4557 68.0631 57.4557 68.0631Z" fill="#444176"/>
<path d="M71.2372 69.9399C69.6536 70.3973 68.5367 68.7506 68.6366 68.3376C68.7366 67.9245 67.1899 64.6808 67.1899 64.6808L67.3104 63.8251L67.4226 63.0327L70.0231 63.2157L70.2681 63.7215L71.7929 66.8765C71.7929 66.8765 72.8208 69.4825 71.2372 69.9399Z" fill="#444176"/>
<path opacity="0.1" d="M56.9438 66.4619C56.6988 66.875 54.7128 66.6664 53.7451 66.5373L54.0106 66.0946C54.0106 66.0946 55.5477 65.6372 56.5715 65.9117C56.7007 65.9465 56.8201 66.01 56.9205 66.0973C56.9342 66.3207 56.9438 66.4619 56.9438 66.4619Z" fill="black"/>
<path opacity="0.1" d="M70.2709 63.7189C68.9391 64.5907 67.5212 63.9314 67.3076 63.8225L67.4199 63.03L70.0204 63.213L70.2709 63.7189Z" fill="black"/>
<path d="M70.6322 59.1393C70.1669 59.8711 70.6322 63.2588 70.6322 63.2588C69.0952 64.6325 67.2803 63.6248 67.2803 63.6248L67.0065 55.3412C67.0065 55.3412 63.9803 48.5215 61.8383 48.7044C59.6963 48.8874 56.1581 56.2561 56.1581 56.2561C56.1581 56.2561 57.1354 62.5713 56.9492 63.1176C56.7631 63.6638 56.9492 66.3209 56.9492 66.3209C56.6235 66.8699 53.225 66.3209 53.225 66.3209L52.2477 54.421L53.5453 51.7652C54.2912 49.1659 55.5586 46.3836 56.3169 44.823C56.6933 44.0467 56.9451 43.5731 56.9451 43.5731L59.4225 43.0659L67.4637 41.4272L70.353 51.7652C70.9115 52.7715 71.2372 55.06 71.2372 55.06C71.2372 55.06 71.0976 58.4074 70.6322 59.1393Z" fill="#565387"/>
<g opacity="0.1">
<path opacity="0.1" d="M68.0248 63.6249L67.7511 55.3413C67.7511 55.3413 64.7249 48.5216 62.5829 48.7045C62.4871 48.7137 62.3928 48.7345 62.3023 48.7664C64.3909 49.4485 67.0065 55.3413 67.0065 55.3413L67.2803 63.6249C67.8513 63.9109 68.4951 64.0264 69.1321 63.9572C68.746 63.9115 68.3711 63.799 68.0248 63.6249Z" fill="black"/>
<path opacity="0.1" d="M53.9641 66.325L52.9868 54.425L54.2899 51.7652C55.0358 49.1659 56.3032 46.3837 57.0615 44.823C57.4379 44.0467 57.6897 43.5731 57.6897 43.5731L60.1671 43.0659L67.5075 41.5658L67.4678 41.4219L59.4225 43.0659L56.9451 43.5731C56.9451 43.5731 56.6933 44.0467 56.3169 44.823C55.5559 46.3837 54.2912 49.1713 53.5453 51.7652L52.2423 54.4196L53.2195 66.3196C53.2195 66.3196 55.0755 66.6196 56.1759 66.5537C55.4352 66.5142 54.697 66.4378 53.9641 66.325Z" fill="black"/>
</g>
<path d="M48.3017 29.46C48.3017 29.46 45.6478 29.5945 46.0201 32.3431L46.7647 32.4346L47.8816 31.2453L48.44 30.2389V30.0102L48.3017 29.46Z" fill="#CED2DF"/>
<path opacity="0.1" d="M48.3017 29.46C48.3017 29.46 45.6478 29.5945 46.0201 32.3431L46.7647 32.4346L47.8816 31.2453L48.44 30.2389V30.0102L48.3017 29.46Z" fill="black"/>
<path d="M77.8262 30.4663C77.8262 30.4663 80.0161 31.6099 79.4563 32.9378L78.7583 33.2069L77.8275 32.7037L77.6907 31.5144L77.7838 30.691L77.8262 30.4663Z" fill="#CED2DF"/>
<path opacity="0.1" d="M77.8262 30.4663C77.8262 30.4663 80.0161 31.6099 79.4563 32.9378L78.7583 33.2069L77.8275 32.7037L77.6907 31.5144L77.7838 30.691L77.8262 30.4663Z" fill="black"/>
<path d="M63.7654 18.658H61.9026C60.3084 18.658 59.016 19.9283 59.016 21.4954C59.016 23.0624 60.3084 24.3328 61.9026 24.3328H63.7654C65.3596 24.3328 66.652 23.0624 66.652 21.4954C66.652 19.9283 65.3596 18.658 63.7654 18.658Z" fill="#88455E"/>
<path d="M48.284 29.8488L46.6538 32.405L46.517 31.9503L44.3024 24.8574C44.2266 24.6156 44.2387 24.3554 44.3366 24.1215C44.8964 22.7841 46.8701 18.3363 47.5859 20.4149C48.4236 22.8366 46.1419 25.4494 46.1419 25.4494C46.402 27.5697 47.6133 29.1061 48.0896 29.6389C48.2101 29.7775 48.284 29.8488 48.284 29.8488Z" fill="#EC8C9C"/>
<path d="M77.4771 30.9467C77.4771 30.9467 80.038 28.5667 79.9408 27.6061C79.9408 27.6061 77.5196 23.7624 78.7309 22.8973C79.689 22.2084 81.1439 25.6795 81.7078 27.1554C81.7824 27.352 81.8123 27.5623 81.7955 27.7714C81.7787 27.9806 81.7156 28.1836 81.6106 28.3663L78.5502 33.6927L77.4771 30.9467Z" fill="#EC8C9C"/>
<path d="M60.9007 24.3113C60.9007 24.3113 61.3661 27.2402 60.0165 28.3394C58.667 29.4386 63.8818 29.4318 63.8818 29.4318L65.7446 27.738C65.7446 27.738 63.6025 25.7697 64.2541 24.3059L60.9007 24.3113Z" fill="#EC8C9C"/>
<path opacity="0.1" d="M60.8076 27.6517C60.8076 27.6517 62.8101 29.1168 64.8111 27.4688L68.07 34.1055L67.8839 42.2061C67.8839 42.2061 61.132 45.6382 58.3385 43.534C55.545 41.4298 57.8731 40.3306 57.8731 40.3306L57.2216 34.1069L57.9197 30.0788C57.9197 30.0788 59.1761 28.1562 59.2706 28.1562C59.365 28.1562 60.8076 27.6517 60.8076 27.6517Z" fill="black"/>
<path d="M60.8076 27.5602C60.8076 27.5602 62.8101 29.028 64.8125 27.3772L68.0714 34.014L67.8852 42.1146C67.8852 42.1146 61.1334 45.5466 58.3399 43.4425C55.5463 41.3383 57.8745 40.2391 57.8745 40.2391L57.223 34.0153L57.921 29.9872C57.921 29.9872 59.1775 28.0647 59.272 28.0647C59.3664 28.0647 60.8076 27.5602 60.8076 27.5602Z" fill="#EBF1F6"/>
<path opacity="0.1" d="M60.8076 26.8755C60.8076 26.8755 58.9092 27.9383 56.848 27.8859C56.6546 27.8799 56.462 27.9118 56.2813 27.9797C56.1006 28.0476 55.9354 28.1502 55.7954 28.2814C55.2083 28.8357 54.1804 29.7129 53.5439 29.7129C53.407 29.7129 49.446 30.4905 49.446 30.4905L48.3989 29.4613C48.3989 29.4613 46.8386 32.4588 46.094 32.3216L47.4449 34.0612C47.4449 34.0612 50.0058 35.159 53.3578 33.8325H55.3136L56.3374 36.9444C56.3374 36.9444 55.8255 41.1554 55.4067 42.0703C54.9879 42.9852 55.5436 44.7705 55.5436 44.7705L59.2213 44.6359C59.2213 44.6359 59.4075 42.8506 59.6867 42.6179C59.9659 42.3851 58.7094 34.5173 58.7094 34.5173C58.7094 34.5173 57.8718 30.0775 60.9445 28.4765L60.8076 26.8755Z" fill="black"/>
<path opacity="0.1" d="M59.4211 43.071C59.2857 43.614 59.1892 44.1656 59.1323 44.7218L56.3169 44.8268C56.6933 44.0505 56.9451 43.5769 56.9451 43.5769L59.4211 43.071Z" fill="black"/>
<path opacity="0.1" d="M48.2839 29.8487L46.6538 32.4049L46.517 31.9502C47.1151 31.3663 47.8159 30.146 48.0951 29.6375C48.21 29.7774 48.2839 29.8487 48.2839 29.8487Z" fill="black"/>
<path d="M60.8076 26.8755C60.8076 26.8755 58.8148 27.9383 56.7549 27.8859C56.5615 27.8799 56.3689 27.9118 56.1882 27.9797C56.0075 28.0476 55.8424 28.1502 55.7024 28.2814C55.1152 28.8357 54.0873 29.7129 53.4508 29.7129C53.314 29.7129 49.3529 30.4905 49.3529 30.4905L48.3017 29.46C48.3017 29.46 46.7414 32.4575 45.9968 32.3203L47.3478 34.0599C47.3478 34.0599 49.9086 35.1577 53.2606 33.8311H55.2165L56.2403 36.9417C56.2403 36.9417 55.7284 41.1527 55.3095 42.0676C54.8907 42.9825 55.4464 44.7678 55.4464 44.7678L59.1241 44.6332C59.1241 44.6332 59.3103 42.8479 59.5895 42.6152C59.8687 42.3824 58.6122 34.5146 58.6122 34.5146C58.6122 34.5146 57.7746 30.0748 60.8473 28.4738L60.8076 26.8755Z" fill="#CED2DF"/>
<path opacity="0.1" d="M64.8125 26.5984C64.8125 26.5984 66.7123 28.0218 69.2485 28.1859C69.526 28.2031 69.7913 28.3041 70.0081 28.4752C70.6478 29.0086 71.1898 29.6456 71.6109 30.3587C72.6347 32.0068 75.149 31.8239 75.149 31.8239C75.149 31.8239 77.5935 31.0691 77.7331 30.4785C77.7331 30.4785 77.8029 33.7074 79.34 32.9271L77.3184 35.2169C77.191 35.3616 77.0347 35.4791 76.8594 35.5621C76.684 35.6452 76.4932 35.6921 76.2987 35.6999C75.5391 35.7295 74.2196 35.7389 73.1055 35.5264C71.4288 35.2062 70.2189 34.4285 69.3347 35.1147C69.3347 35.1147 68.1713 38.684 68.9624 39.9661C69.7535 41.2483 71.1523 43.3982 70.4995 43.9485C69.8466 44.4987 69.0555 44.4517 67.7525 43.1251C66.4495 41.7986 66.3085 39.5558 66.3085 39.5558L66.6342 33.7895C66.6342 33.7895 65.3778 29.4412 64.1706 28.5721L64.8125 26.5984Z" fill="black"/>
<path opacity="0.1" d="M79.5247 32.869L77.4977 35.1683C77.3629 35.3208 77.1963 35.4429 77.009 35.5262C76.8426 35.6 76.6632 35.6416 76.4807 35.6486C75.7211 35.6795 74.4016 35.689 73.2875 35.475C71.719 35.175 70.5583 34.4754 69.6906 34.9477C69.629 34.981 69.5704 35.0192 69.5154 35.062C69.5154 35.062 68.352 38.6313 69.1431 39.9135C69.9342 41.1956 71.333 43.3456 70.6801 43.8958C70.5708 43.9903 70.4482 44.0687 70.3161 44.1286C69.7302 44.3882 69.0035 44.1635 67.9331 43.0724C66.6301 41.7445 66.4891 39.5031 66.4891 39.5031L66.8149 33.7368C66.8149 33.7368 65.5584 29.3885 64.3512 28.5194L64.8836 26.6426C65.2505 26.8874 67.0818 28.0377 69.3456 28.1844C69.6231 28.2015 69.8885 28.3025 70.1053 28.4737C70.7448 29.0071 71.2869 29.6441 71.708 30.3572C72.7318 32.0053 75.2461 31.8223 75.2461 31.8223C75.8489 31.6333 76.4375 31.4031 77.0077 31.1335C77.3649 30.9613 77.6797 30.7729 77.8289 30.5953C77.8708 30.5489 77.9012 30.4937 77.9179 30.4339C77.9179 30.4339 77.989 33.6467 79.5247 32.869Z" fill="black"/>
<path d="M79.4317 32.9149L77.406 35.2168C77.2946 35.3431 77.1611 35.4489 77.0118 35.5289C76.8205 35.631 76.6079 35.6886 76.3904 35.6971C75.6308 35.7281 74.3113 35.7375 73.1972 35.5236C71.6848 35.2343 70.5501 34.5724 69.6947 34.9504C69.5969 34.9922 69.505 35.046 69.4209 35.1105C69.4209 35.1105 68.2575 38.6798 69.0487 39.962C69.8398 41.2441 71.2386 43.3941 70.5857 43.9443C70.5013 44.0158 70.4095 44.0784 70.312 44.1313C69.7097 44.4583 68.9652 44.2659 67.836 43.1209C66.533 41.7931 66.392 39.5516 66.392 39.5516L66.7177 33.7853C66.7177 33.7853 65.4613 29.437 64.2541 28.5679L64.8125 26.5996L64.8796 26.6454C65.2464 26.8902 67.0777 28.0405 69.3416 28.1872C69.6191 28.2043 69.8844 28.3053 70.1012 28.4764C70.7408 29.0099 71.2828 29.6469 71.7039 30.36C72.7277 32.0081 75.2421 31.8251 75.2421 31.8251C75.8448 31.6361 76.4334 31.4059 77.0036 31.1363C77.4265 30.9237 77.7714 30.6909 77.8248 30.4784C77.8248 30.4784 77.8248 30.5201 77.8248 30.5941C77.8659 31.1497 78.0712 33.6023 79.4317 32.9149Z" fill="#CED2DF"/>
<path opacity="0.1" d="M64.2951 24.3799H60.8733C60.9486 24.9147 60.9701 25.4554 60.9377 25.9943C61.46 26.3556 62.0726 26.5703 62.7096 26.6154C63.3467 26.6604 63.9842 26.5341 64.5538 26.25C64.2253 25.6526 64.0255 24.9745 64.2951 24.3799Z" fill="black"/>
<path d="M62.9497 26.5525C64.8266 26.5525 66.3482 25.0569 66.3482 23.2119C66.3482 21.367 64.8266 19.8713 62.9497 19.8713C61.0727 19.8713 59.5512 21.367 59.5512 23.2119C59.5512 25.0569 61.0727 26.5525 62.9497 26.5525Z" fill="#EC8C9C"/>
<path opacity="0.1" d="M62.2434 22.6173C62.6226 22.5729 63.0017 22.441 63.3753 22.515C63.7148 22.5823 64.0036 22.8124 64.343 22.8823C64.9973 23.0169 65.605 22.5433 66.0991 22.102L67.1667 21.1468C67.4035 20.9355 67.6471 20.7135 67.7689 20.4229C67.8907 20.1323 67.8483 19.7502 67.5882 19.5673C67.1981 19.2982 66.5261 19.5673 66.2442 19.1852C66.1169 19.013 66.136 18.7816 66.0703 18.5757C65.9335 18.164 65.4626 17.9394 65.0219 17.934C64.5812 17.9286 64.1596 18.0873 63.7381 18.203C62.85 18.4563 61.9214 18.5434 61.0006 18.46C60.7521 18.4153 60.4967 18.424 60.252 18.4856C60.1013 18.5488 59.9678 18.6459 59.8623 18.769C59.7567 18.8922 59.6821 19.0379 59.6442 19.1946C59.4335 19.9265 59.7934 21.1064 60.1548 21.7616C60.5161 22.4168 61.5221 22.7047 62.2434 22.6173Z" fill="black"/>
<path d="M62.2434 22.5259C62.6226 22.4815 63.0017 22.3497 63.3753 22.4237C63.7148 22.491 64.0036 22.721 64.343 22.791C64.9973 22.9255 65.605 22.4519 66.0991 22.0107L67.1667 21.0554C67.4035 20.8442 67.6471 20.6222 67.7689 20.3316C67.8907 20.041 67.8483 19.6589 67.5882 19.476C67.1981 19.2069 66.5261 19.476 66.2442 19.0939C66.1169 18.9217 66.136 18.6903 66.0703 18.4844C65.9335 18.0727 65.4626 17.848 65.0219 17.8427C64.5812 17.8373 64.1596 17.996 63.7381 18.1117C62.85 18.365 61.9214 18.4521 61.0006 18.3687C60.7521 18.324 60.4967 18.3327 60.252 18.3943C60.1013 18.4575 59.9678 18.5546 59.8623 18.6777C59.7567 18.8008 59.6821 18.9466 59.6442 19.1033C59.4335 19.8352 59.7934 21.0151 60.1548 21.6703C60.5161 22.3255 61.5221 22.6067 62.2434 22.5259Z" fill="#88455E"/>
<path opacity="0.1" d="M56.3155 36.9658C56.3155 36.9658 57.0601 37.0573 57.4324 37.5147C57.8047 37.9722 58.4562 38.1094 58.4562 38.1094" fill="black"/>
<path opacity="0.1" d="M49.6102 30.9236C49.6102 30.9236 50.2179 32.2569 49.8429 32.3914C49.4679 32.5259 49.6102 33.4892 49.6102 33.4892" fill="black"/>
<g opacity="0.1">
<path opacity="0.1" d="M49.8196 30.4662C49.8196 30.4662 53.7766 29.6886 53.9134 29.6886C54.5513 29.6886 55.5778 28.8114 56.165 28.2571C56.3435 28.089 56.5632 27.9689 56.8028 27.9087H56.7521C56.5588 27.9027 56.3662 27.9346 56.1855 28.0025C56.0048 28.0704 55.8396 28.173 55.6996 28.3042C55.1124 28.8585 54.0845 29.7357 53.4481 29.7357C53.3372 29.7357 50.8051 30.2294 49.7772 30.4299L49.8196 30.4662Z" fill="black"/>
<path opacity="0.1" d="M60.8131 27.0678V26.897C59.8612 27.3741 58.8369 27.6962 57.7801 27.8509C58.8286 27.7591 59.854 27.4944 60.8131 27.0678Z" fill="black"/>
<path opacity="0.1" d="M55.92 44.7449C55.92 44.7449 55.3615 42.9596 55.7831 42.0447C56.2047 41.1298 56.7138 36.9188 56.7138 36.9188L55.6928 33.8069H53.7314L53.6123 33.8526H55.2206L56.2403 36.9659C56.2403 36.9659 55.7284 41.1769 55.3095 42.0918C54.8907 43.0066 55.4464 44.792 55.4464 44.792L59.1241 44.6574V44.6292L55.92 44.7449Z" fill="black"/>
</g>
<g opacity="0.1">
<path opacity="0.1" d="M70.6322 43.2125C70.5478 43.284 70.4561 43.3466 70.3585 43.3995C69.7563 43.7264 69.0117 43.534 67.8825 42.3891C66.8478 41.3357 66.5466 39.6983 66.4659 39.0781L66.4385 39.5517C66.4385 39.5517 66.5754 41.7945 67.8825 43.121C69.0117 44.27 69.7563 44.4583 70.3585 44.1314C70.4561 44.0785 70.5478 44.0158 70.6322 43.9444C70.828 43.7789 70.8389 43.4681 70.7363 43.0807C70.7108 43.1309 70.6755 43.1758 70.6322 43.2125Z" fill="black"/>
<path opacity="0.1" d="M78.7733 32.9834L77.4552 34.4808C77.3439 34.6072 77.2104 34.7129 77.0611 34.7929C76.8698 34.8951 76.6572 34.9526 76.4397 34.9611C75.68 34.9921 74.3606 35.0015 73.2465 34.7876C71.734 34.4983 70.5994 33.8364 69.7439 34.2144C69.6462 34.2563 69.5542 34.3101 69.4702 34.3745C69.4702 34.3745 68.7188 36.6805 68.8338 38.2506C68.9227 36.7828 69.4702 35.1064 69.4702 35.1064C69.5542 35.0419 69.6462 34.9881 69.7439 34.9463C70.6007 34.5683 71.734 35.2302 73.2465 35.5195C74.3606 35.732 75.6787 35.7226 76.4397 35.693C76.6572 35.6845 76.8698 35.627 77.0611 35.5248C77.21 35.446 77.3435 35.3416 77.4552 35.2167L79.4823 32.9175C79.3774 32.9817 79.2587 33.0211 79.1357 33.0325C79.0127 33.0439 78.8886 33.0271 78.7733 32.9834Z" fill="black"/>
</g>
<path d="M19.2495 49.4631C19.2659 49.4787 19.2868 49.4887 19.3094 49.4916C19.3319 49.4946 19.3548 49.4903 19.3747 49.4794C19.3324 49.4801 19.2902 49.4746 19.2495 49.4631Z" fill="url(#paint1_linear)"/>
<path d="M33.198 27.1769C32.9517 27.1069 32.5999 26.9925 32.177 26.8472C32.6165 26.2914 32.9381 25.6546 33.1228 24.9745L33.0872 24.9879C33.0995 24.9462 33.1118 24.9058 33.1228 24.8628C32.3111 25.187 31.4132 24.6381 30.8411 23.9331C30.269 23.2281 29.883 22.3536 29.2561 21.7052C28.9949 21.4472 28.714 21.2093 28.4158 20.9935C28.231 20.8589 28.0325 20.7069 27.8067 20.7002C27.4412 20.6894 27.1552 21.0419 26.8034 21.1455C26.572 21.1967 26.331 21.1879 26.104 21.1199C25.1966 20.9154 24.3247 20.5374 23.3981 20.4378C22.9023 20.3776 22.3991 20.4334 21.9295 20.6006C21.4641 20.7742 21.2519 21.1199 20.8755 21.3971C20.4649 21.6944 19.6629 21.6877 19.1852 21.7401C18.6055 21.8052 18.0219 21.8291 17.4387 21.8115C17.1036 21.7829 16.7662 21.7951 16.4341 21.8478C15.7401 21.9971 15.1831 22.5393 14.663 23.0586C14.521 23.1761 14.4188 23.3333 14.3701 23.5093C14.3634 23.5589 14.3634 23.6091 14.3701 23.6587C14.3648 23.7943 14.3886 23.9295 14.4399 24.0556C14.6 24.5226 14.8262 24.965 15.1119 25.37C15.3241 25.6687 15.5718 25.9499 15.6922 26.3037C15.7493 26.4776 15.7793 26.6591 15.7812 26.8419C15.7753 27.0359 15.7547 27.2293 15.7196 27.4204C15.6278 27.9486 15.4768 28.4652 15.2693 28.9608C15.1405 29.2152 15.0519 29.4874 15.0065 29.7681C15.0026 29.8254 15.0026 29.8829 15.0065 29.9403C14.9723 30.8282 15.8839 31.4673 16.0604 32.3499C16.0749 32.4231 16.0836 32.4973 16.0864 32.5719C16.0673 33.1221 15.7484 33.6603 15.2775 33.8742C15.3186 33.8903 15.361 33.9038 15.4034 33.9172C15.3629 33.9422 15.3209 33.9647 15.2775 33.9845C15.3638 34.0168 15.4514 34.0451 15.5403 34.0679C15.0052 34.5261 14.5555 35.0724 14.2113 35.6824C12.6277 38.5804 1.9025 44.2565 1.9025 44.2565L2.06127 44.3453L1.93261 44.4274C1.00463 45.0342 -1.17299 46.8034 0.795217 49.0407C0.795217 49.0407 2.33228 46.6567 3.40945 45.6409C3.45735 45.5952 3.50526 45.5535 3.54632 45.5145C3.56999 45.5503 3.58585 45.5905 3.59292 45.6327C3.59999 45.6748 3.5981 45.7179 3.58738 45.7593L10.639 41.8644C10.639 41.8644 13.1451 40.1397 13.8445 39.7508C14.3368 39.4494 14.8725 39.2226 15.4336 39.0781L15.3514 39.1118C15.6151 39.0405 15.8869 39.0025 16.1603 38.9988C17.4086 39.0176 18.7609 39.9163 19.2057 43.4749C19.8025 48.2402 19.526 49.0999 19.3344 49.217C19.3108 49.2153 19.2874 49.2112 19.2646 49.2049C19.2705 49.21 19.2769 49.2145 19.2837 49.2183C19.2578 49.2165 19.2321 49.212 19.2071 49.2049C19.2209 49.2173 19.2377 49.2261 19.2559 49.2303C19.2741 49.2345 19.2931 49.2341 19.3111 49.2291C19.3241 49.2329 19.3377 49.2341 19.3511 49.2325C19.3646 49.2309 19.3775 49.2265 19.3891 49.2197C19.4206 49.2215 19.4521 49.2215 19.4836 49.2197C19.4836 49.2636 19.4804 49.3085 19.474 49.3542C19.4644 49.3542 19.4179 49.3798 19.474 49.3825C19.4589 49.6515 19.4603 49.9435 19.474 50.2489C18.854 50.2825 18.2339 50.3188 17.6947 50.3511L17.7426 50.0996L17.7645 49.9865C18.2408 49.9489 18.6925 49.8116 18.7458 49.4322C18.8622 48.5981 17.6974 48.1528 16.7065 48.0976C15.7155 48.0425 9.77258 48.4313 9.77258 48.4313C9.77258 48.4313 8.88155 49.5654 11.7079 49.9112C11.7919 49.9543 11.879 49.9991 11.9694 50.0457C13.0766 50.666 14.5781 51.8082 15.2981 52.3706L15.398 52.4486L15.075 52.7069C16.8228 53.0957 18.5132 59.6612 19.4452 62.6628C20.3773 65.6643 22.4167 65.5554 24.1071 65.11C25.6907 64.693 25.8864 60.1725 25.9124 59.6047V59.5469L28.7292 62.9668L28.9427 63.2265C29.0248 63.2686 29.106 63.3081 29.1863 63.3449C31.3188 64.3418 33.6743 62.43 33.005 60.2505C32.3275 58.0535 31.2764 54.8044 30.5756 53.4307C29.9884 52.2804 29.2301 50.37 28.7703 49.1739C28.83 49.1504 28.888 49.1229 28.9441 49.0919C28.9441 49.0919 28.9331 49.038 28.9153 48.9398L28.9441 48.925C28.9441 48.925 28.2597 45.4647 28.2296 43.0053C28.2296 42.9623 28.2296 42.9174 28.2296 42.8708C28.2296 42.8439 28.2296 42.817 28.2296 42.7914C28.7388 42.6771 29.0618 42.6327 29.0618 42.6327L29.0714 42.525L29.0125 42.5371L29.2958 39.3499C29.2958 39.3499 30.3361 37.1744 29.5395 36.269C29.2973 36.0042 29.1356 35.6779 29.0727 35.3272C28.9359 34.4944 29.0727 33.1046 30.9273 31.9503C33.7825 30.1703 34.8966 28.7214 34.8966 28.7214C34.8966 28.7214 34.9459 27.6827 33.198 27.1769ZM27.5275 29.3887V27.9155C28.0572 27.8899 28.5978 27.9505 29.1302 27.9155C29.3916 27.8975 29.6506 27.8547 29.9035 27.7877L30.0322 27.8751C29.2532 28.4641 28.4138 28.9713 27.5275 29.3887ZM19.4316 52.4809C19.641 52.6235 19.8517 52.7715 20.0584 52.9208C20.1871 53.6473 20.3007 54.1599 20.3089 54.1963C20.0727 53.5983 19.7789 53.0239 19.4316 52.4809Z" fill="url(#paint2_linear)"/>
<path d="M23.9565 51.27L23.8333 51.9279L23.7389 52.4311L23.5664 53.3513L21.8939 54.5016C21.8939 54.5016 21.7433 54.3752 21.4942 54.1747C20.8098 53.6204 19.3686 52.4957 18.3106 51.8876C18.0387 51.7169 17.7445 51.5834 17.436 51.4907L23.9565 51.27Z" fill="#FFBDC6"/>
<path opacity="0.1" d="M23.9565 51.27L23.8333 51.9279C23.4647 51.9481 23.0948 51.9296 22.7302 51.8728L18.828 51.9279C18.6432 51.9172 18.4707 51.9024 18.3092 51.8862C18.0373 51.7156 17.7431 51.582 17.4346 51.4893L23.9565 51.27Z" fill="black"/>
<path d="M22.7301 51.765C22.7301 51.765 24.6819 52.0933 24.7928 51.2713C24.9037 50.4492 23.7895 50.016 22.8438 49.9541C21.898 49.8922 16.2083 50.2851 16.2083 50.2851C16.2083 50.2851 15.205 51.5995 18.828 51.8188L22.7301 51.765Z" fill="#7679B4"/>
<path opacity="0.1" d="M23.9565 51.27L23.8333 51.9279L23.7389 52.4311L23.5664 53.3513L21.8939 54.5016C21.8939 54.5016 21.7433 54.3752 21.4942 54.1747C20.8098 53.6204 19.3686 52.4957 18.3106 51.8876C18.0387 51.7169 17.7445 51.5834 17.436 51.4907L23.9565 51.27Z" fill="black"/>
<path opacity="0.1" d="M23.9565 51.27L23.8333 51.9279C23.4647 51.9481 23.0948 51.9296 22.7302 51.8728L18.828 51.9279C18.6432 51.9172 18.4707 51.9024 18.3092 51.8862C18.0373 51.7156 17.7431 51.582 17.4346 51.4893L23.9565 51.27Z" fill="black"/>
<path opacity="0.1" d="M22.7301 51.765C22.7301 51.765 24.6819 52.0933 24.7928 51.2713C24.9037 50.4492 23.7895 50.016 22.8438 49.9541C21.898 49.8922 16.2083 50.2851 16.2083 50.2851C16.2083 50.2851 15.205 51.5995 18.828 51.8188L22.7301 51.765Z" fill="black"/>
<path d="M26.9937 24.7483H16.7927V36.6388H26.9937V24.7483Z" fill="#A66477"/>
<path opacity="0.1" d="M26.9937 24.7483H16.7927V36.6388H26.9937V24.7483Z" fill="black"/>
<path d="M4.83566 45.1054C4.66731 45.1471 4.45379 45.3059 4.21427 45.5373C3.18363 46.5383 1.71363 48.886 1.71363 48.886C-0.16971 46.6822 1.91483 44.94 2.8086 44.3413C3.02486 44.196 3.16994 44.1179 3.16994 44.1179L4.83566 45.1054Z" fill="#FFBDC6"/>
<path d="M23.8457 28.502C23.8457 28.502 24.348 31.9542 26.0753 32.7762C27.8026 33.5983 23.8457 35.132 23.8457 35.132L18.4379 33.1597C18.4379 33.1597 21.5038 32.1735 20.8906 29.2688L23.8457 28.502Z" fill="#FFBDC6"/>
<path d="M18.0533 49.2693L17.9301 49.9272L17.8357 50.4304L17.6632 51.3506L15.9906 52.5009C15.9906 52.5009 15.8401 52.3744 15.591 52.174C14.9066 51.6197 13.4654 50.4949 12.4074 49.8868C12.1355 49.7162 11.8412 49.5826 11.5327 49.4899L18.0533 49.2693Z" fill="#FFBDC6"/>
<path opacity="0.1" d="M18.0533 49.2693L17.9301 49.9272C17.5614 49.9473 17.1916 49.9288 16.8269 49.872L12.9247 49.9272C12.7399 49.9164 12.5675 49.9016 12.406 49.8855C12.1341 49.7148 11.8399 49.5813 11.5314 49.4886L18.0533 49.2693Z" fill="black"/>
<path d="M16.8214 49.7631C16.8214 49.7631 18.7732 50.0914 18.8841 49.2694C18.9949 48.4473 17.8808 48.0087 16.9323 47.9549C15.9838 47.9011 10.2982 48.2832 10.2982 48.2832C10.2982 48.2832 9.29489 49.5976 12.9179 49.8169L16.8214 49.7631Z" fill="#7679B4"/>
<path opacity="0.1" d="M17.8302 50.4318L17.6577 51.3521L15.9852 52.5024C15.9852 52.5024 15.8346 52.3759 15.5855 52.1755L17.7973 50.3928L17.8302 50.4318Z" fill="black"/>
<path d="M28.8661 62.9761C28.7894 62.9393 28.7119 62.9003 28.6334 62.859L28.4295 62.6034L25.7358 59.2399V59.2991C25.718 59.8575 25.5237 64.3107 24.0099 64.721C22.3934 65.1596 20.4417 65.2686 19.5506 62.3101C18.6596 59.3516 17.0418 52.8857 15.3692 52.5022L17.8493 50.5017C17.8493 50.5017 19.4918 52.3852 20.1625 54.1988C20.1378 54.0831 19.0032 48.8751 19.9394 47.9548H28.0777C28.0777 47.9548 29.3314 51.4717 30.1965 53.2153C30.8671 54.5688 31.8731 57.7681 32.5233 59.9328C33.1666 62.0747 30.9191 63.9582 28.8661 62.9761Z" fill="#7679B4"/>
<path opacity="0.1" d="M28.6389 48.9397C27.3838 49.6702 21.8651 49.3729 20.0667 49.2545L19.578 49.2195C19.5246 49.2195 19.5862 49.1899 19.5862 49.1899L19.6369 48.6922L20.9741 45.3502L28.1379 41.271C27.9929 41.7002 27.9436 42.3581 27.9559 43.1128C27.9915 45.5318 28.6389 48.9397 28.6389 48.9397Z" fill="black"/>
<path d="M28.6389 48.7769C27.3838 49.5074 21.8651 49.2101 20.0666 49.0917L19.578 49.0567H19.4973L19.5862 49.0338L20.0269 48.9195L20.9741 45.1927L28.1379 41.1108C27.9928 41.54 27.9436 42.1979 27.9559 42.9527C27.9915 45.3676 28.6389 48.7769 28.6389 48.7769Z" fill="#F2F1F2"/>
<path opacity="0.1" d="M27.9559 42.9474C26.4996 43.2771 23.2941 44.2471 22.0622 46.58C21.241 48.1379 20.5566 48.8066 20.068 49.0864L19.5794 49.0514L19.5876 49.0218L20.0283 48.9075L20.9755 45.1808L28.1393 41.0989C27.9915 41.5402 27.9436 42.1927 27.9559 42.9474Z" fill="black"/>
<path opacity="0.1" d="M3.16308 44.1194L4.83564 45.1055C4.66729 45.1473 4.45377 45.306 4.21425 45.5374C4.07738 45.1338 3.19867 44.5795 2.80174 44.3427C3.018 44.1974 3.16308 44.1194 3.16308 44.1194Z" fill="black"/>
<path opacity="0.1" d="M19.2857 49.1201C19.267 49.1304 19.2454 49.1345 19.2241 49.1319C19.2028 49.1292 19.1829 49.1198 19.1674 49.1052C19.2059 49.1159 19.2457 49.121 19.2857 49.1201Z" fill="black"/>
<path d="M23.0641 32.557C23.0641 32.557 21.5585 32.7212 20.4992 31.626C20.4992 31.626 16.0399 32.8867 14.5343 35.7362C13.0287 38.5857 2.77164 44.1745 2.77164 44.1745C2.77164 44.1745 4.55096 45.1606 4.38808 45.6544L11.1331 41.8187C11.1331 41.8187 13.5297 40.1195 14.199 39.736C14.8683 39.3526 18.5474 36.9968 19.3275 43.4076C20.1077 49.8183 19.3275 49.0582 19.3275 49.0582C19.3275 49.0582 20.443 49.4416 22.065 46.3674C23.6869 43.2932 28.6991 42.5869 28.6991 42.5869L28.9728 39.358C28.9728 39.358 29.9679 37.2161 29.2055 36.3228C28.973 36.0599 28.8186 35.7392 28.7593 35.3958C28.632 34.5751 28.7593 33.2069 30.5386 32.07C33.2761 30.321 34.33 28.8922 34.33 28.8922C34.33 28.8922 34.3861 27.8509 32.7135 27.3585C31.041 26.8661 24.2398 24.1807 24.2398 24.1807L24.0167 25.1117L29.3684 28.8384C29.3684 28.8384 26.6926 30.9749 24.5779 30.9211C24.5697 30.9116 24.9598 32.5019 23.0641 32.557Z" fill="#565388"/>
<path opacity="0.1" d="M24.0975 30.0048C23.9657 29.5633 23.8628 29.1139 23.7895 28.6594L20.8345 29.4317C20.9639 29.986 20.9407 30.5641 20.7674 31.1067C21.3714 31.2651 22.0094 31.2449 22.6017 31.0486C23.194 30.8524 23.7143 30.4889 24.0975 30.0035V30.0048Z" fill="black"/>
<path d="M21.6434 31.0502C23.3986 31.0502 24.8215 29.6516 24.8215 27.9262C24.8215 26.2009 23.3986 24.8022 21.6434 24.8022C19.8882 24.8022 18.4653 26.2009 18.4653 27.9262C18.4653 29.6516 19.8882 31.0502 21.6434 31.0502Z" fill="#FFBDC6"/>
<path opacity="0.1" d="M23.3324 20.8212C24.2138 20.9195 25.0529 21.2921 25.9206 21.4939C26.1374 21.5608 26.3685 21.5696 26.5899 21.5195C26.9266 21.4172 27.2004 21.0701 27.548 21.0809C27.7629 21.0809 27.9586 21.2316 28.1311 21.3702C28.4168 21.5832 28.6854 21.8176 28.9345 22.0711C29.5326 22.7102 29.9049 23.5712 30.451 24.2654C30.9972 24.9597 31.8581 25.5005 32.6341 25.1816C32.1072 27.1997 30.3771 28.7429 28.5075 28.868C27.7615 28.9178 27.0019 28.7657 26.2751 28.981C26.095 29.0532 25.9049 29.0985 25.7112 29.1155C25.3006 29.1155 24.9612 28.7402 24.7011 28.3756C24.0934 27.5172 23.6061 26.5432 22.9218 25.7615C22.6959 25.5032 22.429 25.257 22.1101 25.2099C21.7912 25.1628 21.497 25.3121 21.2123 25.4574C20.7428 25.6969 20.2624 25.9445 19.8983 26.3535C19.5342 26.7625 19.3043 27.3746 19.4548 27.9289C19.5356 28.2276 19.7217 28.4967 19.7286 28.8101C19.7286 29.3079 19.2879 29.6725 19.1989 30.1555C19.1793 30.3594 19.172 30.5643 19.177 30.769C19.1373 31.4337 18.6966 31.9799 18.234 32.3956C18.0547 32.5584 17.8548 32.7319 17.8028 32.9835C17.7672 33.1544 17.8028 33.336 17.7795 33.5096C17.7125 33.9414 17.2745 34.1594 16.8871 34.2159C16.4348 34.2811 15.9729 34.2272 15.5485 34.0598C16.096 33.8083 16.4231 33.0912 16.2972 32.4454C16.1248 31.5561 15.2159 30.9184 15.2926 30.0116C15.3355 29.7339 15.4203 29.4641 15.5444 29.2111C15.7428 28.7219 15.8869 28.2131 15.9742 27.6935C16.0638 27.2936 16.0548 26.8784 15.9482 26.4826C15.8319 26.1342 15.5951 25.857 15.3925 25.5624C15.1182 25.1618 14.9017 24.7258 14.7492 24.2668C14.694 24.1311 14.6728 23.9843 14.6876 23.8389C14.7318 23.6674 14.8271 23.5128 14.9614 23.395C15.4596 22.8824 15.9934 22.3483 16.6558 22.2003C16.9724 22.1484 17.2943 22.1362 17.6139 22.1639C18.172 22.1814 18.7306 22.158 19.2851 22.094C19.7423 22.0415 20.517 22.0482 20.9029 21.7549C21.2629 21.4859 21.4668 21.1428 21.9117 20.9706C22.3657 20.8072 22.8535 20.7559 23.3324 20.8212Z" fill="black"/>
<path opacity="0.1" d="M25.0994 53.0781C25.0994 53.0781 26.9389 56.6394 26.3819 57.7358L25.0994 53.0781Z" fill="black"/>
<path opacity="0.1" d="M28.4349 62.6036L25.7413 59.2401V59.2993C25.7413 59.2993 25.5853 58.2123 26.0985 58.5782C27.2223 59.3774 29.0207 60.6878 29.0591 60.9138C29.0974 61.1398 28.695 62.0466 28.4349 62.6036Z" fill="black"/>
<g opacity="0.1">
<path opacity="0.1" d="M24.6231 30.9116C24.6231 30.9116 24.8503 31.8372 24.1153 32.3C25.2472 32.109 25.2965 31.2439 25.2623 30.8672C25.051 30.9008 24.8371 30.9157 24.6231 30.9116Z" fill="black"/>
<path opacity="0.1" d="M3.44229 43.9551C3.44229 43.9551 13.6994 38.3663 15.205 35.5168C16.2849 33.4718 18.8868 32.2461 20.2692 31.7161C19.2605 32.0484 15.8661 33.3225 14.5904 35.7361C13.0848 38.5856 2.82774 44.1743 2.82774 44.1743L3.44229 43.9551Z" fill="black"/>
<path opacity="0.1" d="M26.6187 30.477C28.3638 29.9388 30.0322 28.6109 30.0322 28.6109L24.6806 24.8842L24.8024 24.373L24.2905 24.1711L24.0674 25.1022L29.419 28.8289C28.5602 29.4924 27.6193 30.0462 26.6187 30.477Z" fill="black"/>
<path opacity="0.1" d="M26.6529 43.1047C27.3367 42.8753 28.0384 42.7011 28.7511 42.5841L28.7607 42.4778C28.0426 42.6328 27.3379 42.8424 26.6529 43.1047Z" fill="black"/>
<path opacity="0.1" d="M20.1666 48.8455H20.1173C20.0986 48.8557 20.0771 48.8598 20.056 48.8571C20.0348 48.8545 20.015 48.8452 19.9996 48.8307C20.0379 48.8412 20.0775 48.8462 20.1173 48.8455C20.3007 48.7405 20.5758 47.9225 19.9996 43.1868C19.3837 38.1308 16.9665 38.5277 15.643 39.1089C16.9953 38.743 18.8567 39.0591 19.3864 43.4061C19.9626 48.1418 19.6875 48.9612 19.5041 49.0648C19.7418 49.0561 19.9719 48.9799 20.1666 48.8455Z" fill="black"/>
<path opacity="0.1" d="M19.5047 49.0664C19.4647 49.0671 19.4249 49.0621 19.3864 49.0515C19.4019 49.0661 19.4218 49.0755 19.443 49.0781C19.4643 49.0808 19.4859 49.0767 19.5047 49.0664Z" fill="black"/>
</g>
<path d="M23.3324 20.7148C24.2138 20.813 25.0529 21.1857 25.9206 21.3875C26.1374 21.4543 26.3685 21.4632 26.5899 21.4131C26.9266 21.3108 27.2004 20.9637 27.548 20.9745C27.7629 20.9745 27.9586 21.1251 28.1311 21.2637C28.4168 21.4768 28.6854 21.7111 28.9345 21.9647C29.5326 22.6037 29.9049 23.4648 30.451 24.159C30.9972 24.8532 31.8581 25.3941 32.6341 25.0752C32.1072 27.0933 30.3771 28.6364 28.5075 28.7616C27.7615 28.8113 27.0019 28.6593 26.2751 28.8746C26.095 28.9467 25.9049 28.9921 25.7112 29.0091C25.3006 29.0091 24.9612 28.6337 24.7011 28.2691C24.0934 27.4108 23.6061 26.4367 22.9218 25.6551C22.6959 25.3967 22.429 25.1505 22.1101 25.1034C21.7912 25.0564 21.497 25.2057 21.2123 25.351C20.7428 25.5905 20.2624 25.838 19.8983 26.247C19.5342 26.656 19.3043 27.2682 19.4548 27.8225C19.5356 28.1212 19.7217 28.3902 19.7286 28.7037C19.7286 29.2015 19.2879 29.5661 19.1989 30.0491C19.1793 30.253 19.172 30.4578 19.177 30.6626C19.1373 31.3272 18.6966 31.8734 18.234 32.2892C18.0547 32.4519 17.8548 32.6255 17.8028 32.8771C17.7672 33.048 17.8028 33.2296 17.7795 33.4031C17.7125 33.835 17.2745 34.053 16.8871 34.1095C16.4348 34.1746 15.9729 34.1208 15.5485 33.9534C16.096 33.7018 16.4231 32.9847 16.2972 32.3389C16.1248 31.4496 15.2159 30.8119 15.2926 29.9051C15.3355 29.6274 15.4203 29.3576 15.5444 29.1046C15.7428 28.6154 15.8869 28.1066 15.9742 27.587C16.0638 27.1871 16.0548 26.772 15.9482 26.3762C15.8319 26.0277 15.5951 25.7506 15.3925 25.4559C15.1182 25.0554 14.9017 24.6194 14.7492 24.1603C14.694 24.0247 14.6728 23.8779 14.6876 23.7325C14.7318 23.561 14.8271 23.4064 14.9614 23.2885C15.4596 22.7759 15.9934 22.2418 16.6558 22.0938C16.9724 22.042 17.2943 22.0298 17.6139 22.0575C18.172 22.0749 18.7306 22.0516 19.2851 21.9875C19.7423 21.9351 20.517 21.9418 20.9029 21.6485C21.2629 21.3794 21.4668 21.0363 21.9117 20.8641C22.3657 20.7008 22.8535 20.6495 23.3324 20.7148Z" fill="#A66477"/>
<path d="M114.082 13.7027C114.082 13.6852 114.082 13.6691 114.082 13.6529C114.082 13.6368 114.082 13.618 114.074 13.6018H114.052C114.052 13.5655 114.052 13.5292 114.052 13.4902C113.997 12.243 112.242 9.58853 111.539 10.3635C110.923 11.0442 111.852 12.7663 112.326 13.5413L112.368 13.6112L112.345 13.5964C112.345 13.5964 110.386 19.3385 110.155 19.5619C109.924 19.7852 108.311 24.3003 106.186 24.8089C105.766 24.9071 105.417 24.9959 105.124 25.078L105.147 25.0013C105.284 24.5613 105.452 24.1456 105.521 23.6559C105.589 23.1662 105.521 22.5729 105.269 22.3347C105.146 22.2163 104.995 22.2002 104.894 22.0118C104.828 21.8466 104.793 21.6712 104.79 21.4939L104.609 19.317L104.735 19.2794C105.496 19.0399 106.234 18.4721 106.32 17.7079C106.294 17.7178 106.267 17.7264 106.239 17.7335C106.249 17.6891 106.257 17.6442 106.262 17.599C105.623 17.8465 105.031 17.1953 104.415 16.9034C103.401 16.415 102.241 16.8751 101.194 16.9868C100.007 17.1146 98.881 16.6303 97.6684 16.7177C97.0086 16.7675 96.275 17.2075 96.3106 17.8465C96.3311 18.1977 96.5843 18.495 96.6884 18.8313C96.9512 19.6453 96.3667 20.4619 95.8548 21.1562C95.5181 21.6122 95.1951 22.1679 95.1376 22.7034C93.9592 21.4925 92.6849 20.0933 92.5371 19.5673L89.1276 13.8252C89.1276 13.8252 89.0469 13.9099 88.9168 14.035C88.8963 13.9731 88.8717 13.9005 88.8443 13.8278C88.409 12.6291 87.1772 9.72441 85.6155 10.2572C84.0538 10.79 86.2629 13.7673 87.2237 14.9539L87.3606 15.1181C87.28 15.1375 87.1955 15.1338 87.117 15.1073L90.9192 21.5181C90.9192 21.5181 91.6104 22.7451 92.2442 23.0787C92.2442 23.0787 96.9676 28.9325 97.0251 30.103C97.0825 31.2735 99.1493 34.3961 99.1493 34.3961C99.1493 34.3961 99.8405 39.4696 98.6306 40.3616H98.6456H98.6552H98.6703H98.6839H98.7113H98.7291H98.7469H98.7702H98.7893H98.8167H98.8304C98.7729 40.4167 98.7141 40.4773 98.6538 40.5432C97.7573 41.5199 96.6117 43.6134 98.1775 47.1732C100.481 52.4203 100.827 54.476 100.827 54.476C100.827 54.476 96.4475 54.6993 95.5852 54.8662C94.8214 55.0142 91.8527 55.1178 91.1738 55.1352C90.9316 54.8581 90.2157 54.2446 89.2494 55.1352C88.0395 56.2506 87.1758 59.9786 87.1758 59.9786C87.1758 59.9786 86.7146 62.9896 88.2708 62.2079C88.2708 62.2079 90.1144 59.6988 90.6318 59.5871C90.8891 59.532 91.1615 59.1593 91.3695 58.8001L91.3805 58.8068C91.3928 58.8068 91.4435 58.7799 91.5256 58.7476C91.9088 58.5983 92.9641 58.2391 93.7963 58.418C94.2521 58.5162 96.2066 58.5391 98.2555 58.5337C97.7929 59.6235 96.9635 62.4353 96.9635 62.4353C96.9635 62.4353 96.6172 65.0575 97.7669 64.9498C98.5881 64.8705 99.8473 62.808 100.504 61.6308C100.981 61.2877 102.345 60.058 103.354 60.1508L110.151 57.5865C110.151 57.5865 111.763 56.6945 110.9 53.7401C110.215 51.391 108.268 46.5826 107.498 44.7085L107.475 44.6601C107.289 44.2067 107.177 43.9376 107.177 43.9376C106.861 43.082 106.653 42.1914 106.56 41.2858C106.553 41.2145 106.547 41.1419 106.542 41.0706C106.637 41.0313 106.727 40.9802 106.809 40.9185C106.809 40.9185 106.175 34.6194 106.809 33.9494L106.82 33.9373V33.9293L106.831 33.9158L106.855 33.8849L106.885 33.8472C106.919 33.8028 106.961 33.7476 107.007 33.6804C107.37 33.1584 108.046 31.9663 107.852 30.5591C107.843 30.4981 107.833 30.4366 107.821 30.3748C107.747 29.9931 107.614 29.6248 107.427 29.2823C107.4 29.1397 107.383 28.9954 107.377 28.8504C107.377 28.7684 107.377 28.6782 107.377 28.5814V28.5652C107.377 28.5392 107.377 28.5132 107.377 28.4872V28.4683C107.377 28.4051 107.388 28.3338 107.397 28.2746V28.2504C107.397 28.2262 107.401 28.2015 107.409 28.1764V28.1454C107.409 28.1212 107.42 28.097 107.426 28.0728V28.0472C107.434 28.0149 107.442 27.9827 107.453 27.9504V27.9342C107.461 27.9073 107.471 27.8809 107.481 27.8548L107.493 27.8239L107.52 27.7593L107.534 27.727C107.545 27.7028 107.557 27.6786 107.57 27.6544L107.579 27.6342C107.596 27.6046 107.613 27.5755 107.631 27.5467L107.646 27.5239L107.691 27.4606L107.713 27.4324L107.761 27.3759L107.783 27.3517C107.808 27.3261 107.832 27.3005 107.86 27.2763C108.608 26.6036 111.949 21.6459 111.949 21.6459C111.949 21.6459 112.756 20.5306 112.756 19.8067C112.801 19.7906 114.226 15.1221 114.082 13.7027ZM105.113 55.3761C105.031 54.6119 104.949 53.6647 104.873 52.6853L106.176 54.6819C106.176 54.6819 106.053 55.29 105.113 55.3761Z" fill="url(#paint3_linear)"/>
<path d="M91.527 54.9538C91.527 54.9538 90.7468 53.7429 89.5752 54.8448C88.4036 55.9467 87.5687 59.6115 87.5687 59.6115C87.5687 59.6115 87.1225 62.5714 88.628 61.8032C88.628 61.8032 90.4074 59.3371 90.9138 59.2281C91.4202 59.1191 91.9732 57.7482 91.9732 57.7482L91.527 54.9538Z" fill="#493545"/>
<path d="M99.8884 57.9122C99.8884 57.9122 98.829 57.4184 98.495 57.8032C98.1611 58.188 97.0456 62.0223 97.0456 62.0223C97.0456 62.0223 96.7116 64.5436 97.8257 64.4333C98.9399 64.323 100.892 60.3756 100.892 60.3756L99.8884 57.9122Z" fill="#493545"/>
<path opacity="0.05" d="M99.8884 57.9122C99.8884 57.9122 98.829 57.4184 98.495 57.8032C98.1611 58.188 97.0456 62.0223 97.0456 62.0223C97.0456 62.0223 96.7116 64.5436 97.8257 64.4333C98.9399 64.323 100.892 60.3756 100.892 60.3756L99.8884 57.9122Z" fill="black"/>
<path d="M103.567 50.46L105.964 54.1316C105.964 54.1316 105.797 54.9536 104.348 54.7894L99.3861 57.8583C99.3861 57.8583 98.955 61.5944 100.333 61.2554C100.556 61.2002 102.113 59.6113 103.232 59.7216L109.812 57.2004C109.812 57.2004 111.372 56.3232 110.536 53.4198C109.699 50.5165 106.935 43.7842 106.935 43.7842L102.564 46.187L103.567 50.46Z" fill="#3E3D77"/>
<path opacity="0.05" d="M103.567 50.46L105.964 54.1316C105.964 54.1316 105.797 54.9536 104.348 54.7894L99.3861 57.8583C99.3861 57.8583 98.955 61.5944 100.333 61.2554C100.556 61.2002 102.113 59.6113 103.232 59.7216L109.812 57.2004C109.812 57.2004 111.372 56.3232 110.536 53.4198C109.699 50.5165 106.935 43.7842 106.935 43.7842L102.564 46.187L103.567 50.46Z" fill="black"/>
<path d="M105.073 55.8847C105.407 57.9674 103.513 58.1315 103.513 58.1315C103.513 58.1315 94.9829 58.2956 93.9797 58.0763C92.9764 57.857 91.6378 58.4598 91.6378 58.4598C89.9091 57.4184 91.3039 54.8434 91.3039 54.8434C91.3039 54.8434 94.8721 54.7344 95.7084 54.5743C96.5446 54.4142 100.781 54.1868 100.781 54.1868C100.781 54.1868 100.447 52.1593 98.2158 47.0092C96.7007 43.5112 97.8052 41.4527 98.6771 40.4935C98.8996 40.2389 99.1571 40.0161 99.4422 39.8315L106.299 40.1598C106.292 40.4997 106.305 40.8398 106.338 41.1783C106.455 42.3403 106.762 43.4761 107.248 44.5417C106.858 44.5417 104.349 46.8437 104.349 46.8437C104.349 46.8437 104.738 53.8034 105.073 55.8847Z" fill="#3E3D77"/>
<path opacity="0.1" d="M91.8048 55.0625C91.8048 55.0625 95.373 54.9535 96.2093 54.7934C97.0456 54.6333 101.282 54.41 101.282 54.41C101.282 54.41 100.948 52.3825 98.7168 47.2324C97.2016 43.7344 98.3062 41.6759 99.1781 40.7167C99.4005 40.4621 99.6581 40.2393 99.9432 40.0547L106.297 40.3588C106.297 40.2942 106.297 40.2243 106.297 40.1637L99.4395 39.8354C99.1544 40.02 98.8969 40.2428 98.6744 40.4974C97.8066 41.458 96.6979 43.5151 98.2131 47.0131C100.45 52.1592 100.781 54.1867 100.781 54.1867C100.781 54.1867 96.5378 54.406 95.7084 54.5701C94.8789 54.7342 91.3039 54.8392 91.3039 54.8392C91.3039 54.8392 89.9105 57.4156 91.6378 58.461C91.6378 58.461 91.6898 58.4367 91.7747 58.4018C90.6263 57.2407 91.8048 55.0625 91.8048 55.0625Z" fill="black"/>
<path d="M102.006 19.7192H98.5498V28.3216H102.006V19.7192Z" fill="#493545"/>
<path opacity="0.1" d="M102.006 19.7192H98.5498V28.3216H102.006V19.7192Z" fill="black"/>
<path d="M103.982 18.4573C104.101 18.4896 104.235 18.4936 104.316 18.6551C104.366 18.7841 104.394 18.9206 104.397 19.0587L104.615 21.7172C104.618 21.8912 104.652 22.0634 104.716 22.2257C104.808 22.406 104.959 22.4275 105.079 22.5432C105.318 22.7773 105.388 23.3639 105.322 23.8415C105.256 24.3191 105.091 24.7281 104.961 25.16C104.775 25.7789 104.652 26.4745 104.39 26.9965C104.129 27.5185 103.654 27.8037 103.347 27.3651C103.041 26.9265 103.082 26.0412 103.024 25.3161C102.928 24.1052 102.448 23.0612 102.415 21.8423C102.388 20.8561 102.657 19.9359 102.826 19.0008C102.946 18.3591 102.953 17.5801 103.128 17.0029C103.275 17.6891 103.554 18.3416 103.982 18.4573Z" fill="#493545"/>
<path opacity="0.1" d="M103.982 18.4573C104.101 18.4896 104.235 18.4936 104.316 18.6551C104.366 18.7841 104.394 18.9206 104.397 19.0587L104.615 21.7172C104.618 21.8912 104.652 22.0634 104.716 22.2257C104.808 22.406 104.959 22.4275 105.079 22.5432C105.318 22.7773 105.388 23.3639 105.322 23.8415C105.256 24.3191 105.091 24.7281 104.961 25.16C104.775 25.7789 104.652 26.4745 104.39 26.9965C104.129 27.5185 103.654 27.8037 103.347 27.3651C103.041 26.9265 103.082 26.0412 103.024 25.3161C102.928 24.1052 102.448 23.0612 102.415 21.8423C102.388 20.8561 102.657 19.9359 102.826 19.0008C102.946 18.3591 102.953 17.5801 103.128 17.0029C103.275 17.6891 103.554 18.3416 103.982 18.4573Z" fill="black"/>
<path d="M89.3521 14.6781L88.0149 15.7746C88.0149 15.7746 87.8561 15.5916 87.6193 15.2956C86.6899 14.1292 84.5534 11.203 86.0631 10.6796C87.5728 10.1563 88.7663 13.0098 89.1878 14.1884C89.2946 14.4871 89.3521 14.6781 89.3521 14.6781Z" fill="#C77485"/>
<path d="M113.491 14.2946C112.934 15.1166 112.153 14.2946 112.153 14.2946C112.153 14.2946 112.053 14.148 111.913 13.9112C111.454 13.1484 110.555 11.4572 111.15 10.7872C111.835 10.0217 113.53 12.6344 113.582 13.8601C113.598 14.0108 113.566 14.1627 113.491 14.2946Z" fill="#C77485"/>
<path d="M99.7762 23.1715C99.7762 23.1715 100.892 26.6789 100.556 27.7189C100.221 28.7589 102.954 29.9697 102.954 29.9697H106.076C106.076 29.9697 107.192 27.7229 106.913 27.065C106.633 26.4071 104.237 25.9147 104.237 25.9147C104.237 25.9147 102.843 25.9147 102.9 22.2432L99.7762 23.1715Z" fill="#C77485"/>
<path opacity="0.1" d="M89.3521 14.6782L88.0149 15.7747C88.0149 15.7747 87.8561 15.5917 87.6193 15.2957C88.1052 15.211 88.8593 14.5141 89.1892 14.1885C89.2946 14.4872 89.3521 14.6782 89.3521 14.6782Z" fill="black"/>
<path opacity="0.1" d="M113.491 14.2948C112.934 15.1168 112.153 14.2948 112.153 14.2948C112.153 14.2948 112.053 14.1481 111.913 13.9114L111.93 13.8562C112.292 14.1105 113.415 13.8939 113.582 13.8562C113.599 14.0082 113.567 14.1617 113.491 14.2948Z" fill="black"/>
<path opacity="0.1" d="M106.335 41.1769C104.61 41.9505 99.007 40.5729 98.6703 40.4908C98.8927 40.2362 99.1503 40.0135 99.4354 39.8289L106.293 40.1571C106.287 40.4976 106.301 40.8381 106.335 41.1769Z" fill="black"/>
<path d="M100.502 26.1852C100.502 26.1852 99.1644 26.6238 97.2687 24.9246C97.2687 24.9246 93.0257 20.8144 92.752 19.8283L89.4671 14.1776C89.4671 14.1776 88.0737 15.6576 87.5153 15.4383L91.1944 21.7401C91.1944 21.7401 91.8637 22.9509 92.4768 23.2738C92.4768 23.2738 97.0483 29.028 97.1031 30.1783C97.1578 31.3286 99.163 34.4096 99.163 34.4096C99.163 34.4096 99.8323 39.3956 98.6607 40.2728C98.6607 40.2728 105.183 41.9168 106.576 40.8203C106.576 40.8203 105.963 34.6315 106.576 33.971C106.576 33.971 108.472 31.7793 107.189 29.3684C107.189 29.3684 106.915 28.054 107.635 27.3961C108.355 26.7382 111.594 21.8611 111.594 21.8611C111.594 21.8611 112.374 20.7647 112.374 20.0529C112.374 20.0529 113.823 15.2311 113.606 13.9705C113.606 13.9705 112.323 14.2395 111.933 13.9705C111.933 13.9705 110.037 19.6211 109.814 19.8337C109.591 20.0462 108.035 24.4914 105.968 24.9851C103.901 25.4789 103.572 25.6968 103.572 25.6968C103.572 25.6968 107.585 28.1629 105.634 29.2581C103.684 30.3532 100.502 26.1852 100.502 26.1852Z" fill="#FFAAC4"/>
<path opacity="0.1" d="M103.035 24.0151C102.969 23.4989 102.942 22.9786 102.954 22.4585L99.8323 23.3895C99.9144 23.5939 99.9799 23.8045 100.028 24.0191C100.385 24.1739 100.867 24.5398 101.282 24.5398C101.909 24.56 102.526 24.3755 103.035 24.0151Z" fill="black"/>
<path d="M101.226 24.377C102.827 24.377 104.125 23.1013 104.125 21.5275C104.125 19.9538 102.827 18.678 101.226 18.678C99.6246 18.678 98.3267 19.9538 98.3267 21.5275C98.3267 23.1013 99.6246 24.377 101.226 24.377Z" fill="#C77485"/>
<path opacity="0.1" d="M97.7765 17.1376C97.1387 17.1861 96.4269 17.6193 96.4625 18.2476C96.4817 18.5933 96.7226 18.8853 96.828 19.2163C97.0812 20.0168 96.5173 20.82 96.0218 21.5034C95.5263 22.1869 95.0637 23.0923 95.488 23.8161C95.609 23.9904 95.7396 24.1579 95.8795 24.318C96.4037 25.0135 96.3968 25.9526 96.6295 26.7881C96.9267 27.857 97.6291 28.7733 98.5924 29.3489C99.5556 29.9244 100.707 30.1154 101.809 29.8825C101.394 29.3619 101.187 28.7102 101.227 28.0501C101.258 27.5711 101.416 27.0706 101.227 26.628C100.983 26.0589 100.269 25.8342 99.9007 25.3364C99.5325 24.8386 99.5572 24.1485 99.7351 23.5551C99.9131 22.9618 100.221 22.4116 100.369 21.8061C100.405 21.6295 100.451 21.4548 100.506 21.2828C100.763 20.5643 101.532 20.1473 102.285 19.9683C103.038 19.7894 103.829 19.7786 104.564 19.5432C105.299 19.3077 106.013 18.7561 106.098 17.9987C105.48 18.2422 104.906 17.6072 104.309 17.3152C103.327 16.8363 102.206 17.287 101.193 17.3973C100.039 17.5238 98.944 17.0542 97.7765 17.1376Z" fill="black"/>
<path d="M97.7204 17.0285C97.0825 17.0769 96.3708 17.5102 96.4064 18.1385C96.4256 18.4842 96.6665 18.7762 96.7718 19.1071C97.0251 19.9076 96.4611 20.7108 95.9657 21.3943C95.4702 22.0777 95.0076 22.9832 95.4319 23.707C95.5528 23.8813 95.6835 24.0488 95.8233 24.2088C96.3475 24.9044 96.3407 25.8435 96.5734 26.679C96.8705 27.7478 97.5729 28.6642 98.5362 29.2397C99.4995 29.8153 100.65 30.0062 101.753 29.7733C101.338 29.2528 101.131 28.601 101.171 27.9409C101.202 27.462 101.36 26.9615 101.171 26.5189C100.927 25.9498 100.213 25.7251 99.8446 25.2273C99.4764 24.7295 99.501 24.0393 99.679 23.446C99.8569 22.8527 100.165 22.3024 100.313 21.697C100.349 21.5204 100.395 21.3457 100.45 21.1736C100.707 20.4552 101.476 20.0381 102.229 19.8592C102.982 19.6803 103.773 19.6695 104.508 19.4341C105.243 19.1986 105.957 18.647 106.042 17.8896C105.423 18.1331 104.85 17.498 104.253 17.2061C103.27 16.7271 102.149 17.1778 101.137 17.2882C99.9856 17.4133 98.8947 16.9384 97.7204 17.0285Z" fill="#493545"/>
<path opacity="0.1" d="M104.097 27.8577C104.097 27.8577 105.258 28.8761 105.486 29.3255L104.097 27.8577Z" fill="black"/>
<path opacity="0.1" d="M106.609 33.9399C106.609 33.9399 105.159 33.9399 104.49 34.1041C103.821 34.2682 102.204 34.1041 102.204 34.1041" fill="black"/>
<g opacity="0.1">
<path opacity="0.1" d="M105.63 29.2541C105.505 29.3244 105.37 29.3752 105.229 29.4048C105.593 29.484 105.973 29.4305 106.299 29.2541C108.251 28.1576 104.237 25.6929 104.237 25.6929H103.567C103.567 25.6929 107.582 28.159 105.63 29.2541Z" fill="black"/>
<path opacity="0.1" d="M113.615 14.0661C113.615 14.0311 113.607 13.9975 113.602 13.9666C113.372 14.0133 113.141 14.0478 112.908 14.0701C113.143 14.0956 113.38 14.0942 113.615 14.0661Z" fill="black"/>
<path opacity="0.1" d="M99.3313 40.2689C100.502 39.3917 99.8337 34.4057 99.8337 34.4057C99.8337 34.4057 97.8271 31.3369 97.771 30.1866C97.7149 29.0363 93.1448 23.2821 93.1448 23.2821C92.5316 22.9538 91.8623 21.7483 91.8623 21.7483C91.8623 21.7483 88.071 15.6658 87.5139 15.4465L91.193 21.7483C91.193 21.7483 91.8623 22.9592 92.4755 23.2821C92.4755 23.2821 97.047 29.0363 97.1017 30.1866C97.1565 31.3369 99.163 34.4098 99.163 34.4098C99.163 34.4098 99.8323 39.3958 98.6607 40.2729C98.6607 40.2729 102.67 41.2833 105.073 41.1918C102.664 41.1084 99.3313 40.2689 99.3313 40.2689Z" fill="black"/>
<path opacity="0.1" d="M100.534 26.2285L100.502 26.1868C100.463 26.1979 100.425 26.2064 100.385 26.2123C100.437 26.2191 100.487 26.2244 100.534 26.2285Z" fill="black"/>
</g>
<g opacity="0.1">
<path opacity="0.1" d="M113.602 13.9597L113.567 13.9664C113.508 15.6495 112.32 19.6036 112.32 19.6036C112.32 20.3153 111.54 21.4118 111.54 21.4118C111.54 21.4118 108.307 26.2888 107.582 26.9467C106.856 27.6046 107.136 28.9191 107.136 28.9191L107.143 28.9325C107.121 28.4899 107.175 27.8037 107.637 27.384C108.361 26.7261 111.595 21.8491 111.595 21.8491C111.595 21.8491 112.375 20.7526 112.375 20.0409C112.375 20.0489 113.825 15.2271 113.602 13.9597Z" fill="black"/>
<path opacity="0.1" d="M106.523 33.5283C106.606 33.9938 106.55 33.5014 106.579 33.9669C106.579 33.9669 107.947 32.3888 107.574 30.438C107.686 32.1816 106.523 33.5283 106.523 33.5283Z" fill="black"/>
</g>
<path opacity="0.1" d="M64.3006 89C96.6289 89 122.836 86.5255 122.836 83.4731C122.836 80.4207 96.6289 77.9463 64.3006 77.9463C31.9723 77.9463 5.765 80.4207 5.765 83.4731C5.765 86.5255 31.9723 89 64.3006 89Z" fill="#8E87FF"/>
<path d="M41.6101 77.8657C41.6101 77.8657 39.6173 71.2128 41.9838 66.3169C42.9903 64.2693 43.2938 61.9561 42.8488 59.7245C42.629 58.6667 42.311 57.6309 41.8989 56.6301" stroke="#535461" stroke-width="2" stroke-miterlimit="10"/>
<path d="M43.3744 53.5384C43.3744 54.3537 41.8688 56.7175 41.8688 56.7175C41.8688 56.7175 40.3632 54.3537 40.3632 53.5384C40.348 53.3354 40.3754 53.1315 40.444 52.9394C40.5125 52.7473 40.6206 52.5712 40.7615 52.422C40.9024 52.2729 41.0731 52.1539 41.263 52.0726C41.4528 51.9912 41.6576 51.9492 41.8647 51.9492C42.0718 51.9492 42.2766 51.9912 42.4665 52.0726C42.6563 52.1539 42.827 52.2729 42.9679 52.422C43.1088 52.5712 43.2169 52.7473 43.2855 52.9394C43.354 53.1315 43.3815 53.3354 43.3662 53.5384H43.3744Z" fill="#8E87FF"/>
<path d="M45.8531 58.0534C45.4028 58.7382 42.8351 59.9194 42.8351 59.9194C42.8351 59.9194 42.8817 57.1331 43.332 56.4483C43.4318 56.2705 43.5679 56.1149 43.7316 55.991C43.8953 55.8671 44.0832 55.7777 44.2836 55.7283C44.484 55.6789 44.6926 55.6706 44.8965 55.7038C45.1003 55.7371 45.295 55.8112 45.4684 55.9216C45.6418 56.032 45.7902 56.1763 45.9045 56.3455C46.0187 56.5148 46.0963 56.7053 46.1324 56.9052C46.1684 57.1052 46.1623 57.3103 46.1142 57.5079C46.0662 57.7054 45.9773 57.8911 45.8531 58.0534Z" fill="#8E87FF"/>
<path d="M45.745 65.7719C45.0045 66.1392 42.1864 65.8849 42.1864 65.8849C42.1864 65.8849 43.6577 63.5022 44.3982 63.135C44.5757 63.0302 44.7733 62.9625 44.9786 62.9362C45.1839 62.9099 45.3925 62.9255 45.5914 62.9821C45.7903 63.0386 45.9752 63.1349 46.1346 63.2648C46.2939 63.3948 46.4243 63.5556 46.5175 63.7373C46.6107 63.919 46.6648 64.1177 46.6764 64.3209C46.688 64.5241 46.6568 64.7275 46.5849 64.9183C46.5129 65.1091 46.4016 65.2833 46.2581 65.4299C46.1145 65.5766 45.9417 65.6925 45.7505 65.7705L45.745 65.7719Z" fill="#8E87FF"/>
<path d="M44.3256 71.592C43.6591 72.0763 40.8313 72.2956 40.8313 72.2956C40.8313 72.2956 41.8716 69.7031 42.5395 69.2174C42.8609 69.0254 43.2438 68.9586 43.6128 69.0302C43.9818 69.1018 44.3102 69.3065 44.5333 69.6041C44.7565 69.9018 44.8582 70.2707 44.8185 70.6384C44.7788 71.006 44.6005 71.3457 44.3188 71.5907L44.3256 71.592Z" fill="#8E87FF"/>
<path d="M39.6789 60.0782C40.2743 60.6459 43.0459 61.2352 43.0459 61.2352C43.0459 61.2352 42.3615 58.5297 41.7716 57.9606C41.634 57.8089 41.466 57.6867 41.2782 57.6017C41.0904 57.5166 40.8868 57.4705 40.6801 57.4662C40.4734 57.4618 40.268 57.4994 40.0767 57.5766C39.8854 57.6537 39.7123 57.7688 39.5682 57.9146C39.4241 58.0603 39.3121 58.2338 39.2392 58.4239C39.1663 58.6141 39.1341 58.8171 39.1444 59.0201C39.1548 59.223 39.2076 59.4218 39.2996 59.6038C39.3915 59.7859 39.5206 59.9473 39.6789 60.0782Z" fill="#8E87FF"/>
<path d="M38.109 66.9074C38.8494 67.2747 41.6676 67.0204 41.6676 67.0204C41.6676 67.0204 40.2017 64.6377 39.4613 64.2772C39.1102 64.1339 38.7169 64.1265 38.3605 64.2564C38.0041 64.3863 37.7109 64.6439 37.5397 64.9776C37.3685 65.3112 37.332 65.6961 37.4376 66.0551C37.5432 66.414 37.7831 66.7204 38.109 66.9128V66.9074Z" fill="#8E87FF"/>
<path d="M37.5067 73.7499C38.1733 74.2342 41.0011 74.4535 41.0011 74.4535C41.0011 74.4535 39.9608 71.861 39.2929 71.3753C39.1364 71.2392 38.9527 71.1366 38.7536 71.0741C38.5545 71.0116 38.3443 70.9905 38.1365 71.0122C37.9287 71.0339 37.7277 71.0978 37.5464 71.2001C37.3651 71.3023 37.2074 71.4405 37.0834 71.6058C36.9594 71.7712 36.8718 71.9602 36.8262 72.1607C36.7805 72.3612 36.7779 72.5688 36.8183 72.7703C36.8588 72.9719 36.9415 73.163 37.0612 73.3314C37.1809 73.4998 37.335 73.6419 37.5136 73.7486L37.5067 73.7499Z" fill="#8E87FF"/>
<path opacity="0.1" d="M43.3744 53.5384C43.3744 54.3537 41.8688 56.7175 41.8688 56.7175C41.8688 56.7175 40.3632 54.3537 40.3632 53.5384C40.348 53.3354 40.3754 53.1315 40.444 52.9394C40.5125 52.7473 40.6206 52.5712 40.7615 52.422C40.9024 52.2729 41.0731 52.1539 41.263 52.0726C41.4528 51.9912 41.6576 51.9492 41.8647 51.9492C42.0718 51.9492 42.2766 51.9912 42.4665 52.0726C42.6563 52.1539 42.827 52.2729 42.9679 52.422C43.1088 52.5712 43.2169 52.7473 43.2855 52.9394C43.354 53.1315 43.3815 53.3354 43.3662 53.5384H43.3744Z" fill="#8E87FF"/>
<path opacity="0.1" d="M45.8531 58.0534C45.4028 58.7382 42.8351 59.9194 42.8351 59.9194C42.8351 59.9194 42.8817 57.1331 43.332 56.4483C43.4318 56.2705 43.5679 56.1149 43.7316 55.991C43.8953 55.8671 44.0832 55.7777 44.2836 55.7283C44.484 55.6789 44.6926 55.6706 44.8965 55.7038C45.1003 55.7371 45.295 55.8112 45.4684 55.9216C45.6418 56.032 45.7902 56.1763 45.9045 56.3455C46.0187 56.5148 46.0963 56.7053 46.1324 56.9052C46.1684 57.1052 46.1623 57.3103 46.1142 57.5079C46.0662 57.7054 45.9773 57.8911 45.8531 58.0534Z" fill="#8E87FF"/>
<path opacity="0.1" d="M45.745 65.7719C45.0045 66.1392 42.1864 65.8849 42.1864 65.8849C42.1864 65.8849 43.6577 63.5022 44.3982 63.135C44.5757 63.0302 44.7733 62.9625 44.9786 62.9362C45.1839 62.9099 45.3925 62.9255 45.5914 62.9821C45.7903 63.0386 45.9752 63.1349 46.1346 63.2648C46.2939 63.3948 46.4243 63.5556 46.5175 63.7373C46.6107 63.919 46.6648 64.1177 46.6764 64.3209C46.688 64.5241 46.6568 64.7275 46.5849 64.9183C46.5129 65.1091 46.4016 65.2833 46.2581 65.4299C46.1145 65.5766 45.9417 65.6925 45.7505 65.7705L45.745 65.7719Z" fill="#8E87FF"/>
<path opacity="0.1" d="M44.3256 71.592C43.6591 72.0763 40.8313 72.2956 40.8313 72.2956C40.8313 72.2956 41.8716 69.7031 42.5395 69.2174C42.8609 69.0254 43.2438 68.9586 43.6128 69.0302C43.9818 69.1018 44.3102 69.3065 44.5333 69.6041C44.7565 69.9018 44.8582 70.2707 44.8185 70.6384C44.7788 71.006 44.6005 71.3457 44.3188 71.5907L44.3256 71.592Z" fill="#8E87FF"/>
<path opacity="0.1" d="M39.6789 60.0782C40.2743 60.6459 43.0459 61.2352 43.0459 61.2352C43.0459 61.2352 42.3615 58.5297 41.7716 57.9606C41.634 57.8089 41.466 57.6867 41.2782 57.6017C41.0904 57.5166 40.8868 57.4705 40.6801 57.4662C40.4734 57.4618 40.268 57.4994 40.0767 57.5766C39.8854 57.6537 39.7123 57.7688 39.5682 57.9146C39.4241 58.0603 39.3121 58.2338 39.2392 58.4239C39.1663 58.6141 39.1341 58.8171 39.1444 59.0201C39.1548 59.223 39.2076 59.4218 39.2996 59.6038C39.3915 59.7859 39.5206 59.9473 39.6789 60.0782Z" fill="#8E87FF"/>
<path opacity="0.1" d="M38.109 66.9074C38.8494 67.2747 41.6676 67.0204 41.6676 67.0204C41.6676 67.0204 40.2017 64.6377 39.4613 64.2772C39.1102 64.1339 38.7169 64.1265 38.3605 64.2564C38.0041 64.3863 37.7109 64.6439 37.5397 64.9776C37.3685 65.3112 37.332 65.6961 37.4376 66.0551C37.5432 66.414 37.7831 66.7204 38.109 66.9128V66.9074Z" fill="#8E87FF"/>
<path opacity="0.1" d="M37.5067 73.7499C38.1733 74.2342 41.0011 74.4535 41.0011 74.4535C41.0011 74.4535 39.9608 71.861 39.2929 71.3753C39.1364 71.2392 38.9527 71.1366 38.7536 71.0741C38.5545 71.0116 38.3443 70.9905 38.1365 71.0122C37.9287 71.0339 37.7277 71.0978 37.5464 71.2001C37.3651 71.3023 37.2074 71.4405 37.0834 71.6058C36.9594 71.7712 36.8718 71.9602 36.8262 72.1607C36.7805 72.3612 36.7779 72.5688 36.8183 72.7703C36.8588 72.9719 36.9415 73.163 37.0612 73.3314C37.1809 73.4998 37.335 73.6419 37.5136 73.7486L37.5067 73.7499Z" fill="#8E87FF"/>
<path d="M81.9378 77.9612C81.9378 77.9612 79.9449 71.3082 82.3114 66.4124C83.3179 64.3648 83.6214 62.0516 83.1764 59.82C82.9567 58.7622 82.6387 57.7264 82.2266 56.7256" stroke="#535461" stroke-width="2" stroke-miterlimit="10"/>
<path d="M83.6993 53.6324C83.6993 54.4477 82.1937 56.8116 82.1937 56.8116C82.1937 56.8116 80.6881 54.4477 80.6881 53.6324C80.7162 53.2598 80.8866 52.9115 81.1651 52.6572C81.4436 52.403 81.8096 52.2617 82.1896 52.2617C82.5697 52.2617 82.9357 52.403 83.2142 52.6572C83.4927 52.9115 83.6631 53.2598 83.6911 53.6324H83.6993Z" fill="#8E87FF"/>
<path d="M86.1821 58.1476C85.7318 58.8324 83.1641 60.0136 83.1641 60.0136C83.1641 60.0136 83.2107 57.2274 83.661 56.5426C83.7609 56.3648 83.8969 56.2091 84.0606 56.0852C84.2243 55.9614 84.4123 55.8719 84.6127 55.8225C84.8131 55.7731 85.0217 55.7648 85.2255 55.7981C85.4293 55.8313 85.624 55.9054 85.7974 56.0158C85.9708 56.1262 86.1192 56.2705 86.2335 56.4398C86.3477 56.609 86.4253 56.7995 86.4614 56.9995C86.4975 57.1995 86.4913 57.4046 86.4433 57.6021C86.3952 57.7996 86.3063 57.9853 86.1821 58.1476Z" fill="#8E87FF"/>
<path d="M86.0781 65.8662C85.3376 66.2335 82.5195 65.9792 82.5195 65.9792C82.5195 65.9792 83.9908 63.5965 84.7313 63.2292C84.909 63.1235 85.1071 63.0551 85.313 63.0282C85.5189 63.0014 85.7283 63.0167 85.9279 63.0733C86.1275 63.1298 86.313 63.2264 86.4728 63.3568C86.6326 63.4873 86.7632 63.6488 86.8564 63.8313C86.9496 64.0138 87.0034 64.2133 87.0144 64.4172C87.0253 64.6211 86.9933 64.825 86.9202 65.0161C86.8471 65.2073 86.7345 65.3815 86.5896 65.5278C86.4447 65.674 86.2705 65.7893 86.0781 65.8662Z" fill="#8E87FF"/>
<path d="M84.6533 71.6862C83.9867 72.1706 81.159 72.3899 81.159 72.3899C81.159 72.3899 82.1992 69.7973 82.8671 69.3116C83.1886 69.1196 83.5715 69.0529 83.9405 69.1244C84.3095 69.196 84.6378 69.4008 84.861 69.6984C85.0841 69.996 85.1858 70.3649 85.1461 70.7326C85.1064 71.1002 84.9282 71.4399 84.6464 71.6849L84.6533 71.6862Z" fill="#8E87FF"/>
<path d="M80.0093 60.1724C80.6047 60.7402 83.3763 61.3295 83.3763 61.3295C83.3763 61.3295 82.6919 58.6239 82.102 58.0548C81.9644 57.9031 81.7964 57.781 81.6086 57.6959C81.4208 57.6108 81.2172 57.5647 81.0105 57.5604C80.8038 57.5561 80.5984 57.5937 80.4071 57.6708C80.2158 57.748 80.0427 57.863 79.8986 58.0088C79.7545 58.1546 79.6425 58.328 79.5696 58.5182C79.4967 58.7084 79.4645 58.9113 79.4749 59.1143C79.4852 59.3173 79.538 59.516 79.63 59.6981C79.7219 59.8801 79.851 60.0416 80.0093 60.1724Z" fill="#8E87FF"/>
<path d="M78.4366 67.0015C79.1771 67.3688 81.9952 67.1146 81.9952 67.1146C81.9952 67.1146 80.5239 64.7319 79.7834 64.3646C79.4323 64.2213 79.0391 64.2139 78.6827 64.3438C78.3263 64.4737 78.033 64.7313 77.8619 65.065C77.6907 65.3986 77.6542 65.7835 77.7598 66.1425C77.8654 66.5014 78.1052 66.8079 78.4311 67.0002L78.4366 67.0015Z" fill="#8E87FF"/>
<path d="M77.8358 73.8442C78.5023 74.3285 81.3301 74.5478 81.3301 74.5478C81.3301 74.5478 80.2899 71.9553 79.6219 71.4696C79.3005 71.2776 78.9176 71.2108 78.5486 71.2824C78.1796 71.354 77.8512 71.5587 77.6281 71.8563C77.4049 72.154 77.3032 72.5229 77.3429 72.8905C77.3826 73.2582 77.5609 73.5979 77.8426 73.8428L77.8358 73.8442Z" fill="#8E87FF"/>
<path opacity="0.1" d="M83.6993 53.6324C83.6993 54.4477 82.1937 56.8116 82.1937 56.8116C82.1937 56.8116 80.6881 54.4477 80.6881 53.6324C80.7162 53.2598 80.8866 52.9115 81.1651 52.6572C81.4436 52.403 81.8096 52.2617 82.1896 52.2617C82.5697 52.2617 82.9357 52.403 83.2142 52.6572C83.4927 52.9115 83.6631 53.2598 83.6911 53.6324H83.6993Z" fill="#8E87FF"/>
<path opacity="0.1" d="M86.1821 58.1476C85.7318 58.8324 83.1641 60.0136 83.1641 60.0136C83.1641 60.0136 83.2107 57.2274 83.661 56.5426C83.7609 56.3648 83.8969 56.2091 84.0606 56.0852C84.2243 55.9614 84.4123 55.8719 84.6127 55.8225C84.8131 55.7731 85.0217 55.7648 85.2255 55.7981C85.4293 55.8313 85.624 55.9054 85.7974 56.0158C85.9708 56.1262 86.1192 56.2705 86.2335 56.4398C86.3477 56.609 86.4253 56.7995 86.4614 56.9995C86.4975 57.1995 86.4913 57.4046 86.4433 57.6021C86.3952 57.7996 86.3063 57.9853 86.1821 58.1476Z" fill="#8E87FF"/>
<path opacity="0.1" d="M86.0781 65.8662C85.3376 66.2335 82.5195 65.9792 82.5195 65.9792C82.5195 65.9792 83.9908 63.5965 84.7313 63.2292C84.909 63.1235 85.1071 63.0551 85.313 63.0282C85.5189 63.0014 85.7283 63.0167 85.9279 63.0733C86.1275 63.1298 86.313 63.2264 86.4728 63.3568C86.6326 63.4873 86.7632 63.6488 86.8564 63.8313C86.9496 64.0138 87.0034 64.2133 87.0144 64.4172C87.0253 64.6211 86.9933 64.825 86.9202 65.0161C86.8471 65.2073 86.7345 65.3815 86.5896 65.5278C86.4447 65.674 86.2705 65.7893 86.0781 65.8662Z" fill="#8E87FF"/>
<path opacity="0.1" d="M84.6533 71.6862C83.9867 72.1706 81.159 72.3899 81.159 72.3899C81.159 72.3899 82.1992 69.7973 82.8671 69.3116C83.1886 69.1196 83.5715 69.0529 83.9405 69.1244C84.3095 69.196 84.6378 69.4008 84.861 69.6984C85.0841 69.996 85.1858 70.3649 85.1461 70.7326C85.1064 71.1002 84.9282 71.4399 84.6464 71.6849L84.6533 71.6862Z" fill="#8E87FF"/>
<path opacity="0.1" d="M80.0093 60.1724C80.6047 60.7402 83.3763 61.3295 83.3763 61.3295C83.3763 61.3295 82.6919 58.6239 82.102 58.0548C81.9644 57.9031 81.7964 57.781 81.6086 57.6959C81.4208 57.6108 81.2172 57.5647 81.0105 57.5604C80.8038 57.5561 80.5984 57.5937 80.4071 57.6708C80.2158 57.748 80.0427 57.863 79.8986 58.0088C79.7545 58.1546 79.6425 58.328 79.5696 58.5182C79.4967 58.7084 79.4645 58.9113 79.4749 59.1143C79.4852 59.3173 79.538 59.516 79.63 59.6981C79.7219 59.8801 79.851 60.0416 80.0093 60.1724Z" fill="#8E87FF"/>
<path opacity="0.1" d="M78.4366 67.0015C79.1771 67.3688 81.9952 67.1146 81.9952 67.1146C81.9952 67.1146 80.5239 64.7319 79.7834 64.3646C79.4323 64.2213 79.0391 64.2139 78.6827 64.3438C78.3263 64.4737 78.033 64.7313 77.8619 65.065C77.6907 65.3986 77.6542 65.7835 77.7598 66.1425C77.8654 66.5014 78.1052 66.8079 78.4311 67.0002L78.4366 67.0015Z" fill="#8E87FF"/>
<path opacity="0.1" d="M77.8358 73.8442C78.5023 74.3285 81.3301 74.5478 81.3301 74.5478C81.3301 74.5478 80.2899 71.9553 79.6219 71.4696C79.3005 71.2776 78.9176 71.2108 78.5486 71.2824C78.1796 71.354 77.8512 71.5587 77.6281 71.8563C77.4049 72.154 77.3032 72.5229 77.3429 72.8905C77.3826 73.2582 77.5609 73.5979 77.8426 73.8428L77.8358 73.8442Z" fill="#8E87FF"/>
<path opacity="0.5" d="M91.6898 2.05973H90.8303C90.9117 2.06355 90.993 2.05108 91.0694 2.02309C91.1458 1.9951 91.2156 1.95216 91.2746 1.89688C91.3335 1.8416 91.3805 1.77512 91.4126 1.70147C91.4447 1.62783 91.4612 1.54855 91.4612 1.46843C91.4612 1.38832 91.4447 1.30904 91.4126 1.2354C91.3805 1.16175 91.3335 1.09527 91.2746 1.03999C91.2156 0.984707 91.1458 0.941769 91.0694 0.913777C90.993 0.885784 90.9117 0.873319 90.8303 0.877138H83.8608C83.7062 0.884387 83.5604 0.949849 83.4536 1.05994C83.3469 1.17004 83.2873 1.31632 83.2873 1.46843C83.2873 1.62055 83.3469 1.76683 83.4536 1.87692C83.5604 1.98702 83.7062 2.05248 83.8608 2.05973H84.7204C84.5658 2.06698 84.42 2.13244 84.3132 2.24254C84.2064 2.35264 84.1468 2.49891 84.1468 2.65103C84.1468 2.80315 84.2064 2.94942 84.3132 3.05952C84.42 3.16961 84.5658 3.23508 84.7204 3.24233H83.5173C83.4359 3.23851 83.3545 3.25097 83.2781 3.27897C83.2018 3.30696 83.132 3.3499 83.073 3.40518C83.014 3.46046 82.9671 3.52694 82.935 3.60058C82.9029 3.67423 82.8863 3.75351 82.8863 3.83362C82.8863 3.91374 82.9029 3.99302 82.935 4.06666C82.9671 4.14031 83.014 4.20678 83.073 4.26207C83.132 4.31735 83.2018 4.36029 83.2781 4.38828C83.3545 4.41627 83.4359 4.42874 83.5173 4.42492H90.4813C90.5627 4.42874 90.644 4.41627 90.7204 4.38828C90.7968 4.36029 90.8665 4.31735 90.9255 4.26207C90.9845 4.20678 91.0315 4.14031 91.0636 4.06666C91.0957 3.99302 91.1122 3.91374 91.1122 3.83362C91.1122 3.75351 91.0957 3.67423 91.0636 3.60058C91.0315 3.52694 90.9845 3.46046 90.9255 3.40518C90.8665 3.3499 90.7968 3.30696 90.7204 3.27897C90.644 3.25097 90.5627 3.23851 90.4813 3.24233H91.6898C91.8444 3.23508 91.9902 3.16961 92.097 3.05952C92.2038 2.94942 92.2634 2.80315 92.2634 2.65103C92.2634 2.49891 92.2038 2.35264 92.097 2.24254C91.9902 2.13244 91.8444 2.06698 91.6898 2.05973Z" fill="#DEE3F3"/>
<path opacity="0.5" d="M51.4197 5.50938H50.7654C50.8276 5.51272 50.8899 5.50356 50.9484 5.48246C51.0069 5.46135 51.0604 5.42875 51.1057 5.38663C51.151 5.34451 51.187 5.29377 51.2116 5.2375C51.2363 5.18122 51.249 5.12061 51.249 5.05935C51.249 4.99809 51.2363 4.93747 51.2116 4.8812C51.187 4.82493 51.151 4.77418 51.1057 4.73206C51.0604 4.68995 51.0069 4.65734 50.9484 4.63623C50.8899 4.61513 50.8276 4.60597 50.7654 4.60932H45.4658C45.3487 4.61561 45.2385 4.66577 45.1579 4.74948C45.0772 4.83318 45.0323 4.94407 45.0323 5.05935C45.0323 5.17462 45.0772 5.28551 45.1579 5.36922C45.2385 5.45292 45.3487 5.50308 45.4658 5.50938H46.12C46.0578 5.50603 45.9955 5.51519 45.937 5.5363C45.8785 5.5574 45.825 5.59001 45.7797 5.63213C45.7345 5.67425 45.6984 5.72499 45.6738 5.78126C45.6492 5.83753 45.6365 5.89815 45.6365 5.95941C45.6365 6.02067 45.6492 6.08129 45.6738 6.13756C45.6984 6.19383 45.7345 6.24458 45.7797 6.28669C45.825 6.32881 45.8785 6.36142 45.937 6.38252C45.9955 6.40363 46.0578 6.41279 46.12 6.40944H45.2044C45.1421 6.4061 45.0799 6.41526 45.0213 6.43636C44.9628 6.45746 44.9093 6.49007 44.8641 6.53219C44.8188 6.57431 44.7828 6.62505 44.7581 6.68132C44.7335 6.7376 44.7208 6.79821 44.7208 6.85947C44.7208 6.92073 44.7335 6.98135 44.7581 7.03762C44.7828 7.09389 44.8188 7.14464 44.8641 7.18676C44.9093 7.22888 44.9628 7.26148 45.0213 7.28259C45.0799 7.30369 45.1421 7.31285 45.2044 7.30951H50.504C50.5662 7.31285 50.6285 7.30369 50.687 7.28259C50.7455 7.26148 50.799 7.22888 50.8443 7.18676C50.8895 7.14464 50.9256 7.09389 50.9502 7.03762C50.9748 6.98135 50.9876 6.92073 50.9876 6.85947C50.9876 6.79821 50.9748 6.7376 50.9502 6.68132C50.9256 6.62505 50.8895 6.57431 50.8443 6.53219C50.799 6.49007 50.7455 6.45746 50.687 6.43636C50.6285 6.41526 50.5662 6.4061 50.504 6.40944H51.4197C51.5368 6.40315 51.6469 6.35299 51.7276 6.26928C51.8082 6.18557 51.8531 6.07468 51.8531 5.95941C51.8531 5.84414 51.8082 5.73324 51.7276 5.64954C51.6469 5.56583 51.5368 5.51567 51.4197 5.50938Z" fill="#DEE3F3"/>
<path d="M6.93661 69.2551C6.93661 69.2551 9.33185 73.8765 7.38007 76.4045C5.42829 78.9325 7.558 85.8222 7.558 85.8222" stroke="#8E87FF" stroke-miterlimit="10"/>
<path d="M7.6511 67.81C7.6511 68.7007 6.9859 69.4245 6.9859 69.4245C6.9859 69.4245 6.32071 68.702 6.32071 67.81C6.32071 66.918 6.9859 66.1956 6.9859 66.1956C6.9859 66.1956 7.6511 66.9194 7.6511 67.81Z" fill="#8E87FF"/>
<path d="M8.17804 69.2551C8.17804 69.2551 5.7828 73.8765 7.73457 76.4045C9.68635 78.9325 7.55664 85.8222 7.55664 85.8222" stroke="#8E87FF" stroke-miterlimit="10"/>
<path d="M7.46904 67.81C7.46904 68.7007 8.13423 69.4245 8.13423 69.4245C8.13423 69.4245 8.79943 68.702 8.79943 67.81C8.79943 66.918 8.13423 66.1956 8.13423 66.1956C8.13423 66.1956 7.46904 66.9194 7.46904 67.81Z" fill="#8E87FF"/>
<path opacity="0.1" d="M7.46904 67.81C7.46904 68.7007 8.13423 69.4245 8.13423 69.4245C8.13423 69.4245 8.79943 68.702 8.79943 67.81C8.79943 66.918 8.13423 66.1956 8.13423 66.1956C8.13423 66.1956 7.46904 66.9194 7.46904 67.81Z" fill="black"/>
<path d="M9.15666 69.2551C9.15666 69.2551 11.5519 73.8765 9.60012 76.4045C7.64834 78.9325 9.77805 85.8222 9.77805 85.8222" stroke="#8E87FF" stroke-miterlimit="10"/>
<path d="M9.86429 67.81C9.86429 68.7007 9.1991 69.4245 9.1991 69.4245C9.1991 69.4245 8.53391 68.702 8.53391 67.81C8.53391 66.918 9.1991 66.1956 9.1991 66.1956C9.1991 66.1956 9.86429 66.9194 9.86429 67.81Z" fill="#8E87FF"/>
<path d="M9.49064 71.5126C8.8624 72.1544 7.87282 72.2217 7.87282 72.2217C7.87282 72.2217 7.90293 71.2476 8.53117 70.6072C9.15941 69.9668 10.149 69.8982 10.149 69.8982C10.149 69.8982 10.1148 70.8696 9.49064 71.5126Z" fill="#8E87FF"/>
<path d="M9.55359 74.7011C8.92535 75.3429 7.93578 75.4102 7.93578 75.4102C7.93578 75.4102 7.96589 74.4361 8.59413 73.7957C9.22236 73.1553 10.2119 73.0867 10.2119 73.0867C10.2119 73.0867 10.1818 74.058 9.55359 74.7011Z" fill="#8E87FF"/>
<path d="M6.1455 76.4543C6.73952 77.127 6.71899 78.101 6.71899 78.101C6.71899 78.101 5.73489 77.984 5.14087 77.3113C4.54685 76.6386 4.56738 75.6646 4.56738 75.6646C4.56738 75.6646 5.55148 75.7816 6.1455 76.4543Z" fill="#8E87FF"/>
<path d="M6.693 69.6589C7.44852 70.1513 7.69352 71.0958 7.69352 71.0958C7.69352 71.0958 6.71353 71.2424 5.958 70.75C5.20247 70.2576 4.95747 69.3131 4.95747 69.3131C4.95747 69.3131 5.94158 69.1638 6.693 69.6589Z" fill="#8E87FF"/>
<path opacity="0.1" d="M6.693 69.6589C7.44852 70.1513 7.69352 71.0958 7.69352 71.0958C7.69352 71.0958 6.71353 71.2424 5.958 70.75C5.20247 70.2576 4.95747 69.3131 4.95747 69.3131C4.95747 69.3131 5.94158 69.1638 6.693 69.6589Z" fill="black"/>
<path d="M10.3953 69.2551C10.3953 69.2551 8.00009 73.8765 9.95188 76.4045C11.9037 78.9325 9.77394 85.8222 9.77394 85.8222" stroke="#8E87FF" stroke-miterlimit="10"/>
<path d="M9.68636 67.81C9.68636 68.7007 10.3515 69.4245 10.3515 69.4245C10.3515 69.4245 11.0167 68.702 11.0167 67.81C11.0167 66.918 10.3515 66.1956 10.3515 66.1956C10.3515 66.1956 9.68636 66.9194 9.68636 67.81Z" fill="#8E87FF"/>
<path opacity="0.1" d="M9.68636 67.81C9.68636 68.7007 10.3515 69.4245 10.3515 69.4245C10.3515 69.4245 11.0167 68.702 11.0167 67.81C11.0167 66.918 10.3515 66.1956 10.3515 66.1956C10.3515 66.1956 9.68636 66.9194 9.68636 67.81Z" fill="black"/>
<path d="M9.87797 71.5813C9.24152 72.2163 9.19362 73.1958 9.19362 73.1958C9.19362 73.1958 10.1832 73.1406 10.8196 72.5056C11.4561 71.8706 11.504 70.8911 11.504 70.8911C11.504 70.8911 10.5144 70.9463 9.87797 71.5813Z" fill="#8E87FF"/>
<path opacity="0.1" d="M9.87797 71.5813C9.24152 72.2163 9.19362 73.1958 9.19362 73.1958C9.19362 73.1958 10.1832 73.1406 10.8196 72.5056C11.4561 71.8706 11.504 70.8911 11.504 70.8911C11.504 70.8911 10.5144 70.9463 9.87797 71.5813Z" fill="black"/>
<path d="M11.1249 75.9956C10.4884 76.6306 10.4405 77.6101 10.4405 77.6101C10.4405 77.6101 11.4301 77.5549 12.0665 76.9199C12.703 76.2849 12.7509 75.3054 12.7509 75.3054C12.7509 75.3054 11.7572 75.3606 11.1249 75.9956Z" fill="#8E87FF"/>
<path d="M9.29353 75.0254C9.29353 75.0254 10.7348 72.7921 12.7591 72.7383" stroke="#8E87FF" stroke-miterlimit="10"/>
<path d="M8.1671 73.6761C8.1671 73.6761 6.72584 71.4427 4.70152 71.3889" stroke="#8E87FF" stroke-miterlimit="10"/>
<path d="M7.97958 76.8646C7.97958 76.8646 9.42083 74.6312 11.4452 74.5774" stroke="#8E87FF" stroke-miterlimit="10"/>
<path d="M12.6893 73.0935C12.8957 73.0935 13.063 72.929 13.063 72.7262C13.063 72.5233 12.8957 72.3589 12.6893 72.3589C12.4829 72.3589 12.3156 72.5233 12.3156 72.7262C12.3156 72.929 12.4829 73.0935 12.6893 73.0935Z" fill="#8E87FF"/>
<path d="M4.73711 71.7751C4.94347 71.7751 5.11076 71.6107 5.11076 71.4078C5.11076 71.205 4.94347 71.0405 4.73711 71.0405C4.53074 71.0405 4.36345 71.205 4.36345 71.4078C4.36345 71.6107 4.53074 71.7751 4.73711 71.7751Z" fill="#8E87FF"/>
<path d="M9.04032 77.5965C9.04032 77.5965 7.59907 75.3631 5.57475 75.3093" stroke="#8E87FF" stroke-miterlimit="10"/>
<path d="M5.61034 75.6982C5.8167 75.6982 5.98399 75.5338 5.98399 75.3309C5.98399 75.1281 5.8167 74.9636 5.61034 74.9636C5.40397 74.9636 5.23668 75.1281 5.23668 75.3309C5.23668 75.5338 5.40397 75.6982 5.61034 75.6982Z" fill="#8E87FF"/>
<path d="M11.4725 74.9636C11.6789 74.9636 11.8462 74.7992 11.8462 74.5963C11.8462 74.3935 11.6789 74.229 11.4725 74.229C11.2662 74.229 11.0989 74.3935 11.0989 74.5963C11.0989 74.7992 11.2662 74.9636 11.4725 74.9636Z" fill="#8E87FF"/>
<path d="M17.0103 83.1326C17.0103 83.1326 13.5365 82.4492 12.6086 81.5384C11.6806 80.6275 7.51421 79.0346 7.05022 80.1728C6.58623 81.311 0.796587 85.1817 4.73436 85.8651C8.67214 86.5486 13.9992 86.7759 15.1571 86.3199C16.315 85.8638 17.0103 83.1326 17.0103 83.1326Z" fill="#A8A8A8"/>
<path opacity="0.2" d="M4.73436 85.4413C8.67214 86.1247 13.9992 86.3521 15.1571 85.896C16.0385 85.5489 16.6517 83.878 16.894 83.1084L17.0103 83.1326C17.0103 83.1326 16.315 85.8651 15.1571 86.3198C13.9992 86.7746 8.67214 86.5472 4.73436 85.8651C3.59833 85.6673 3.27258 85.2045 3.39576 84.6193C3.49157 84.996 3.8885 85.2946 4.73436 85.4413Z" fill="black"/>
<path d="M122.476 70.3018C122.476 70.3018 123.623 71.7817 121.947 74.0016C120.27 76.2215 118.887 78.1063 119.447 79.4948C119.447 79.4948 121.977 75.3604 124.035 75.3026C126.094 75.2447 124.741 72.7867 122.476 70.3018Z" fill="#8E87FF"/>
<path opacity="0.1" d="M122.476 70.3018C122.576 70.4443 122.655 70.6002 122.71 70.7646C124.72 73.084 125.788 75.2487 123.859 75.3039C122.06 75.355 119.903 78.5153 119.386 79.3145C119.403 79.3761 119.423 79.4368 119.447 79.4961C119.447 79.4961 121.977 75.3618 124.035 75.3039C126.094 75.2461 124.741 72.7867 122.476 70.3018Z" fill="black"/>
<path d="M124.609 72.1799C124.609 72.6993 124.55 73.1217 124.472 73.1217C124.394 73.1217 124.335 72.7006 124.335 72.1799C124.335 71.6593 124.409 71.9109 124.481 71.9109C124.554 71.9109 124.609 71.662 124.609 72.1799Z" fill="#FFD037"/>
<path d="M125.341 72.8001C124.877 73.049 124.473 73.2037 124.439 73.1351C124.405 73.0665 124.751 72.8189 125.215 72.5714C125.679 72.3238 125.496 72.5041 125.531 72.5714C125.567 72.6386 125.804 72.5512 125.341 72.8001Z" fill="#FFD037"/>
<path d="M116.418 70.3018C116.418 70.3018 115.271 71.7817 116.948 74.0016C118.625 76.2215 120.007 78.1063 119.447 79.4948C119.447 79.4948 116.918 75.3604 114.859 75.3026C112.801 75.2447 114.153 72.7867 116.418 70.3018Z" fill="#8E87FF"/>
<path opacity="0.1" d="M116.418 70.3018C116.318 70.4443 116.24 70.6002 116.184 70.7646C114.175 73.084 113.106 75.2487 115.036 75.3039C116.834 75.355 118.991 78.5153 119.509 79.3145C119.492 79.3761 119.471 79.4368 119.447 79.4961C119.447 79.4961 116.918 75.3618 114.859 75.3039C112.801 75.2461 114.153 72.7867 116.418 70.3018Z" fill="black"/>
<path d="M114.286 72.1799C114.286 72.6993 114.345 73.1217 114.423 73.1217C114.501 73.1217 114.56 72.7006 114.56 72.1799C114.56 71.6593 114.486 71.9109 114.413 71.9109C114.341 71.9109 114.286 71.662 114.286 72.1799Z" fill="#FFD037"/>
<path d="M113.554 72.8001C114.018 73.049 114.421 73.2037 114.456 73.1351C114.49 73.0665 114.143 72.8189 113.679 72.5714C113.215 72.3238 113.399 72.5041 113.363 72.5714C113.328 72.6386 113.09 72.5512 113.554 72.8001Z" fill="#FFD037"/>
<path d="M114.651 79.3013C114.651 79.3013 117.858 79.2044 118.824 78.5277C119.791 77.851 123.752 77.0478 123.997 78.1241C124.242 79.2004 128.816 83.5204 125.196 83.5487C121.576 83.5769 116.784 82.9944 115.819 82.4172C114.854 81.84 114.651 79.3013 114.651 79.3013Z" fill="#A8A8A8"/>
<path opacity="0.2" d="M125.26 83.1758C121.64 83.204 116.848 82.6215 115.883 82.0443C115.148 81.6043 114.855 80.0262 114.758 79.2983H114.651C114.651 79.2983 114.854 81.8411 115.819 82.4183C116.784 82.9955 121.576 83.5794 125.196 83.5498C126.242 83.5417 126.602 83.1758 126.582 82.6349C126.437 82.9645 126.044 83.169 125.26 83.1758Z" fill="black"/>
<path opacity="0.5" d="M24.3411 10.0419H23.4816C23.563 10.0457 23.6443 10.0333 23.7207 10.0053C23.7971 9.97728 23.8668 9.93434 23.9258 9.87906C23.9848 9.82377 24.0318 9.7573 24.0639 9.68365C24.096 9.61001 24.1125 9.53073 24.1125 9.45061C24.1125 9.3705 24.096 9.29122 24.0639 9.21757C24.0318 9.14393 23.9848 9.07745 23.9258 9.02217C23.8668 8.96688 23.7971 8.92395 23.7207 8.89596C23.6443 8.86796 23.563 8.8555 23.4816 8.85932H16.5176C16.363 8.86657 16.2172 8.93203 16.1104 9.04212C16.0036 9.15222 15.944 9.2985 15.944 9.45061C15.944 9.60273 16.0036 9.74901 16.1104 9.8591C16.2172 9.9692 16.363 10.0347 16.5176 10.0419H17.3771C17.2225 10.0492 17.0767 10.1146 16.97 10.2247C16.8632 10.3348 16.8036 10.4811 16.8036 10.6332C16.8036 10.7853 16.8632 10.9316 16.97 11.0417C17.0767 11.1518 17.2225 11.2173 17.3771 11.2245H16.174C16.0194 11.2318 15.8736 11.2972 15.7669 11.4073C15.6601 11.5174 15.6005 11.6637 15.6005 11.8158C15.6005 11.9679 15.6601 12.1142 15.7669 12.2243C15.8736 12.3344 16.0194 12.3998 16.174 12.4071H23.138C23.2194 12.4109 23.3008 12.3985 23.3771 12.3705C23.4535 12.3425 23.5233 12.2995 23.5823 12.2442C23.6413 12.189 23.6882 12.1225 23.7203 12.0488C23.7524 11.9752 23.7689 11.8959 23.7689 11.8158C23.7689 11.7357 23.7524 11.6564 23.7203 11.5828C23.6882 11.5091 23.6413 11.4426 23.5823 11.3874C23.5233 11.3321 23.4535 11.2891 23.3771 11.2611C23.3008 11.2332 23.2194 11.2207 23.138 11.2245H24.3411C24.4957 11.2173 24.6415 11.1518 24.7483 11.0417C24.8551 10.9316 24.9146 10.7853 24.9146 10.6332C24.9146 10.4811 24.8551 10.3348 24.7483 10.2247C24.6415 10.1146 24.4957 10.0492 24.3411 10.0419Z" fill="#DEE3F3"/>
</g>
<defs>
<linearGradient id="paint0_linear" x1="63.0291" y1="73.1567" x2="63.0291" y2="17.4577" gradientUnits="userSpaceOnUse">
<stop stop-color="#808080" stop-opacity="0.25"/>
<stop offset="0.54" stop-color="#808080" stop-opacity="0.12"/>
<stop offset="1" stop-color="#808080" stop-opacity="0.1"/>
</linearGradient>
<linearGradient id="paint1_linear" x1="52.5705" y1="63.7878" x2="52.5705" y2="63.7814" gradientUnits="userSpaceOnUse">
<stop stop-color="#808080" stop-opacity="0.25"/>
<stop offset="0.54" stop-color="#808080" stop-opacity="0.12"/>
<stop offset="1" stop-color="#808080" stop-opacity="0.1"/>
</linearGradient>
<linearGradient id="paint2_linear" x1="8813.88" y1="27203.6" x2="8813.88" y2="12196.7" gradientUnits="userSpaceOnUse">
<stop stop-color="#808080" stop-opacity="0.25"/>
<stop offset="0.54" stop-color="#808080" stop-opacity="0.12"/>
<stop offset="1" stop-color="#808080" stop-opacity="0.1"/>
</linearGradient>
<linearGradient id="paint3_linear" x1="24828.7" y1="32976" x2="24828.7" y2="10688.5" gradientUnits="userSpaceOnUse">
<stop stop-color="#808080" stop-opacity="0.25"/>
<stop offset="0.54" stop-color="#808080" stop-opacity="0.12"/>
<stop offset="1" stop-color="#808080" stop-opacity="0.1"/>
</linearGradient>
<clipPath id="clip0">
<rect width="130" height="89" fill="white"/>
</clipPath>
</defs>
</svg>
