<svg width="200" height="200" viewBox="0 0 124 75" fill="none" xmlns="http://www.w3.org/2000/svg">
<g opacity="0.8" clip-path="url(#clip0)">
<path d="M8.13112 54.9143L7.38649 51.9654C6.06615 51.4036 4.71531 50.917 3.34039 50.5079L3.24637 51.8784L2.86512 50.3685C1.16 49.8797 0 49.6643 0 49.6643C0 49.6643 1.56689 55.6469 4.85333 60.2207L8.68274 60.8961L5.70777 61.3268C6.12135 61.8263 6.5658 62.2993 7.03851 62.7428C11.8193 67.1985 17.1443 69.2428 18.9321 67.3088C20.72 65.3749 18.2936 60.1951 13.5128 55.7394C12.0307 54.3581 10.1689 53.2496 8.30517 52.3772L8.13112 54.9143Z" fill="#E6E6E6"/>
<path d="M15.2131 51.7119L16.0938 48.801C15.2528 47.6348 14.3469 46.5172 13.3805 45.4534L12.5945 46.5778L13.0454 45.0874C11.8374 43.784 10.9553 42.9976 10.9553 42.9976C10.9553 42.9976 9.21669 48.9322 9.6754 54.5532L12.6059 57.1189L9.83744 55.9435C9.93431 56.5858 10.0713 57.2213 10.2477 57.8463C12.0464 64.1419 15.5524 68.6555 18.0785 67.9279C20.6046 67.2003 21.1941 61.5069 19.3953 55.2113C18.8377 53.2597 17.8145 51.3444 16.6682 49.6304L15.2131 51.7119Z" fill="#E6E6E6"/>
<path d="M124 68.366H0.011261V68.6801H124V68.366Z" fill="#3F3D56"/>
<path d="M19.6005 35.8357C19.6005 35.8357 18.635 47.4926 18.4277 49.9905C18.2855 51.5563 17.9369 53.0963 17.3911 54.57C17.3911 54.57 16.9765 55.4026 16.9765 56.2352V66.8512C16.9765 66.8512 16.1472 66.8512 16.3545 67.6839C16.5618 68.5165 16.7692 69.9736 16.7692 69.9736H19.8789C19.8789 69.9736 19.6716 69.3491 20.2935 69.141C20.9154 68.9328 20.2935 67.2676 20.2935 67.2676L23.6105 54.7781L28.5861 44.3703C28.5861 44.3703 31.4885 53.7374 32.1104 54.7781C32.1104 54.7781 34.3908 66.4349 34.8055 67.4757C35.2201 68.5165 35.4274 68.5165 35.2201 68.9328C35.0128 69.3491 35.0128 69.7654 35.2201 69.9736C35.4274 70.1817 39.3664 69.9736 39.3664 69.9736L38.3298 55.1944L36.464 37.5011L26.9275 34.5869L19.6005 35.8357Z" fill="#2F2E41"/>
<path d="M19.0496 68.3083C19.0496 68.3083 18.0131 64.5615 16.3545 67.4757C14.696 70.3899 14.696 71.4307 14.696 71.4307C14.696 71.4307 12.0009 75.3857 15.7326 74.9693C19.4642 74.553 18.635 72.6796 18.635 72.6796C18.635 72.6796 20.0862 71.847 20.0862 71.2225C20.0862 70.5981 19.0496 68.3083 19.0496 68.3083Z" fill="#2F2E41"/>
<path d="M35.842 67.8918C35.842 67.8918 36.8786 64.145 38.5371 67.0592C40.1957 69.9734 40.1956 71.0142 40.1956 71.0142C40.1956 71.0142 42.8907 74.9692 39.1591 74.5529C35.4274 74.1365 36.2567 72.2631 36.2567 72.2631C36.2567 72.2631 34.8055 71.4305 34.8055 70.806C34.8055 70.1816 35.842 67.8918 35.842 67.8918Z" fill="#2F2E41"/>
<path d="M26.0983 7.73462C26.0983 7.73462 26.5129 10.4407 25.2691 11.0651C24.0252 11.6896 27.9641 13.9793 29.0007 13.9793C30.0373 13.9793 31.9031 11.8978 31.9031 11.8978C31.9031 11.8978 30.8665 8.7754 31.0738 8.15093L26.0983 7.73462Z" fill="#A0616A"/>
<path d="M28.3787 9.81607C30.7832 9.81607 32.7323 7.85898 32.7323 5.44478C32.7323 3.03058 30.7832 1.07349 28.3787 1.07349C25.9743 1.07349 24.0251 3.03058 24.0251 5.44478C24.0251 7.85898 25.9743 9.81607 28.3787 9.81607Z" fill="#A0616A"/>
<path d="M36.8786 14.3956L31.6959 11.2428C31.6959 11.2428 28.7471 14.6038 25.5569 10.8569L20.0862 12.314L20.9155 26.4687C20.9155 26.4687 19.6716 32.0889 20.0862 33.1297C20.5008 34.1705 19.0496 34.5868 19.4643 34.795C19.8789 35.0031 19.4643 36.4602 19.4643 36.4602C19.4643 36.4602 27.5495 40.6234 36.464 37.501L35.6347 34.795C35.7476 34.4412 35.7688 34.0644 35.6962 33.7002C35.6237 33.336 35.4598 32.9963 35.2201 32.7134C35.2201 32.7134 36.0494 31.4645 35.0128 30.4237C35.0128 30.4237 35.4274 28.5503 34.3909 27.7176L34.1835 24.8034L34.8055 23.3463L36.8786 14.3956Z" fill="#CFCCE0"/>
<path d="M26.1507 3.41518C26.1507 3.41518 25.6317 4.543 27.7078 4.09187C27.7078 4.09187 28.4864 4.54301 28.4864 3.86631C28.4864 3.86631 29.5245 4.99414 29.784 4.31744C30.0435 3.64075 30.5625 4.543 30.5625 4.543L31.0816 3.41518L31.6006 4.09187H33.4172C33.4172 4.09187 33.9363 -0.419418 27.7078 0.0317121C21.4794 0.482842 24.5435 7.63054 24.5435 7.63054C24.5435 7.63054 24.5936 6.34752 25.1126 7.02422C25.6317 7.70091 26.1507 3.41518 26.1507 3.41518Z" fill="#2F2E41"/>
<path d="M38.7445 22.7219L38.9518 27.0932C38.9518 27.0932 39.781 35.2113 38.1225 38.75V40.6234C38.1225 40.6234 37.7079 45.411 35.6347 45.2029C33.5616 44.9947 36.2567 38.3337 36.2567 38.3337L35.8421 29.1748L35.4274 23.9709L38.7445 22.7219Z" fill="#A0616A"/>
<path d="M34.5982 14.6037L36.6662 14.2664C38.156 15.7035 39.1708 17.565 39.5737 19.5995C40.1957 22.93 40.403 23.5545 40.403 23.5545L35.4274 24.8034L32.7324 19.5995L34.5982 14.6037Z" fill="#CFCCE0"/>
<path d="M58.4098 12.2283H25.6937V28.5462H58.4098V12.2283Z" fill="white"/>
<path d="M29.2661 13.2097C28.4256 12.7022 27.4121 12.7409 27.0269 12.7797C27.1736 13.1394 27.6138 14.0567 28.4543 14.5645C29.2969 15.0733 30.309 15.0334 30.6937 14.9949C30.547 14.6353 30.1067 13.7176 29.2661 13.2097Z" fill="#8E87FF" fill-opacity="0.54"/>
<path d="M33.2157 23.28H27.9625C27.8071 23.2799 27.6533 23.3104 27.5098 23.37C27.3662 23.4296 27.2357 23.517 27.1259 23.6272C27.016 23.7374 26.9288 23.8683 26.8693 24.0124C26.8098 24.1564 26.7792 24.3109 26.7792 24.4668C26.7792 24.6228 26.8098 24.7772 26.8693 24.9213C26.9288 25.0654 27.016 25.1962 27.1259 25.3065C27.2357 25.4167 27.3662 25.5041 27.5098 25.5636C27.6533 25.6232 27.8071 25.6538 27.9625 25.6536H33.2157C33.3711 25.6538 33.5249 25.6232 33.6685 25.5636C33.812 25.5041 33.9425 25.4167 34.0524 25.3065C34.1623 25.1962 34.2494 25.0654 34.3089 24.9213C34.3684 24.7772 34.399 24.6228 34.399 24.4668C34.399 24.3109 34.3684 24.1564 34.3089 24.0124C34.2494 23.8683 34.1623 23.7374 34.0524 23.6272C33.9425 23.517 33.812 23.4296 33.6685 23.37C33.5249 23.3104 33.3711 23.2799 33.2157 23.28Z" fill="#010101"/>
<path d="M57.0044 10.7529H27.5509C27.2083 10.7529 26.869 10.8207 26.5525 10.9523C26.2359 11.084 25.9483 11.2769 25.706 11.5202C25.4638 11.7635 25.2716 12.0523 25.1405 12.3701C25.0093 12.6879 24.9419 13.0286 24.9419 13.3726V27.7812C24.9419 28.476 25.2167 29.1423 25.706 29.6336C26.1953 30.1249 26.859 30.4009 27.5509 30.4009H57.0044C57.6963 30.4009 58.36 30.1249 58.8492 29.6336C59.3385 29.1423 59.6134 28.476 59.6134 27.7812V13.3726C59.6134 13.0286 59.5459 12.6879 59.4148 12.3701C59.2837 12.0523 59.0915 11.7635 58.8492 11.5202C58.607 11.2769 58.3194 11.084 58.0028 10.9523C57.6863 10.8207 57.347 10.7529 57.0044 10.7529ZM26.8222 12.5399C26.8803 12.5294 28.2595 12.2937 29.4016 12.9837C30.5435 13.6735 30.9823 15.0075 31.0004 15.0639L31.0465 15.2078L30.8983 15.2342C30.6869 15.2673 30.4732 15.2831 30.2592 15.2813C29.5804 15.2943 28.9105 15.1248 28.3189 14.7903C27.1769 14.1006 26.7382 12.7666 26.7202 12.7102L26.674 12.5663L26.8222 12.5399ZM33.2158 25.9175H27.9625C27.5793 25.9175 27.2119 25.7646 26.941 25.4926C26.67 25.2206 26.5178 24.8517 26.5178 24.4669C26.5178 24.0822 26.67 23.7133 26.941 23.4413C27.2119 23.1693 27.5793 23.0164 27.9625 23.0164H33.2158C33.5989 23.0164 33.9664 23.1693 34.2373 23.4413C34.5082 23.7133 34.6604 24.0822 34.6604 24.4669C34.6604 24.8517 34.5082 25.2206 34.2373 25.4926C33.9664 25.7646 33.5989 25.9175 33.2158 25.9175ZM57.1181 25.6537C57.1169 26.073 56.9505 26.4748 56.6552 26.7713C56.3599 27.0678 55.9597 27.2349 55.5421 27.2361H51.6022C51.1846 27.2349 50.7844 27.0678 50.4891 26.7713C50.1939 26.4748 50.0274 26.073 50.0262 25.6537V23.2802C50.0274 22.8609 50.1939 22.4591 50.4891 22.1626C50.7844 21.8661 51.1846 21.699 51.6022 21.6978H55.5421C55.9597 21.699 56.3599 21.8661 56.6552 22.1626C56.9505 22.4591 57.1169 22.8609 57.1181 23.2802V25.6537Z" fill="#ACE2FA" fill-opacity="0.8"/>
<path d="M52.8498 25.1921H51.1425C51.0206 25.1921 50.9037 25.2408 50.8175 25.3273C50.7313 25.4139 50.6829 25.5313 50.6829 25.6537C50.6829 25.7761 50.7313 25.8935 50.8175 25.98C50.9037 26.0666 51.0206 26.1152 51.1425 26.1152H52.8498C52.9717 26.1152 53.0887 26.0666 53.1749 25.98C53.2611 25.8935 53.3095 25.7761 53.3095 25.6537C53.3095 25.5313 53.2611 25.4139 53.1749 25.3273C53.0887 25.2408 52.9717 25.1921 52.8498 25.1921ZM52.8498 25.8515H51.1425C51.1166 25.8515 51.0909 25.8465 51.067 25.8366C51.043 25.8267 51.0212 25.8121 51.0029 25.7937C50.9845 25.7753 50.97 25.7535 50.96 25.7295C50.9501 25.7055 50.945 25.6797 50.945 25.6537C50.945 25.6276 50.9501 25.6019 50.96 25.5779C50.97 25.5538 50.9845 25.532 51.0029 25.5136C51.0212 25.4952 51.043 25.4807 51.067 25.4708C51.0909 25.4609 51.1166 25.4558 51.1425 25.4559H52.8498C52.902 25.456 52.952 25.4769 52.9888 25.514C53.0256 25.5511 53.0463 25.6013 53.0463 25.6537C53.0463 25.706 53.0256 25.7563 52.9888 25.7934C52.952 25.8304 52.902 25.8513 52.8498 25.8515Z" fill="#8E87FF"/>
<path d="M56.0018 25.1921H54.2945C54.1726 25.1921 54.0556 25.2408 53.9694 25.3273C53.8832 25.4139 53.8348 25.5313 53.8348 25.6537C53.8348 25.7761 53.8832 25.8935 53.9694 25.98C54.0556 26.0666 54.1726 26.1152 54.2945 26.1152H56.0018C56.1237 26.1152 56.2406 26.0666 56.3268 25.98C56.413 25.8935 56.4614 25.7761 56.4614 25.6537C56.4614 25.5313 56.413 25.4139 56.3268 25.3273C56.2406 25.2408 56.1237 25.1921 56.0018 25.1921ZM56.0018 25.8515H54.2945C54.2686 25.8515 54.2429 25.8465 54.2189 25.8366C54.195 25.8267 54.1732 25.8121 54.1548 25.7937C54.1365 25.7753 54.1219 25.7535 54.112 25.7295C54.1021 25.7055 54.097 25.6797 54.097 25.6537C54.097 25.6276 54.1021 25.6019 54.112 25.5779C54.1219 25.5538 54.1365 25.532 54.1548 25.5136C54.1732 25.4952 54.195 25.4807 54.2189 25.4708C54.2429 25.4609 54.2686 25.4558 54.2945 25.4559H56.0018C56.0539 25.456 56.1039 25.4769 56.1408 25.514C56.1776 25.5511 56.1983 25.6013 56.1983 25.6537C56.1983 25.706 56.1776 25.7563 56.1408 25.7934C56.1039 25.8304 56.0539 25.8513 56.0018 25.8515Z" fill="#8E87FF"/>
<path d="M52.8498 24.0054H51.1425C51.0206 24.0054 50.9037 24.054 50.8175 24.1406C50.7313 24.2271 50.6829 24.3445 50.6829 24.4669C50.6829 24.5893 50.7313 24.7067 50.8175 24.7933C50.9037 24.8798 51.0206 24.9284 51.1425 24.9284H52.8498C52.9717 24.9284 53.0887 24.8798 53.1749 24.7933C53.2611 24.7067 53.3095 24.5893 53.3095 24.4669C53.3095 24.3445 53.2611 24.2271 53.1749 24.1406C53.0887 24.054 52.9717 24.0054 52.8498 24.0054ZM52.8498 24.6647H51.1425C51.1167 24.6647 51.091 24.6596 51.0671 24.6496C51.0432 24.6397 51.0215 24.6251 51.0032 24.6068C50.9849 24.5884 50.9704 24.5666 50.9605 24.5426C50.9506 24.5186 50.9455 24.4929 50.9455 24.4669C50.9455 24.4409 50.9506 24.4152 50.9605 24.3912C50.9704 24.3672 50.9849 24.3454 51.0032 24.327C51.0215 24.3087 51.0432 24.2941 51.0671 24.2842C51.091 24.2742 51.1167 24.2691 51.1425 24.2691H52.8498C52.8757 24.2691 52.9013 24.2742 52.9252 24.2842C52.9491 24.2941 52.9708 24.3087 52.9891 24.327C53.0074 24.3454 53.0219 24.3672 53.0318 24.3912C53.0417 24.4152 53.0468 24.4409 53.0468 24.4669C53.0468 24.4929 53.0417 24.5186 53.0318 24.5426C53.0219 24.5666 53.0074 24.5884 52.9891 24.6068C52.9708 24.6251 52.9491 24.6397 52.9252 24.6496C52.9013 24.6596 52.8757 24.6647 52.8498 24.6647Z" fill="#8E87FF"/>
<path d="M56.0018 24.0054H54.2945C54.1726 24.0054 54.0556 24.054 53.9694 24.1406C53.8832 24.2271 53.8348 24.3445 53.8348 24.4669C53.8348 24.5893 53.8832 24.7067 53.9694 24.7933C54.0556 24.8798 54.1726 24.9284 54.2945 24.9284H56.0018C56.1237 24.9284 56.2406 24.8798 56.3268 24.7933C56.413 24.7067 56.4614 24.5893 56.4614 24.4669C56.4614 24.3445 56.413 24.2271 56.3268 24.1406C56.2406 24.054 56.1237 24.0054 56.0018 24.0054ZM56.0018 24.6647H54.2945C54.2686 24.6647 54.243 24.6596 54.2191 24.6496C54.1952 24.6397 54.1735 24.6251 54.1552 24.6068C54.1369 24.5884 54.1224 24.5666 54.1125 24.5426C54.1026 24.5186 54.0975 24.4929 54.0975 24.4669C54.0975 24.4409 54.1026 24.4152 54.1125 24.3912C54.1224 24.3672 54.1369 24.3454 54.1552 24.327C54.1735 24.3087 54.1952 24.2941 54.2191 24.2842C54.243 24.2742 54.2686 24.2691 54.2945 24.2691H56.0018C56.0277 24.2691 56.0533 24.2742 56.0772 24.2842C56.1011 24.2941 56.1228 24.3087 56.1411 24.327C56.1594 24.3454 56.1739 24.3672 56.1838 24.3912C56.1937 24.4152 56.1988 24.4409 56.1988 24.4669C56.1988 24.4929 56.1937 24.5186 56.1838 24.5426C56.1739 24.5666 56.1594 24.5884 56.1411 24.6068C56.1228 24.6251 56.1011 24.6397 56.0772 24.6496C56.0533 24.6596 56.0277 24.6647 56.0018 24.6647Z" fill="#8E87FF"/>
<path d="M52.8498 22.8186H51.1425C51.0206 22.8186 50.9037 22.8672 50.8175 22.9538C50.7313 23.0403 50.6829 23.1577 50.6829 23.2801C50.6829 23.4025 50.7313 23.5199 50.8175 23.6065C50.9037 23.693 51.0206 23.7417 51.1425 23.7417H52.8498C52.9717 23.7417 53.0887 23.693 53.1749 23.6065C53.2611 23.5199 53.3095 23.4025 53.3095 23.2801C53.3095 23.1577 53.2611 23.0403 53.1749 22.9538C53.0887 22.8672 52.9717 22.8186 52.8498 22.8186ZM52.8498 23.4779H51.1425C51.1166 23.478 51.0909 23.4729 51.067 23.463C51.043 23.4531 51.0212 23.4386 51.0029 23.4202C50.9845 23.4018 50.97 23.38 50.96 23.3559C50.9501 23.3319 50.945 23.3062 50.945 23.2801C50.945 23.2541 50.9501 23.2284 50.96 23.2043C50.97 23.1803 50.9845 23.1585 51.0029 23.1401C51.0212 23.1217 51.043 23.1071 51.067 23.0972C51.0909 23.0873 51.1166 23.0823 51.1425 23.0823H52.8498C52.902 23.0825 52.952 23.1034 52.9888 23.1405C53.0256 23.1775 53.0463 23.2278 53.0463 23.2801C53.0463 23.3325 53.0256 23.3827 52.9888 23.4198C52.952 23.4569 52.902 23.4778 52.8498 23.4779Z" fill="#8E87FF"/>
<path d="M56.0018 22.8186H54.2945C54.1726 22.8186 54.0556 22.8672 53.9694 22.9538C53.8832 23.0403 53.8348 23.1577 53.8348 23.2801C53.8348 23.4025 53.8832 23.5199 53.9694 23.6065C54.0556 23.693 54.1726 23.7417 54.2945 23.7417H56.0018C56.1237 23.7417 56.2406 23.693 56.3268 23.6065C56.413 23.5199 56.4614 23.4025 56.4614 23.2801C56.4614 23.1577 56.413 23.0403 56.3268 22.9538C56.2406 22.8672 56.1237 22.8186 56.0018 22.8186ZM56.0018 23.4779H54.2945C54.2686 23.478 54.2429 23.4729 54.2189 23.463C54.195 23.4531 54.1732 23.4386 54.1548 23.4202C54.1365 23.4018 54.1219 23.38 54.112 23.3559C54.1021 23.3319 54.097 23.3062 54.097 23.2801C54.097 23.2541 54.1021 23.2284 54.112 23.2043C54.1219 23.1803 54.1365 23.1585 54.1548 23.1401C54.1732 23.1217 54.195 23.1071 54.2189 23.0972C54.2429 23.0873 54.2686 23.0823 54.2945 23.0823H56.0018C56.0539 23.0825 56.1039 23.1034 56.1408 23.1405C56.1776 23.1775 56.1983 23.2278 56.1983 23.2801C56.1983 23.3325 56.1776 23.3827 56.1408 23.4198C56.1039 23.4569 56.0539 23.4778 56.0018 23.4779Z" fill="#8E87FF"/>
<path d="M16.9765 20.224C16.9765 20.224 15.1107 28.134 17.3911 28.134C19.6716 28.134 25.0617 19.1832 25.0617 19.1832C25.0617 19.1832 30.6592 16.269 28.3787 15.2283C26.0983 14.1875 23.1959 16.8935 23.1959 16.8935L19.8469 21.562L19.6716 19.1832L16.9765 20.224Z" fill="#A0616A"/>
<path d="M21.3301 13.5632L20.0862 12.3142C20.0862 12.3142 17.5984 13.7713 17.3911 15.2284C17.1838 16.6855 16.1472 21.265 16.1472 21.265L19.9825 21.5772L21.2264 19.7038L21.3301 13.5632Z" fill="#CFCCE0"/>
<path d="M80.2553 10.602C80.0991 10.139 78.1406 8.56503 79.3407 8.30047L80.3249 9.6181L84.8497 5.07495L85.3048 5.53189L80.2553 10.602Z" fill="#8E87FF"/>
<path d="M80.2553 26.0505C80.0991 25.5875 78.1406 24.0135 79.3407 23.749L80.3249 25.0666L84.8497 20.5234L85.3048 20.9804L80.2553 26.0505Z" fill="#8E87FF"/>
<path d="M80.2553 41.72C80.0991 41.2569 78.1406 39.683 79.3407 39.4184L80.3249 40.736L84.8497 36.1929L85.3048 36.6498L80.2553 41.72Z" fill="#8E87FF"/>
<path d="M93.9609 10.1254C94.732 10.1254 95.3571 9.49776 95.3571 8.72348C95.3571 7.94921 94.732 7.32153 93.9609 7.32153C93.1897 7.32153 92.5646 7.94921 92.5646 8.72348C92.5646 9.49776 93.1897 10.1254 93.9609 10.1254Z" fill="#3F3D56"/>
<path d="M121.677 8.58325H99.1968V8.86364H121.677V8.58325Z" fill="#3F3D56"/>
<path d="M93.9609 25.5739C94.732 25.5739 95.3571 24.9462 95.3571 24.172C95.3571 23.3977 94.732 22.77 93.9609 22.77C93.1897 22.77 92.5646 23.3977 92.5646 24.172C92.5646 24.9462 93.1897 25.5739 93.9609 25.5739Z" fill="#3F3D56"/>
<path d="M121.677 24.0317H99.1968V24.3121H121.677V24.0317Z" fill="#3F3D56"/>
<path d="M93.9609 41.2431C94.732 41.2431 95.3571 40.6154 95.3571 39.8412C95.3571 39.0669 94.732 38.4392 93.9609 38.4392C93.1897 38.4392 92.5646 39.0669 92.5646 39.8412C92.5646 40.6154 93.1897 41.2431 93.9609 41.2431Z" fill="#3F3D56"/>
<path d="M121.677 39.7012H99.1968V39.9816H121.677V39.7012Z" fill="#3F3D56"/>
<path d="M83.7818 43.8089H76.8005V36.6589H81.5478V36.9393H77.0797V43.5285H83.5026V40.304H83.7818V43.8089Z" fill="#3F3D56"/>
<path d="M83.7818 28.107H76.8005V20.957H81.5478V21.2374H77.0797V27.8266H83.5026V24.6021H83.7818V28.107Z" fill="#3F3D56"/>
<path d="M83.7818 12.1248H76.8005V4.97485H81.5478V5.25524H77.0797V11.8444H83.5026V8.61992H83.7818V12.1248Z" fill="#3F3D56"/>
</g>
<defs>
<clipPath id="clip0">
<rect width="124" height="75" fill="white"/>
</clipPath>
</defs>
</svg>
