<svg width="105" height="99" viewBox="0 0 105 99" fill="none" xmlns="http://www.w3.org/2000/svg">
<path d="M84.1824 23.8966L58.8376 0H2.71692V99H84.1824V23.8966Z" fill="#EFEBDE"/>
<path d="M20.8207 39.2585H66.0793C67.0786 39.2585 67.8896 38.4955 67.8896 37.5516C67.8896 36.6077 67.0786 35.8447 66.0793 35.8447H20.8207C19.8213 35.8447 19.0103 36.6077 19.0103 37.5516C19.0103 38.4955 19.8213 39.2585 20.8207 39.2585Z" fill="#D5D0BB"/>
<path d="M20.8207 25.6033H38.9241C39.9234 25.6033 40.7345 24.8403 40.7345 23.8964C40.7345 22.9524 39.9234 22.1895 38.9241 22.1895H20.8207C19.8213 22.1895 19.0103 22.9524 19.0103 23.8964C19.0103 24.8403 19.8213 25.6033 20.8207 25.6033Z" fill="#D5D0BB"/>
<path d="M66.0793 49.5H20.8207C19.8213 49.5 19.0103 50.263 19.0103 51.2069C19.0103 52.1508 19.8213 52.9138 20.8207 52.9138H66.0793C67.0786 52.9138 67.8896 52.1508 67.8896 51.2069C67.8896 50.263 67.0786 49.5 66.0793 49.5Z" fill="#D5D0BB"/>
<path d="M66.0793 63.1553H20.8207C19.8213 63.1553 19.0103 63.9183 19.0103 64.8622C19.0103 65.8061 19.8213 66.5691 20.8207 66.5691H66.0793C67.0786 66.5691 67.8896 65.8061 67.8896 64.8622C67.8896 63.9183 67.0786 63.1553 66.0793 63.1553Z" fill="#D5D0BB"/>
<path d="M66.0793 76.8105H20.8207C19.8213 76.8105 19.0103 77.5735 19.0103 78.5174C19.0103 79.4613 19.8213 80.2243 20.8207 80.2243H66.0793C67.0786 80.2243 67.8896 79.4613 67.8896 78.5174C67.8896 77.5735 67.0786 76.8105 66.0793 76.8105Z" fill="#D5D0BB"/>
<path d="M58.8367 0V23.8966H84.1816L58.8367 0Z" fill="#D5D0BB"/>
<path d="M80.5609 98.9997C92.5588 98.9997 102.285 89.8293 102.285 78.5169C102.285 67.2046 92.5588 58.0342 80.5609 58.0342C68.563 58.0342 58.8367 67.2046 58.8367 78.5169C58.8367 89.8293 68.563 98.9997 80.5609 98.9997Z" fill="#71C386"/>
<path d="M91.4249 76.8097H82.3732V68.2753C82.3732 67.333 81.5622 66.5684 80.5629 66.5684C79.5635 66.5684 78.7525 67.333 78.7525 68.2753V76.8097H69.7008C68.7015 76.8097 67.8904 77.5744 67.8904 78.5166C67.8904 79.4588 68.7015 80.2235 69.7008 80.2235H78.7525V88.758C78.7525 89.7002 79.5635 90.4649 80.5629 90.4649C81.5622 90.4649 82.3732 89.7002 82.3732 88.758V80.2235H91.4249C92.4242 80.2235 93.2353 79.4588 93.2353 78.5166C93.2353 77.5744 92.4242 76.8097 91.4249 76.8097Z" fill="white"/>
</svg>
