<svg width="104" height="100" viewBox="0 0 104 100" fill="none" xmlns="http://www.w3.org/2000/svg">
<path d="M19.7212 50.0001H31.5467C32.3124 50.0001 32.9333 49.4031 32.9333 48.6668C32.9333 47.9305 32.3124 47.3335 31.5467 47.3335H19.7212C19.1149 45.2735 17.1461 43.7578 14.812 43.7578C11.9967 43.7578 9.70667 45.9598 9.70667 48.6668C9.70667 51.3738 11.9967 53.5761 14.812 53.5761C17.1461 53.5761 19.1149 52.0605 19.7212 50.0001ZM12.48 48.6668C12.48 47.4305 13.5262 46.4245 14.812 46.4245C16.0978 46.4245 17.1444 47.4305 17.1444 48.6668C17.1444 49.9031 16.0982 50.9095 14.812 50.9095C13.5259 50.9095 12.48 49.9031 12.48 48.6668Z" fill="#F50000"/>
<path d="M89.1876 43.7578C86.8535 43.7578 84.8851 45.2735 84.2788 47.3335H72.4533C71.6875 47.3335 71.0667 47.9305 71.0667 48.6668C71.0667 49.4031 71.6875 50.0001 72.4533 50.0001H84.2788C84.8851 52.0605 86.8539 53.5761 89.1876 53.5761C92.0029 53.5761 94.2933 51.3738 94.2933 48.6668C94.2933 45.9598 92.0029 43.7578 89.1876 43.7578ZM89.1876 50.9095C87.9018 50.9095 86.8556 49.9035 86.8556 48.6668C86.8556 47.4301 87.9018 46.4245 89.1876 46.4245C90.4734 46.4245 91.52 47.4305 91.52 48.6668C91.52 49.9031 90.4738 50.9095 89.1876 50.9095Z" fill="#006AFF"/>
<path d="M74.3829 63.1667C73.8414 62.6463 72.9637 62.646 72.4218 63.1667L72.1504 63.4277L69.8374 55.2733C69.7071 54.8137 69.3316 54.456 68.8525 54.3347L57.07 51.3533V51.0027C70.7304 48.2413 80.5643 36.6463 80.5643 23.1323V23.015H83.4167C84.1825 23.015 84.8034 22.418 84.8034 21.6817V13.8333C84.8034 13.097 84.1825 12.5 83.4167 12.5H75.0967C74.3309 12.5 73.71 13.097 73.71 13.8333V21.6817C73.71 22.418 74.3309 23.015 75.0967 23.015H77.791V23.1323C77.791 35.193 69.1528 45.5707 57.07 48.2767V43.1667C57.07 42.4303 56.4492 41.8333 55.6834 41.8333H44.59C43.8243 41.8333 43.2034 42.4303 43.2034 43.1667V49.1573C36.3643 49.9427 30.0564 53.0647 25.3961 57.9947C20.5886 63.081 17.9407 69.6703 17.9407 76.5487V77.8333H15.47C14.7043 77.8333 14.0834 78.4303 14.0834 79.1667V87.1667C14.0834 87.903 14.7043 88.5 15.47 88.5H23.79C24.5558 88.5 25.1767 87.903 25.1767 87.1667V79.1667C25.1767 78.4303 24.5558 77.8333 23.79 77.8333H20.7141V76.5487C20.7141 63.961 30.3285 53.4753 43.2034 51.8443V53.8637C43.2034 54.6 43.8243 55.197 44.59 55.197H49.6094L53.4318 69.163C53.558 69.6237 53.9299 69.9847 54.408 70.11L62.8881 72.334L62.6167 72.5947C62.3567 72.8447 62.2108 73.184 62.2108 73.5377C62.2108 73.8913 62.3567 74.2303 62.6171 74.4807L66.5389 78.2517C66.8096 78.512 67.1646 78.642 67.5196 78.642C67.8743 78.642 68.2292 78.5117 68.5003 78.2517L78.3055 68.8237C78.8469 68.303 78.8469 67.4587 78.3055 66.938L74.3829 63.1667ZM76.4834 15.1667H82.03V20.3483H76.4834V15.1667ZM22.4034 85.8333H16.8567V80.5H22.4034V85.8333ZM45.9767 52.5303V44.5H54.2967V50.6517L50.223 49.6207C49.7457 49.4997 49.2385 49.632 48.8894 49.9673C48.5406 50.3027 48.4034 50.791 48.5289 51.2497L48.8793 52.5303H45.9767ZM55.9097 67.7397L52.5162 55.3403L58.8647 61.4447C58.6006 61.9763 58.4567 62.56 58.4567 63.1667C58.4567 64.2353 58.8893 65.2397 59.6752 65.995C60.4611 66.7507 61.5056 67.1667 62.6167 67.1667C63.7278 67.1667 64.7726 66.7507 65.5582 65.995C67.1802 64.4353 67.1802 61.8977 65.5582 60.3383C64.7723 59.5827 63.7278 59.1667 62.6167 59.1667C61.9858 59.1667 61.3788 59.305 60.8262 59.559L54.4777 53.4547L67.3726 56.7177L69.8918 65.5993L65.1467 70.162L55.9097 67.7397ZM67.5193 75.4233L65.5582 73.5377L66.5593 72.575C66.5597 72.5747 66.56 72.5743 66.56 72.5743L73.4022 65.9953L75.3633 67.881L67.5193 75.4233Z" fill="black"/>
<path d="M48.5333 21.9997C49.2991 21.9997 49.9199 21.4027 49.9199 20.6663V16.6663C49.9199 15.93 49.2991 15.333 48.5333 15.333C47.7675 15.333 47.1466 15.93 47.1466 16.6663V20.6663C47.1466 21.4027 47.7675 21.9997 48.5333 21.9997Z" fill="#FFF500"/>
<path d="M48.5333 24.667C47.7675 24.667 47.1466 25.264 47.1466 26.0003V30.0003C47.1466 30.7367 47.7675 31.3337 48.5333 31.3337C49.2991 31.3337 49.9199 30.7367 49.9199 30.0003V26.0003C49.9199 25.264 49.2991 24.667 48.5333 24.667Z" fill="#FFF500"/>
<path d="M41.5999 24.6667H45.7599C46.5257 24.6667 47.1466 24.0697 47.1466 23.3333C47.1466 22.597 46.5257 22 45.7599 22H41.5999C40.8341 22 40.2133 22.597 40.2133 23.3333C40.2133 24.0697 40.8341 24.6667 41.5999 24.6667Z" fill="#FFF500"/>
<path d="M51.3067 24.6667H55.4667C56.2325 24.6667 56.8534 24.0697 56.8534 23.3333C56.8534 22.597 56.2325 22 55.4667 22H51.3067C50.5409 22 49.92 22.597 49.92 23.3333C49.92 24.0697 50.5409 24.6667 51.3067 24.6667Z" fill="#FFF500"/>
<path d="M15.9467 26.0003C18.623 26.0003 20.8001 23.907 20.8001 21.3337C20.8001 18.7603 18.623 16.667 15.9467 16.667C13.2705 16.667 11.0934 18.7603 11.0934 21.3337C11.0934 23.907 13.2705 26.0003 15.9467 26.0003ZM15.9467 19.3337C17.0938 19.3337 18.0267 20.2307 18.0267 21.3337C18.0267 22.4367 17.0938 23.3337 15.9467 23.3337C14.7996 23.3337 13.8667 22.4367 13.8667 21.3337C13.8667 20.2307 14.7996 19.3337 15.9467 19.3337Z" fill="#FF2020"/>
<path d="M38.1332 71.333C35.457 71.333 33.2799 73.4263 33.2799 75.9997C33.2799 78.573 35.457 80.6663 38.1332 80.6663C40.8095 80.6663 42.9866 78.573 42.9866 75.9997C42.9866 73.4263 40.8095 71.333 38.1332 71.333ZM38.1332 77.9997C36.9861 77.9997 36.0532 77.1027 36.0532 75.9997C36.0532 74.8967 36.9861 73.9997 38.1332 73.9997C39.2804 73.9997 40.2132 74.8967 40.2132 75.9997C40.2132 77.1027 39.2804 77.9997 38.1332 77.9997Z" fill="#FB33CF"/>
<path d="M34.6666 13.9997C35.4324 13.9997 36.0532 13.4027 36.0532 12.6663C36.0532 11.93 35.4324 11.333 34.6666 11.333C33.9007 11.333 33.2799 11.93 33.2799 12.6663C33.2799 13.4027 33.9007 13.9997 34.6666 13.9997Z" fill="black"/>
<path d="M30.5065 37.9997C31.2724 37.9997 31.8932 37.4027 31.8932 36.6663C31.8932 35.93 31.2724 35.333 30.5065 35.333C29.7407 35.333 29.1199 35.93 29.1199 36.6663C29.1199 37.4027 29.7407 37.9997 30.5065 37.9997Z" fill="black"/>
<path d="M58.2401 88.6667C59.0059 88.6667 59.6267 88.0697 59.6267 87.3333C59.6267 86.597 59.0059 86 58.2401 86C57.4742 86 56.8534 86.597 56.8534 87.3333C56.8534 88.0697 57.4742 88.6667 58.2401 88.6667Z" fill="black"/>
<path d="M90.1334 71.3337C90.8992 71.3337 91.5201 70.7367 91.5201 70.0003C91.5201 69.264 90.8992 68.667 90.1334 68.667C89.3675 68.667 88.7467 69.264 88.7467 70.0003C88.7467 70.7367 89.3675 71.3337 90.1334 71.3337Z" fill="black"/>
</svg>
