<?xml version="1.0" encoding="iso-8859-1"?>
<!-- Generator: Adobe Illustrator 19.0.0, SVG Export Plug-In . SVG Version: 6.00 Build 0)  -->
<svg version="1.1" id="Capa_1" xmlns="http://www.w3.org/2000/svg" xmlns:xlink="http://www.w3.org/1999/xlink" x="0px" y="0px"
	 viewBox="0 0 512 512" style="enable-background:new 0 0 512 512;" xml:space="preserve">
<path style="fill:#78B9EB;" d="M426.667,512H85.333C73.551,512,64,502.449,64,490.667V21.333C64,9.551,73.551,0,85.333,0h245.333
	L448,117.333v373.333C448,502.449,438.449,512,426.667,512z"/>
<path style="fill:#679FC9;" d="M330.667,0v96c0,11.782,9.551,21.333,21.333,21.333h96L330.667,0z"/>
<path style="fill:#FFEB99;" d="M138.667,192v213.333c0,5.891,4.776,10.667,10.667,10.667h213.333
	c5.891,0,10.667-4.776,10.667-10.667V224l-42.667-42.667H149.333C143.442,181.333,138.667,186.109,138.667,192z"/>
<path style="fill:#FBB040;" d="M181.333,181.333h149.333l0,0v85.333c0,5.891-4.776,10.667-10.667,10.667H192
	c-5.891,0-10.667-4.776-10.667-10.667V181.333L181.333,181.333z"/>
<g>
	<path style="fill:#FFFFFF;" d="M128,64h21.333v21.333H128V64z"/>
	<path style="fill:#FFFFFF;" d="M170.667,64h42.667v21.333h-42.667V64z"/>
	<path style="fill:#FFFFFF;" d="M128,106.667h85.333V128H128V106.667z"/>
</g>
<path style="fill:#FBB040;" d="M181.333,298.667h149.333c5.891,0,10.667,4.776,10.667,10.667V416l0,0H170.667l0,0V309.333
	C170.667,303.442,175.442,298.667,181.333,298.667z"/>
<g>
	<path style="fill:#FFFFFF;" d="M213.333,330.667h85.333V352h-85.333V330.667z"/>
	<path style="fill:#FFFFFF;" d="M213.333,362.667h85.333V384h-85.333V362.667z"/>
</g>
<path style="fill:#FFE477;" d="M234.667,181.333h64l0,0v53.333c0,5.891-4.776,10.667-10.667,10.667h-42.667
	c-5.891,0-10.667-4.776-10.667-10.667V181.333L234.667,181.333z"/>
<g>
</g>
<g>
</g>
<g>
</g>
<g>
</g>
<g>
</g>
<g>
</g>
<g>
</g>
<g>
</g>
<g>
</g>
<g>
</g>
<g>
</g>
<g>
</g>
<g>
</g>
<g>
</g>
<g>
</g>
</svg>
