<svg width="105" height="100" viewBox="0 0 105 100" fill="none" xmlns="http://www.w3.org/2000/svg">
<path d="M85.1689 33.1731C85.1689 25.1391 78.444 18.6393 70.1928 18.7514C62.1478 18.8608 55.622 25.3426 55.6376 33.2016C55.6318 35.5104 56.2044 37.7872 57.3078 39.843C58.4112 41.8987 60.0137 43.6741 61.9821 45.0217C62.3062 45.2465 62.5695 45.5416 62.75 45.8825C62.9306 46.2235 63.0233 46.6004 63.0204 46.9823L63.0272 53.1251H77.7928L77.7859 46.9821C77.7834 46.5996 77.8766 46.2221 78.0578 45.8807C78.239 45.5394 78.503 45.244 78.8279 45.0192C80.7993 43.6686 82.4034 41.8889 83.5064 39.8283C84.6094 37.7677 85.1794 35.486 85.1689 33.1731Z" fill="#F7B030"/>
<path d="M76.9658 50H63.8408C62.0286 50 60.5596 51.3991 60.5596 53.125C60.5596 54.8509 62.0286 56.25 63.8408 56.25H76.9658C78.778 56.25 80.2471 54.8509 80.2471 53.125C80.2471 51.3991 78.778 50 76.9658 50Z" fill="#C3C6C7"/>
<path d="M63.8409 56.25H76.9659V59.375C76.9659 60.2038 76.6202 60.9987 76.0049 61.5847C75.3895 62.1708 74.5549 62.5 73.6847 62.5H67.1222C66.252 62.5 65.4174 62.1708 64.802 61.5847C64.1866 60.9987 63.8409 60.2038 63.8409 59.375V56.25Z" fill="#DADCDE"/>
<path d="M73.8281 85.9375H96.7969C97.6671 85.9375 98.5017 86.2667 99.1171 86.8528C99.7324 87.4388 100.078 88.2337 100.078 89.0625V92.1875C100.078 93.0163 99.7324 93.8112 99.1171 94.3972C98.5017 94.9833 97.6671 95.3125 96.7969 95.3125H55.4045C54.5696 95.3125 22.163 89.0625 21.3281 89.0625H14.7656V60.9375H29.5312C37.7344 60.9375 54.1406 75 54.1406 75L70.5469 79.6875C70.5469 79.6875 73.8281 81.25 73.8281 82.8125V85.9375C73.8281 86.7663 73.4824 87.5612 72.8671 88.1472C72.2517 88.7333 71.4171 89.0625 70.5469 89.0625L54.1406 85.9375L42.6562 79.6875" fill="#F7CCA9"/>
<path d="M4.92188 57.8125H14.7656V92.1875H4.92188V57.8125Z" fill="#2D85CC"/>
<path d="M79.781 46.2915C81.7776 44.9116 83.4356 43.135 84.6403 41.0848C85.845 39.0345 86.5677 36.7595 86.7583 34.417C86.9488 32.0746 86.6028 29.7207 85.7441 27.5181C84.8854 25.3156 83.5346 23.317 81.785 21.6606C80.2607 20.2139 78.4473 19.0728 76.4521 18.3048C74.4568 17.5368 72.3202 17.1575 70.1684 17.1893C61.2337 17.3106 53.9789 24.495 53.9961 33.205C53.9946 35.7615 54.6315 38.2817 55.8543 40.5576C57.0771 42.8334 58.8507 44.7997 61.0287 46.294C61.1402 46.3742 61.23 46.4784 61.2909 46.5982C61.3518 46.7179 61.382 46.8497 61.3789 46.9827V49.0686C60.564 49.5162 59.9008 50.1769 59.4682 50.9725C59.0355 51.768 58.8514 52.665 58.9377 53.5572C59.0241 54.4494 59.3772 55.2992 59.9553 56.0061C60.5334 56.7129 61.3121 57.2471 62.1992 57.5452V59.3755C62.2007 60.6183 62.7197 61.8097 63.6425 62.6885C64.5652 63.5673 65.8162 64.0616 67.1211 64.063H73.6836C74.9885 64.0615 76.2395 63.5672 77.1622 62.6884C78.0849 61.8097 78.604 60.6182 78.6055 59.3755V57.5442C79.4926 57.2461 80.2714 56.7119 80.8495 56.0051C81.4275 55.2983 81.7807 54.4484 81.867 53.5562C81.9534 52.6641 81.7693 51.767 81.3366 50.9715C80.9039 50.1759 80.2408 49.5152 79.4258 49.0677V46.9825C79.4231 46.8487 79.4539 46.7163 79.5157 46.5961C79.5775 46.4759 79.6684 46.3715 79.781 46.2915ZM57.2782 33.1993C57.2642 26.1917 63.0682 20.4114 70.2162 20.3143C70.2777 20.3143 70.3408 20.313 70.4034 20.313C73.8071 20.3129 77.072 21.5983 79.4822 23.8872C80.8908 25.2236 81.9784 26.835 82.6698 28.6104C83.3613 30.3858 83.6403 32.2829 83.4875 34.1709C83.3347 36.0589 82.7538 37.8928 81.7848 39.5463C80.8158 41.1998 79.4818 42.6335 77.8748 43.7485C77.3374 44.1181 76.9003 44.6043 76.5995 45.1668C76.2988 45.7294 76.1431 46.352 76.1454 46.9833V48.438H64.661V46.9827C64.6637 46.3521 64.5084 45.7299 64.2082 45.1678C63.908 44.6057 63.4714 44.1198 62.9347 43.7505C61.1809 42.5449 59.7534 40.9594 58.7698 39.1248C57.7863 37.2902 57.275 35.2592 57.2782 33.1993ZM73.6844 60.938H67.1219C66.687 60.9375 66.27 60.7727 65.9624 60.4798C65.6548 60.1869 65.4818 59.7897 65.4813 59.3755V57.813H75.3251V59.3755C75.3246 59.7897 75.1516 60.1869 74.844 60.4798C74.5364 60.7727 74.1194 60.9375 73.6844 60.938ZM76.9657 54.688H63.8407C63.4056 54.688 62.9883 54.5234 62.6806 54.2303C62.3729 53.9373 62.2001 53.5399 62.2001 53.1255C62.2001 52.7111 62.3729 52.3136 62.6806 52.0206C62.9883 51.7276 63.4056 51.563 63.8407 51.563H76.9657C77.4008 51.563 77.8181 51.7276 78.1258 52.0206C78.4335 52.3136 78.6063 52.7111 78.6063 53.1255C78.6063 53.5399 78.4335 53.9373 78.1258 54.2303C77.8181 54.5234 77.4008 54.688 76.9657 54.688Z" fill="black"/>
<path d="M73.0632 27.0587C74.0948 27.471 75.0151 28.1002 75.7552 28.8993C76.4953 29.6983 77.036 30.6465 77.3368 31.6728C77.4597 32.0661 77.7401 32.3976 78.1175 32.5957C78.4949 32.7937 78.939 32.8424 79.3537 32.7313C79.7685 32.6201 80.1207 32.358 80.3343 32.0015C80.5478 31.6451 80.6056 31.2229 80.495 30.8263C80.0575 29.3434 79.2733 27.974 78.2014 26.8206C77.1294 25.6672 75.7973 24.7597 74.3049 24.1661C73.9022 24.0092 73.4505 24.0111 73.0492 24.1714C72.648 24.3317 72.33 24.6372 72.1652 25.0207C72.0005 25.4043 72.0025 25.8344 72.1707 26.2166C72.339 26.5988 72.6598 26.9016 73.0626 27.0585L73.0632 27.0587Z" fill="black"/>
<path d="M72.0441 12.5V9.375C72.0441 8.9606 71.8712 8.56317 71.5635 8.27015C71.2559 7.97712 70.8386 7.8125 70.4034 7.8125C69.9683 7.8125 69.551 7.97712 69.2434 8.27015C68.9357 8.56317 68.7628 8.9606 68.7628 9.375V12.5C68.7628 12.9144 68.9357 13.3118 69.2434 13.6049C69.551 13.8979 69.9683 14.0625 70.4034 14.0625C70.8386 14.0625 71.2559 13.8979 71.5635 13.6049C71.8712 13.3118 72.0441 12.9144 72.0441 12.5Z" fill="black"/>
<path d="M61.0618 15.9539C61.335 15.9535 61.6038 15.888 61.8438 15.7635C62.0838 15.6391 62.2873 15.4595 62.436 15.2412C62.5847 15.0229 62.6738 14.7726 62.6953 14.5132C62.7167 14.2537 62.6698 13.9933 62.5589 13.7555L61.2242 10.9006C61.0472 10.522 60.7196 10.2259 60.3133 10.0774C59.9071 9.9289 59.4556 9.94017 59.0581 10.1087C58.6605 10.2773 58.3496 10.5893 58.1937 10.9762C58.0377 11.3631 58.0496 11.7931 58.2266 12.1717L59.5612 15.0266C59.6903 15.3029 59.9008 15.5376 60.1671 15.7022C60.4335 15.8668 60.7443 15.9542 61.0618 15.9539Z" fill="black"/>
<path d="M53.3333 21.3001C53.6651 21.3002 53.9893 21.2044 54.2628 21.0255C54.5364 20.8465 54.7465 20.5927 54.8655 20.2977C54.9844 20.0026 55.0066 19.6801 54.9291 19.3728C54.8517 19.0654 54.6781 18.7877 54.4315 18.5762L51.9931 16.4852C51.6696 16.2079 51.2438 16.0644 50.8092 16.0861C50.3746 16.1079 49.9668 16.2932 49.6757 16.6012C49.3845 16.9093 49.2338 17.3149 49.2567 17.7288C49.2795 18.1427 49.4741 18.531 49.7975 18.8083L52.2359 20.8981C52.5367 21.1571 52.9278 21.3004 53.3333 21.3001Z" fill="black"/>
<path d="M50.1189 28.0976C50.2534 27.7035 50.2179 27.2746 50.0203 26.9054C49.8227 26.5362 49.4793 26.2569 49.0655 26.1288L45.9448 25.1634C45.7395 25.0986 45.5227 25.073 45.307 25.0883C45.0913 25.1035 44.8809 25.1592 44.6879 25.2522C44.4949 25.3451 44.3231 25.4735 44.1824 25.63C44.0416 25.7864 43.9348 25.9678 43.868 26.1638C43.8012 26.3597 43.7757 26.5663 43.793 26.7716C43.8103 26.9769 43.8701 27.177 43.9689 27.3602C44.0677 27.5435 44.2036 27.7063 44.3687 27.8394C44.5338 27.9724 44.725 28.0731 44.9311 28.1355L48.0518 29.1013C48.2566 29.165 48.4727 29.1895 48.6876 29.1735C48.9024 29.1575 49.1119 29.1013 49.3039 29.0081C49.4959 28.9149 49.6668 28.7865 49.8066 28.6304C49.9465 28.4742 50.0526 28.2933 50.1189 28.098V28.0976Z" fill="black"/>
<path d="M47.3884 35.1072L44.1252 35.434C43.9098 35.4541 43.7007 35.5146 43.51 35.6119C43.3192 35.7093 43.1506 35.8417 43.0138 36.0014C42.877 36.1611 42.7748 36.3451 42.7129 36.5426C42.6511 36.7401 42.6309 36.9473 42.6535 37.1523C42.6761 37.3573 42.7411 37.556 42.8447 37.737C42.9483 37.9179 43.0885 38.0776 43.2571 38.2067C43.4258 38.3359 43.6196 38.432 43.8275 38.4895C44.0353 38.547 44.253 38.5648 44.4681 38.5418L47.7315 38.215C48.1622 38.1694 48.5565 37.9633 48.8283 37.6417C49.1 37.3201 49.2271 36.9092 49.1817 36.4987C49.1364 36.0882 48.9224 35.7115 48.5864 35.4508C48.2504 35.19 47.8197 35.0665 47.3884 35.1072Z" fill="black"/>
<path d="M93.0743 38.215L96.3375 38.5418C96.769 38.583 97.2002 38.4598 97.5367 38.1991C97.8731 37.9384 98.0875 37.5614 98.1328 37.1506C98.1782 36.7398 98.0509 36.3285 97.7788 36.0069C97.5067 35.6852 97.1119 35.4792 96.6808 35.434L93.4174 35.1072C93.2024 35.0845 92.9848 35.1024 92.7772 35.16C92.5695 35.2176 92.3759 35.3137 92.2074 35.4429C92.0389 35.572 91.8989 35.7316 91.7954 35.9125C91.6919 36.0933 91.6269 36.2919 91.6043 36.4968C91.5817 36.7016 91.6019 36.9087 91.6636 37.1061C91.7253 37.3035 91.8274 37.4874 91.964 37.6471C92.1007 37.8068 92.2691 37.9392 92.4596 38.0366C92.6501 38.1341 92.859 38.1947 93.0743 38.215Z" fill="black"/>
<path d="M92.2469 29.1778C92.4193 29.1778 92.5905 29.1518 92.7543 29.1009L95.875 28.1354C96.0799 28.072 96.2697 27.9708 96.4335 27.8376C96.5974 27.7043 96.732 27.5416 96.8298 27.3588C96.9276 27.176 96.9867 26.9766 97.0036 26.772C97.0205 26.5675 96.9949 26.3618 96.9284 26.1666C96.8618 25.9715 96.7555 25.7907 96.6156 25.6347C96.4757 25.4786 96.3049 25.3504 96.1129 25.2572C95.9209 25.1641 95.7116 25.1078 95.4968 25.0917C95.282 25.0756 95.066 25.1 94.8611 25.1634L91.7406 26.1288C91.3688 26.2435 91.0521 26.4808 90.8477 26.7981C90.6432 27.1154 90.5644 27.4917 90.6255 27.8594C90.6866 28.2271 90.8834 28.5619 91.1807 28.8037C91.478 29.0454 91.8561 29.1781 92.2469 29.1778Z" fill="black"/>
<path d="M88.5702 20.8986L91.0084 18.8088C91.3317 18.5315 91.5262 18.1432 91.549 17.7293C91.5717 17.3155 91.421 16.9099 91.1298 16.602C90.8386 16.294 90.4309 16.1088 89.9963 16.0871C89.5618 16.0654 89.136 16.209 88.8126 16.4863L86.3744 18.5768C86.057 18.8556 85.8678 19.2423 85.8478 19.653C85.8278 20.0638 85.9787 20.4655 86.2676 20.7711C86.5566 21.0766 86.9604 21.2614 87.3914 21.2852C87.8224 21.3091 88.246 21.1702 88.5702 20.8986Z" fill="black"/>
<path d="M79.7441 15.9539C80.0615 15.9541 80.3721 15.8666 80.6383 15.702C80.9045 15.5374 81.1148 15.3028 81.2438 15.0266L82.5785 12.1717C82.7555 11.7931 82.7673 11.3631 82.6114 10.9762C82.4554 10.5893 82.1445 10.2773 81.747 10.1087C81.3495 9.94017 80.8979 9.9289 80.4917 10.0774C80.0855 10.2259 79.7578 10.522 79.5809 10.9006L78.2462 13.7555C78.1352 13.9933 78.0884 14.2537 78.1098 14.5132C78.1312 14.7726 78.2204 15.0229 78.369 15.2412C78.5177 15.4595 78.7213 15.6391 78.9613 15.7635C79.2012 15.888 79.47 15.9535 79.7433 15.9539H79.7441Z" fill="black"/>
<path d="M96.7969 82.8125H75.4688V81.25C75.4688 78.9041 72.263 77.1953 71.2806 76.7275C71.1964 76.6874 71.1086 76.6542 71.0183 76.6283L54.9607 72.0402C53.9446 71.1854 50.3124 68.1834 45.8717 65.1383C38.7817 60.2771 33.2842 57.8125 29.5312 57.8125H16.4062V56.25C16.4062 55.8356 16.2334 55.4382 15.9257 55.1451C15.618 54.8521 15.2007 54.6875 14.7656 54.6875H4.92188C4.48675 54.6875 4.06945 54.8521 3.76178 55.1451C3.4541 55.4382 3.28125 55.8356 3.28125 56.25V90.625C3.28125 91.0394 3.4541 91.4368 3.76178 91.7299C4.06945 92.0229 4.48675 92.1875 4.92188 92.1875H14.7656C15.2007 92.1875 15.618 92.0229 15.9257 91.7299C16.2334 91.4368 16.4062 91.0394 16.4062 90.625V89.0625H21.2516C22.2752 89.1922 30.6477 90.7664 38.0486 92.158C52.8517 94.9414 54.9429 95.3125 55.4045 95.3125H96.7969C98.1018 95.3111 99.3528 94.8167 100.275 93.938C101.198 93.0592 101.717 91.8678 101.719 90.625V87.5C101.717 86.2572 101.198 85.0658 100.275 84.187C99.3528 83.3083 98.1018 82.8139 96.7969 82.8125ZM13.125 89.0625H6.5625V57.8125H13.125V89.0625ZM98.4375 90.625C98.437 91.0393 98.264 91.4364 97.9564 91.7293C97.6489 92.0223 97.2318 92.187 96.7969 92.1875H55.481C54.4575 92.0578 46.085 90.4836 38.6851 89.092C23.8809 86.3086 21.7898 85.9375 21.3281 85.9375H16.4062V60.9375H29.5312C35.7392 60.9375 48.6082 70.799 53.0433 74.599C53.2234 74.7533 53.4371 74.8678 53.6691 74.9342L69.9318 79.5809C70.9533 80.0898 72.0304 80.9076 72.1865 81.2977V84.375C72.186 84.767 72.031 85.1446 71.7521 85.433C71.4733 85.7214 71.091 85.8996 70.6808 85.9324L54.7235 82.8926L43.4702 76.7684C43.2831 76.6662 43.0767 76.6002 42.8628 76.5741C42.649 76.548 42.4318 76.5623 42.2237 76.6162C42.0156 76.6701 41.8207 76.7625 41.6502 76.8882C41.4796 77.0139 41.3368 77.1704 41.2298 77.3487C41.1228 77.527 41.0538 77.7237 41.0267 77.9274C40.9996 78.1312 41.0149 78.338 41.0718 78.5361C41.1287 78.7342 41.226 78.9197 41.3582 79.0819C41.4904 79.2442 41.6549 79.38 41.8423 79.4816L53.3267 85.7316C53.4797 85.8151 53.6459 85.8744 53.8189 85.9074L70.2251 89.0324C70.3311 89.0525 70.4388 89.0626 70.5469 89.0625C71.5645 89.0614 72.5567 88.7604 73.3876 88.2009C74.2185 87.6414 74.8472 86.8508 75.1876 85.9375H96.7969C97.2318 85.938 97.6489 86.1027 97.9564 86.3957C98.264 86.6886 98.437 87.0857 98.4375 87.5V90.625Z" fill="black"/>
</svg>
