<?xml version="1.0" encoding="UTF-8" standalone="no"?>
<!DOCTYPE svg PUBLIC "-//W3C//DTD SVG 1.1//EN" "http://www.w3.org/Graphics/SVG/1.1/DTD/svg11.dtd">
<svg version="1.1" xmlns="http://www.w3.org/2000/svg" xmlns:xlink="http://www.w3.org/1999/xlink" preserveAspectRatio="xMidYMid meet" viewBox="0 0 500 200" width="500" height="200"><defs><path d="M448.89 111.35C447.06 111.45 445.14 111.64 443.31 112.12C441.89 112.51 440.48 113.19 439.23 114.15C438.23 114.93 437.39 115.99 436.81 117.25C436.23 118.6 435.98 120.05 435.98 121.5C435.98 122.66 436.14 123.73 436.48 124.79C436.81 125.76 437.31 126.63 437.89 127.4C438.48 128.18 439.23 128.76 440.06 129.14C440.89 129.53 441.81 129.72 442.73 129.72C444.22 129.72 445.64 129.43 446.97 128.76C448.31 128.08 449.39 127.02 450.22 125.76C451.22 124.4 451.97 122.86 452.39 121.12C452.89 119.18 453.14 117.05 453.14 115.02C453.14 114.79 453.14 113.59 453.14 111.45C450.58 111.38 449.17 111.35 448.89 111.35ZM408.66 111.35C406.82 111.45 404.91 111.64 403.07 112.12C401.66 112.51 400.24 113.19 398.99 114.15C397.99 114.93 397.16 115.99 396.58 117.25C395.99 118.6 395.74 120.05 395.74 121.5C395.74 122.66 395.91 123.73 396.24 124.79C396.58 125.76 397.08 126.63 397.66 127.4C398.24 128.18 398.99 128.76 399.83 129.14C400.66 129.53 401.57 129.72 402.49 129.72C403.99 129.72 405.41 129.43 406.74 128.76C408.07 128.08 409.16 127.02 409.99 125.76C410.99 124.4 411.74 122.86 412.15 121.12C412.65 119.18 412.9 117.05 412.9 115.02C412.9 114.79 412.9 113.59 412.9 111.45C410.35 111.38 408.93 111.35 408.66 111.35ZM332.6 111.35C330.77 111.45 328.85 111.64 327.02 112.12C325.6 112.51 324.19 113.19 322.94 114.15C321.94 114.93 321.11 115.99 320.52 117.25C319.94 118.6 319.69 120.05 319.69 121.5C319.69 122.66 319.86 123.73 320.19 124.79C320.52 125.76 321.02 126.63 321.61 127.4C322.19 128.18 322.94 128.76 323.77 129.14C324.6 129.53 325.52 129.72 326.44 129.72C327.94 129.72 329.35 129.43 330.69 128.76C332.02 128.08 333.1 127.02 333.93 125.76C334.93 124.4 335.68 122.86 336.1 121.12C336.6 119.18 336.85 117.05 336.85 115.02C336.85 114.79 336.85 113.59 336.85 111.45C334.3 111.38 332.88 111.35 332.6 111.35ZM283.7 93.07C282.29 93.94 281.2 95.3 280.29 96.75C279.29 98.49 278.54 100.62 278.12 102.65C277.54 105.16 277.37 107.87 277.37 110.48C277.37 112.99 277.54 115.6 278.12 118.12C278.62 120.25 279.29 122.28 280.29 124.11C281.2 125.56 282.29 126.92 283.62 127.89C284.87 128.76 286.29 129.14 287.79 129.14C289.2 129.14 290.62 128.76 291.87 127.89C293.2 127.02 294.2 125.66 295.03 124.21C296.03 122.47 296.7 120.44 297.12 118.41C297.61 115.99 297.78 113.38 297.78 110.87C297.78 108.16 297.61 105.55 297.12 102.94C296.7 100.81 296.12 98.78 295.12 96.94C294.37 95.49 293.37 94.04 292.03 93.17C290.78 92.3 289.45 91.91 288.12 91.91C288.1 91.91 287.99 91.91 287.79 91.91L287.79 91.82C285.9 92.14 284.54 92.56 283.7 93.07ZM477.38 91.82C478.38 89.69 479.71 87.27 481.21 86.01C482.54 84.85 484.13 84.18 485.79 84.18C488.46 84.18 490.87 85.34 493.04 86.98C493.06 86.99 493.14 87.06 493.29 87.17L490.71 95.88C490.51 95.7 490.4 95.61 490.37 95.59C488.87 94.52 487.29 93.75 485.54 93.75C484.13 93.75 482.79 94.33 481.71 95.3C480.46 96.46 479.71 98 479.29 99.74C478.46 102.94 478.13 106.22 478.13 109.61C478.13 111.39 478.13 120.28 478.13 136.3L470.55 136.3L470.55 85.24L477.38 85.24L477.38 91.62C477.38 91.72 477.38 91.79 477.38 91.82ZM453.64 129.05C453.05 130.11 452.39 131.08 451.72 131.95C450.81 133.11 449.81 134.17 448.56 134.95C447.47 135.72 446.22 136.3 444.97 136.59C443.64 136.88 442.23 137.07 440.89 137.07C439.14 137.07 437.48 136.78 435.81 136.11C434.23 135.43 432.9 134.37 431.81 133.01C430.65 131.56 429.81 129.92 429.23 128.08C428.65 126.05 428.4 124.02 428.4 121.89C428.4 119.38 428.73 116.76 429.73 114.44C430.65 112.22 431.9 110.38 433.65 108.93C435.56 107.29 437.73 106.22 440.06 105.55C442.81 104.68 445.72 104.39 448.64 104.39C448.95 104.38 450.51 104.35 453.3 104.29C453.3 104 453.3 103.84 453.3 103.81C453.3 102.07 453.14 100.33 452.72 98.68C452.39 97.23 451.81 95.97 450.89 94.81C450.14 93.75 449.14 92.98 448.06 92.49C446.81 91.91 445.56 91.72 444.22 91.72C443.39 91.72 442.56 91.82 441.73 92.01C440.81 92.2 439.98 92.4 439.14 92.78C438.23 93.17 437.31 93.56 436.48 94.04C435.56 94.62 434.65 95.2 433.73 95.97C433.7 96 433.53 96.13 433.23 96.36L433.15 87.46C433.25 87.41 433.3 87.37 433.31 87.37C434.31 86.79 435.31 86.3 436.31 85.82C437.31 85.34 438.39 84.95 439.48 84.66C440.56 84.27 441.64 84.08 442.81 83.98C443.97 83.89 445.22 83.79 446.39 83.79C448.56 83.79 450.72 84.18 452.72 85.14C454.55 86.11 456.05 87.46 457.3 89.3C458.64 91.23 459.47 93.56 460.05 95.97C460.72 98.87 460.97 101.87 460.97 104.87C460.97 104.87 460.97 104.87 460.97 104.87L460.97 136.59L453.97 136.59L453.97 129.24C453.79 129.14 453.68 129.07 453.64 129.05ZM413.4 129.05C412.82 130.11 412.15 131.08 411.49 132.04C410.57 133.2 409.57 134.27 408.32 135.04C407.24 135.82 405.99 136.4 404.74 136.69C403.41 136.98 401.99 137.17 400.66 137.17C398.91 137.17 397.24 136.88 395.58 136.2C393.99 135.53 392.66 134.46 391.58 133.11C390.41 131.66 389.58 130.01 389 128.18C388.41 126.15 388.16 124.11 388.16 121.99C388.16 119.47 388.5 116.86 389.5 114.54C390.41 112.32 391.66 110.48 393.41 109.03C395.33 107.38 397.49 106.32 399.83 105.64C402.57 104.77 405.49 104.48 408.41 104.48C408.72 104.48 410.27 104.44 413.07 104.39C413.07 104.1 413.07 103.94 413.07 103.9C413.07 102.16 412.9 100.42 412.49 98.78C412.15 97.33 411.57 96.07 410.65 94.91C409.9 93.85 408.91 93.07 407.82 92.59C406.57 92.01 405.32 91.82 403.99 91.82C403.16 91.82 402.32 91.91 401.49 92.11C400.58 92.3 399.74 92.49 398.91 92.88C397.99 93.27 397.08 93.65 396.24 94.14C395.33 94.72 394.41 95.3 393.49 96.07C393.46 96.1 393.29 96.22 392.99 96.46L392.91 87.56C393.01 87.5 393.07 87.47 393.08 87.46C394.08 86.88 395.08 86.4 396.08 85.92C397.08 85.43 398.16 85.05 399.24 84.76C400.33 84.37 401.41 84.18 402.57 84.08C403.74 83.98 404.99 83.89 406.16 83.89C408.32 83.89 410.49 84.27 412.49 85.24C414.32 86.21 415.82 87.56 417.07 89.4C418.4 91.33 419.23 93.65 419.82 96.07C420.48 98.97 420.73 101.97 420.73 104.97C420.73 104.97 420.73 104.97 420.73 104.97L420.73 136.69L413.74 136.69L413.74 129.34C413.56 129.18 413.45 129.08 413.4 129.05ZM382.33 128.27L382.33 136.49L352.01 136.49L352.01 127.89L373.25 93.07L352.84 93.07L352.84 84.95L382.33 84.95L382.33 93.36L360.84 128.27L382.33 128.27ZM337.35 129.05C336.77 130.11 336.1 131.08 335.43 132.04C334.52 133.2 333.52 134.27 332.27 135.04C331.19 135.82 329.94 136.4 328.69 136.69C327.35 136.98 325.94 137.17 324.6 137.17C322.86 137.17 321.19 136.88 319.52 136.2C317.94 135.53 316.61 134.46 315.52 133.11C314.36 131.66 313.53 130.01 312.94 128.18C312.36 126.15 312.11 124.11 312.11 121.99C312.11 119.47 312.44 116.86 313.44 114.54C314.36 112.32 315.61 110.48 317.36 109.03C319.27 107.38 321.44 106.32 323.77 105.64C326.52 104.77 329.44 104.48 332.35 104.48C332.66 104.48 334.22 104.44 337.02 104.39C337.02 104.1 337.02 103.94 337.02 103.9C337.02 102.16 336.85 100.42 336.43 98.78C336.1 97.33 335.52 96.07 334.6 94.91C333.85 93.85 332.85 93.07 331.77 92.59C330.52 92.01 329.27 91.82 327.94 91.82C327.1 91.82 326.27 91.91 325.44 92.11C324.52 92.3 323.69 92.49 322.86 92.88C321.94 93.27 321.02 93.65 320.19 94.14C319.27 94.72 318.36 95.3 317.44 96.07C317.41 96.1 317.24 96.22 316.94 96.46L316.86 87.56C316.96 87.5 317.01 87.47 317.02 87.46C318.02 86.88 319.02 86.4 320.02 85.92C321.02 85.43 322.11 85.05 323.19 84.76C324.27 84.37 325.35 84.18 326.52 84.08C327.69 83.98 328.94 83.89 330.1 83.89C332.27 83.89 334.43 84.27 336.43 85.24C338.27 86.21 339.77 87.56 341.01 89.4C342.35 91.33 343.18 93.65 343.76 96.07C344.43 98.97 344.68 101.97 344.68 104.97C344.68 104.97 344.68 104.97 344.68 104.97L344.68 136.69L337.68 136.69L337.68 129.34C337.51 129.18 337.39 129.08 337.35 129.05ZM279.21 89.2C280.12 88.04 281.12 87.08 282.2 86.21C283.29 85.43 284.45 84.85 285.7 84.47C287.04 84.08 288.45 83.89 289.78 83.89C292.12 83.89 294.37 84.47 296.37 85.72C298.45 86.98 300.11 88.91 301.45 91.14C302.95 93.65 304.03 96.46 304.7 99.45C305.45 102.94 305.78 106.51 305.78 110.09C305.78 113.77 305.45 117.44 304.7 121.02C304.03 124.11 302.95 127.11 301.36 129.72C300.03 132.04 298.36 134.07 296.2 135.33C294.2 136.59 291.95 137.17 289.7 137.17C288.29 137.17 286.87 136.98 285.54 136.59C284.2 136.2 282.95 135.43 281.79 134.46C280.62 133.49 279.54 132.24 278.62 130.98C277.87 129.92 277.21 128.76 276.71 127.5C276.71 128.1 276.71 131.1 276.71 136.49L269.63 136.49L269.63 60.1L277.37 60.1L277.37 92.11C278.15 90.75 278.76 89.78 279.21 89.2Z" id="i1KVuVe03f"></path><path d="M219.23 106.22C219.15 104.19 218.9 102.07 218.4 100.13C217.98 98.39 217.31 96.75 216.4 95.39C215.65 94.14 214.65 93.17 213.48 92.49C212.31 91.82 210.98 91.52 209.73 91.52C208.4 91.52 207.15 91.82 205.98 92.59C204.82 93.27 203.82 94.33 202.98 95.59C201.99 97.04 201.32 98.68 200.82 100.52C200.32 102.45 199.99 104.48 199.74 106.51C201.04 106.51 207.53 106.48 219.23 106.42C219.23 106.31 219.23 106.25 219.23 106.22ZM161.17 93.17C159.84 94.04 158.84 95.3 158.09 96.75C157.09 98.49 156.5 100.52 156 102.55C155.5 104.97 155.25 107.58 155.25 110.19C155.25 112.7 155.42 115.22 156 117.73C156.42 119.76 157.09 121.7 158.09 123.44C158.92 124.89 159.92 126.24 161.25 127.02C162.5 127.79 163.83 128.18 165.17 128.18C166.67 128.18 168.08 127.79 169.41 127.02C170.75 126.15 171.83 124.89 172.66 123.44C173.66 121.7 174.33 119.76 174.83 117.73C175.33 115.41 175.58 112.9 175.58 110.48C175.58 107.87 175.41 105.26 174.91 102.65C174.5 100.62 173.83 98.58 172.83 96.84C172 95.39 170.91 94.04 169.5 93.27C168.17 92.4 166.67 92.11 165.17 92.11C165.14 92.11 165.03 92.11 164.83 92.11L164.83 92.01C163.11 92.27 161.89 92.65 161.17 93.17ZM126.93 111.35C125.1 111.45 123.18 111.64 121.35 112.12C119.93 112.51 118.52 113.19 117.27 114.15C116.27 114.93 115.44 115.99 114.85 117.25C114.27 118.6 114.02 120.05 114.02 121.5C114.02 122.66 114.19 123.73 114.52 124.79C114.85 125.76 115.35 126.63 115.94 127.4C116.52 128.18 117.27 128.76 118.1 129.14C118.93 129.53 119.85 129.72 120.77 129.72C122.27 129.72 123.68 129.43 125.02 128.76C126.35 128.08 127.43 127.02 128.26 125.76C129.26 124.4 130.01 122.86 130.43 121.12C130.93 119.18 131.18 117.05 131.18 115.02C131.18 114.79 131.18 113.59 131.18 111.45C128.62 111.38 127.21 111.35 126.93 111.35ZM14.31 56.23L25.8 69.57L31.88 62.51L20.39 49.17L14.31 56.23ZM255.3 94.52C254.55 94.14 253.8 93.75 252.97 93.46C252.22 93.17 251.38 92.78 250.55 92.59C249.8 92.3 248.97 92.11 248.13 92.01C247.3 91.91 246.47 91.82 245.64 91.82C244.8 91.82 243.97 91.91 243.14 92.2C242.39 92.4 241.8 92.78 241.22 93.27C240.72 93.75 240.3 94.33 239.97 95.01C239.64 95.68 239.55 96.46 239.55 97.23C239.55 97.91 239.64 98.58 239.89 99.26C240.14 99.94 240.47 100.52 240.89 101.1C241.55 101.87 242.3 102.55 243.05 103.13C244.22 104.1 245.55 104.87 246.8 105.64C248.55 106.71 250.3 107.96 251.88 109.32C253.05 110.38 254.3 111.54 255.21 112.99C255.96 114.15 256.55 115.51 256.88 116.96C257.3 118.51 257.46 120.05 257.46 121.6C257.46 123.82 257.13 125.95 256.38 127.98C255.63 129.92 254.55 131.56 253.13 132.91C251.63 134.37 249.97 135.33 248.13 135.91C246.05 136.59 243.8 136.88 241.64 136.88C240.72 136.88 239.89 136.78 238.97 136.69C238.14 136.59 237.22 136.49 236.39 136.3C235.56 136.2 234.72 135.91 233.89 135.62C233.06 135.33 232.14 134.95 231.39 134.46C231.38 134.46 231.32 134.42 231.22 134.37L231.47 125.37C231.77 125.6 231.94 125.73 231.97 125.76C232.81 126.44 233.64 126.92 234.56 127.31C235.39 127.69 236.22 128.08 237.06 128.37C237.89 128.66 238.72 128.85 239.55 129.05C240.39 129.24 241.14 129.34 241.97 129.34C242.97 129.34 244.05 129.24 245.05 128.85C245.89 128.56 246.63 128.08 247.3 127.4C247.97 126.82 248.47 126.05 248.8 125.18C249.13 124.21 249.3 123.24 249.3 122.28C249.3 121.5 249.22 120.83 249.05 120.05C248.88 119.38 248.55 118.7 248.22 118.12C247.72 117.35 246.88 116.67 246.22 116.09C245.05 115.12 243.8 114.25 242.47 113.38C240.72 112.22 238.97 110.96 237.39 109.61C236.22 108.54 235.06 107.38 234.14 106.13C233.39 104.97 232.81 103.71 232.39 102.36C231.97 101 231.81 99.45 231.81 98C231.81 96.07 232.06 94.14 232.81 92.4C233.47 90.65 234.47 89.2 235.72 88.04C237.06 86.79 238.64 85.82 240.3 85.24C242.14 84.56 244.14 84.27 246.05 84.27C246.8 84.27 247.63 84.27 248.38 84.37C249.22 84.47 249.97 84.56 250.8 84.66C251.63 84.76 252.47 85.05 253.22 85.24C254.05 85.53 254.8 85.82 255.63 86.11C255.65 86.12 255.73 86.15 255.88 86.21L255.55 94.62L255.13 94.33C255.22 94.43 255.28 94.5 255.3 94.52ZM199.57 113.19C199.74 115.51 200.07 117.83 200.74 119.96C201.32 121.89 202.24 123.73 203.4 125.37C204.48 126.82 205.82 127.89 207.4 128.66C209.07 129.43 210.9 129.72 212.73 129.72C213.56 129.72 214.48 129.63 215.31 129.43C216.15 129.24 216.98 129.05 217.81 128.76C218.73 128.37 219.56 127.98 220.48 127.6C221.39 127.11 222.31 126.63 223.14 125.95C223.18 125.93 223.34 125.8 223.64 125.56L223.64 134.56C223.54 134.62 223.49 134.65 223.48 134.66C222.64 135.24 221.73 135.62 220.73 135.91C219.73 136.2 218.73 136.49 217.73 136.78C216.65 136.98 215.65 137.17 214.56 137.27C213.4 137.36 212.23 137.46 211.07 137.46C208.32 137.46 205.57 136.98 203.07 135.72C200.65 134.46 198.65 132.62 196.99 130.21C195.15 127.6 193.99 124.6 193.16 121.41C192.24 117.73 191.91 113.86 191.91 110.09C191.91 106.42 192.24 102.74 193.16 99.26C193.99 96.17 195.24 93.27 196.9 90.75C198.49 88.43 200.4 86.59 202.74 85.24C205.07 83.98 207.57 83.4 210.07 83.4C212.48 83.4 214.81 83.89 216.98 85.14C219.06 86.3 220.81 88.14 222.14 90.27C223.73 92.69 224.81 95.39 225.48 98.39C226.23 101.68 226.56 105.06 226.56 108.35C226.56 108.35 226.56 108.35 226.56 108.35L226.56 112.99L199.4 112.99C199.49 113.1 199.55 113.16 199.57 113.19ZM174 130.59C173.08 131.85 172.08 133.01 170.91 133.88C169.83 134.75 168.58 135.43 167.33 135.82C166.08 136.2 164.75 136.4 163.42 136.4C161.08 136.4 158.92 135.82 156.84 134.66C154.75 133.4 153 131.56 151.59 129.34C150.09 126.82 149.01 124.02 148.26 121.02C147.42 117.64 147.09 114.06 147.09 110.58C147.09 106.9 147.42 103.13 148.17 99.55C148.84 96.46 149.92 93.56 151.59 91.04C153 88.82 154.67 86.88 156.84 85.53C158.92 84.27 161.17 83.69 163.5 83.69C164.92 83.69 166.33 83.89 167.75 84.37C169.08 84.85 170.33 85.53 171.41 86.4C172.58 87.37 173.58 88.43 174.5 89.69C175.16 90.65 175.75 91.72 176.33 92.78C176.33 92.25 176.33 89.61 176.33 84.85L183.49 84.85C183.49 112.06 183.49 127.18 183.49 130.21C183.49 134.27 183.16 138.52 182.33 142.49C181.58 145.68 180.49 148.77 178.66 151.39C177.08 153.8 175 155.64 172.58 156.8C169.91 158.06 167 158.54 164.17 158.54C163 158.54 161.92 158.44 160.75 158.35C159.59 158.25 158.5 158.06 157.34 157.77C156.25 157.48 155.17 157.19 154.17 156.7C153.17 156.32 152.17 155.83 151.17 155.25C151.16 155.25 151.07 155.21 150.92 155.16L151.5 145.87C151.8 146.05 151.97 146.14 152 146.16C153 146.84 153.92 147.42 154.92 147.9C155.84 148.39 156.75 148.77 157.67 149.16C158.59 149.45 159.5 149.74 160.42 149.93C161.25 150.13 162.08 150.22 162.92 150.22C164.83 150.22 166.75 149.84 168.5 148.97C170.08 148.19 171.5 146.94 172.58 145.39C173.83 143.75 174.58 141.71 175.08 139.59C175.66 137.07 175.91 134.46 175.91 131.85C175.91 131.54 175.91 129.99 175.91 127.21C175.13 128.76 174.5 129.88 174 130.59ZM131.6 128.95C131.01 130.01 130.35 130.98 129.68 131.85C128.76 133.01 127.76 134.07 126.51 134.85C125.43 135.62 124.18 136.2 122.93 136.49C121.6 136.78 120.18 136.98 118.85 136.98C117.1 136.98 115.44 136.69 113.77 136.01C112.19 135.33 110.85 134.27 109.77 132.91C108.6 131.46 107.77 129.82 107.19 127.98C106.61 125.95 106.36 123.92 106.36 121.79C106.36 119.28 106.69 116.67 107.69 114.35C108.6 112.12 109.85 110.29 111.6 108.84C113.52 107.19 115.69 106.13 118.02 105.45C120.77 104.58 123.68 104.29 126.6 104.29C126.91 104.28 128.46 104.25 131.26 104.19C131.26 103.9 131.26 103.74 131.26 103.71C131.26 101.97 131.1 100.23 130.68 98.58C130.35 97.13 129.76 95.88 128.85 94.72C128.1 93.65 127.1 92.88 126.01 92.4C124.77 91.82 123.52 91.62 122.18 91.62C121.35 91.62 120.52 91.72 119.68 91.91C118.77 92.11 117.93 92.3 117.1 92.69C116.19 93.07 115.27 93.46 114.44 93.94C113.52 94.52 112.6 95.1 111.69 95.88C111.65 95.9 111.49 96.03 111.19 96.26L111.1 87.37C111.2 87.31 111.26 87.28 111.27 87.27C112.27 86.69 113.27 86.21 114.27 85.72C115.27 85.24 116.35 84.85 117.43 84.56C118.52 84.18 119.6 83.98 120.77 83.89C121.93 83.79 123.18 83.69 124.35 83.69C126.51 83.69 128.68 84.08 130.68 85.05C132.51 86.01 134.01 87.37 135.26 89.2C136.59 91.14 137.43 93.46 138.01 95.88C138.68 98.78 138.93 101.78 138.93 104.77C138.93 104.77 138.93 104.77 138.93 104.77L138.93 136.49L131.93 136.49L131.93 129.14C131.75 129.04 131.64 128.98 131.6 128.95ZM50.96 89.78C51.79 88.53 52.88 87.37 54.04 86.5C55.13 85.53 56.29 84.85 57.54 84.37C58.87 83.89 60.21 83.69 61.54 83.69C62.87 83.69 64.21 83.89 65.45 84.47C66.62 84.95 67.79 85.72 68.7 86.69C69.7 87.75 70.62 88.91 71.29 90.27C71.95 91.52 72.45 92.88 72.87 94.23C73.45 92.88 74.2 91.52 75.03 90.27C75.95 88.91 76.95 87.75 78.12 86.69C79.2 85.72 80.45 85.05 81.78 84.47C83.11 83.98 84.53 83.69 85.86 83.69C87.78 83.69 89.7 84.08 91.36 85.14C93.03 86.11 94.28 87.56 95.28 89.4C96.44 91.43 97.19 93.85 97.69 96.26C98.28 99.26 98.44 102.36 98.44 105.45C98.44 107.51 98.44 117.83 98.44 136.4L90.7 136.4C90.7 119.05 90.7 109.41 90.7 107.48C90.7 105.35 90.61 103.13 90.28 101C90.03 99.45 89.61 97.81 88.95 96.46C88.36 95.39 87.7 94.43 86.78 93.85C85.86 93.17 84.78 92.98 83.7 92.98C82.28 92.98 80.95 93.27 79.7 94.14C78.45 95.01 77.53 96.17 76.7 97.52C75.78 99.16 75.2 101.1 74.78 103.03C74.28 105.45 74.12 107.96 74.12 110.38C74.12 112.12 74.12 120.83 74.12 136.49L66.29 136.49C66.29 119.14 66.29 109.51 66.29 107.58C66.29 105.35 66.2 103.13 65.87 100.91C65.62 99.36 65.21 97.71 64.54 96.46C64.04 95.39 63.29 94.43 62.37 93.85C61.29 93.17 60.12 92.98 58.96 92.98C57.62 92.98 56.38 93.36 55.29 94.14C54.04 95.01 53.13 96.26 52.38 97.62C51.46 99.26 50.88 101.2 50.46 103.03C49.96 105.45 49.79 107.87 49.79 110.29C49.79 112.03 49.79 120.73 49.79 136.4L42.13 136.4L42.13 84.85L49.21 84.85L49.21 92.98C49.93 91.49 50.52 90.43 50.96 89.78ZM30.39 84.76L30.39 136.3L22.64 136.3L22.64 84.76L30.39 84.76ZM39.96 62.32L25.8 78.76L6.23 56.03L20.39 39.59L39.96 62.32Z" id="bbJWezRVs"></path></defs><g><g><g><use xlink:href="#i1KVuVe03f" opacity="1" fill="#7b7b7b" fill-opacity="1"></use><g><use xlink:href="#i1KVuVe03f" opacity="1" fill-opacity="0" stroke="#000000" stroke-width="1" stroke-opacity="0"></use></g></g><g><use xlink:href="#bbJWezRVs" opacity="1" fill="#0b0b0b" fill-opacity="1"></use><g><use xlink:href="#bbJWezRVs" opacity="1" fill-opacity="0" stroke="#000000" stroke-width="1" stroke-opacity="0"></use></g></g></g></g></svg>